<svg width="48" height="48" viewBox="0 0 48 48" fill="none" xmlns="http://www.w3.org/2000/svg">
<path d="M24 48C37.2548 48 48 37.2548 48 24C48 10.7452 37.2548 0 24 0C10.7452 0 0 10.7452 0 24C0 37.2548 10.7452 48 24 48Z" fill="#FDECF2"/>
<path d="M11.9091 8C10.3018 8 9 9.30182 9 10.9091V13.8182C9 14.6211 9.65164 15.2727 10.4545 15.2727H30.8182C31.6211 15.2727 32.2727 14.6211 32.2727 13.8182V10.9091C32.2727 9.30182 30.9709 8 29.3636 8H11.9091ZM10.4545 18.1818C9.65164 18.1818 9 18.8335 9 19.6364V25.4545C9 26.2575 9.65164 26.9091 10.4545 26.9091H22.4688C24.3088 24.2735 27.3593 22.5455 30.8182 22.5455C31.3127 22.5455 31.7971 22.5936 32.2727 22.6619V19.6364C32.2727 18.8335 31.6211 18.1818 30.8182 18.1818H10.4545ZM30.8182 25.4545C26.8022 25.4545 23.5455 28.7113 23.5455 32.7273C23.5455 36.7433 26.8022 40 30.8182 40C34.8342 40 38.0909 36.7433 38.0909 32.7273C38.0909 28.7113 34.8342 25.4545 30.8182 25.4545ZM10.4545 29.8182C9.65164 29.8182 9 30.4698 9 31.2727V34.1818C9 35.7891 10.3018 37.0909 11.9091 37.0909H21.6307C21.0009 35.7673 20.6364 34.2909 20.6364 32.7273C20.6364 31.7164 20.7904 30.7404 21.0653 29.8182H10.4545ZM27.9091 31.2727H33.7273C34.5302 31.2727 35.1818 31.9244 35.1818 32.7273C35.1818 33.5302 34.5302 34.1818 33.7273 34.1818H27.9091C27.1062 34.1818 26.4545 33.5302 26.4545 32.7273C26.4545 31.9244 27.1062 31.2727 27.9091 31.2727Z" fill="#EC407A"/>
</svg>
