<svg width="48" height="48" viewBox="0 0 48 48" fill="none" xmlns="http://www.w3.org/2000/svg">
<path d="M24 48C37.2548 48 48 37.2548 48 24C48 10.7452 37.2548 0 24 0C10.7452 0 0 10.7452 0 24C0 37.2548 10.7452 48 24 48Z" fill="#FDECF2"/>
<path d="M21 9C20.558 9.00004 20.1341 9.17565 19.8215 9.4882C19.509 9.80076 19.3334 10.2247 19.3333 10.6667V17.3333C19.3334 17.7753 19.509 18.1992 19.8215 18.5118C20.1341 18.8243 20.558 19 21 19H22.6667V22.3333H11C10.558 22.3334 10.1341 22.509 9.82154 22.8215C9.50899 23.1341 9.33338 23.558 9.33333 24V29H7.66667C7.22465 29 6.80076 29.1757 6.4882 29.4882C6.17565 29.8008 6.00004 30.2247 6 30.6667V37.3333C6.00004 37.7753 6.17565 38.1992 6.4882 38.5118C6.80076 38.8243 7.22465 39 7.66667 39H14.3333C14.7753 39 15.1992 38.8243 15.5118 38.5118C15.8243 38.1992 16 37.7753 16 37.3333V30.6667C16 30.2247 15.8243 29.8008 15.5118 29.4882C15.1992 29.1757 14.7753 29 14.3333 29H12.6667V25.6667H22.6667V29H21C20.558 29 20.1341 29.1757 19.8215 29.4882C19.509 29.8008 19.3334 30.2247 19.3333 30.6667V37.3333C19.3334 37.7753 19.509 38.1992 19.8215 38.5118C20.1341 38.8243 20.558 39 21 39H27.6667C28.1087 39 28.5326 38.8243 28.8451 38.5118C29.1577 38.1992 29.3333 37.7753 29.3333 37.3333V30.6667C29.3333 30.2247 29.1577 29.8008 28.8451 29.4882C28.5326 29.1757 28.1087 29 27.6667 29H26V25.6667H36V29H34.3333C33.8913 29 33.4674 29.1757 33.1549 29.4882C32.8423 29.8008 32.6667 30.2247 32.6667 30.6667V37.3333C32.6667 37.7753 32.8423 38.1992 33.1549 38.5118C33.4674 38.8243 33.8913 39 34.3333 39H41C41.442 39 41.8659 38.8243 42.1785 38.5118C42.491 38.1992 42.6666 37.7753 42.6667 37.3333V30.6667C42.6666 30.2247 42.491 29.8008 42.1785 29.4882C41.8659 29.1757 41.442 29 41 29H39.3333V24C39.3333 23.558 39.1577 23.1341 38.8451 22.8215C38.5326 22.509 38.1087 22.3334 37.6667 22.3333H26V19H27.6667C28.1087 19 28.5326 18.8243 28.8451 18.5118C29.1577 18.1992 29.3333 17.7753 29.3333 17.3333V10.6667C29.3333 10.2247 29.1577 9.80076 28.8451 9.4882C28.5326 9.17565 28.1087 9.00004 27.6667 9H21Z" fill="#EC407A"/>
</svg>
