<svg width="64" height="62" viewBox="0 0 64 62" fill="none" xmlns="http://www.w3.org/2000/svg">
<g clip-path="url(#clip0)">
<path fill-rule="evenodd" clip-rule="evenodd" d="M6.19178 8.43373C12.5517 1.15796 22.8366 -0.375607 32.4839 0.18623C41.7214 0.724205 50.6078 4.13089 56.3874 11.357C62.394 18.867 65.4687 28.8047 62.7516 38.0295C60.1215 46.9589 51.7003 52.1501 43.233 56.0175C34.6368 59.9439 24.9989 63.2395 16.4703 59.1684C7.68 54.9723 3.14772 45.506 1.21367 35.9595C-0.734163 26.345 -0.264376 15.8196 6.19178 8.43373Z" fill="#FFC136"/>
<path fill-rule="evenodd" clip-rule="evenodd" d="M30.744 0.00244595C39.8025 0.145574 47.1301 6.57553 52.5721 13.8186C57.7829 20.754 60.7285 29.1759 59.0593 37.6886C57.3245 46.5357 52.0765 54.7556 43.8302 58.3996C35.8479 61.9269 27.0322 59.0461 19.1358 55.3305C11.1192 51.5582 2.9228 46.6587 0.669371 38.0902C-1.65319 29.2589 2.37452 20.2816 8.0335 13.1148C13.7328 5.89697 21.5484 -0.142849 30.744 0.00244595Z" fill="#7E57C2"/>
<path d="M26.0219 11.9999C22.8296 11.9999 20.4957 13.9433 19.6709 16.0031C16.4536 16.7082 14 20.3339 14 24.5216C14 25.773 14.2431 27.0267 14.7627 28.4347H18.8393C19.1633 27.5261 20.0245 26.8694 21.0435 26.8694C22.3379 26.8694 23.3913 27.9228 23.3913 29.2173C23.3913 30.5117 22.3379 31.5651 21.0435 31.5651C20.0245 31.5651 19.1633 30.9085 18.8393 29.9999H15.0149C14.4397 30.7848 14 31.7506 14 33.1303C14 35.3044 15.3605 37.1994 17.6073 38.2356C16.9836 39.6866 17.0104 41.116 17.699 42.3275C18.5083 43.7511 20.1325 44.6846 22.0233 44.845C22.9413 47.318 25.4076 47.9999 26.8045 47.9999C28.1036 47.9999 29.6522 47.3652 29.6522 44.3467V33.9129H24.9565V37.187C25.8651 37.511 26.5217 38.3722 26.5217 39.3912C26.5217 40.6856 25.4683 41.739 24.1739 41.739C22.8795 41.739 21.8261 40.6856 21.8261 39.3912C21.8261 38.3722 22.4827 37.511 23.3913 37.187V32.3477H29.6522V26.0868H24.9565V22.1738H23.2476C22.9236 23.0824 22.0624 23.739 21.0435 23.739C19.749 23.739 18.6957 22.6856 18.6957 21.3912C18.6957 20.0967 19.749 19.0434 21.0435 19.0434C22.0624 19.0434 22.9236 19.7 23.2476 20.6086H26.5217V24.5216H29.6522V16.0597C29.6522 12.2734 28.2805 11.9999 26.0219 11.9999ZM34.8477 11.9999C32.589 11.9999 31.2174 12.2734 31.2174 16.0597V20.6086H37.6219C37.9952 19.563 39.0784 18.8513 40.2953 19.0892C41.2149 19.2692 41.9628 20.0275 42.1326 20.9494C42.4058 22.4372 41.2653 23.739 39.8261 23.739C38.8071 23.739 37.9459 23.0824 37.6219 22.1738H31.2174V38.6086H34.4915C34.8648 37.563 35.948 36.8513 37.1649 37.0892C38.0845 37.2692 38.8324 38.0275 39.0022 38.9494C39.2753 40.4372 38.1349 41.739 36.6957 41.739C35.6767 41.739 34.8155 41.0824 34.4915 40.1738H31.2174V44.3482C31.2174 47.3667 32.7659 47.9999 34.065 47.9999C35.462 47.9999 37.9283 47.318 38.8448 44.845C40.7355 44.6846 42.3613 43.7511 43.1705 42.3275C43.5008 41.7468 43.6759 41.1155 43.7009 40.4566C43.7322 39.6411 43.3844 38.8834 43.0299 38.1485C42.9837 38.0507 42.9565 37.9426 42.9565 37.826V34.6955H35.913V30.6388C34.8675 30.2663 34.1558 29.1824 34.3937 27.9654C34.5737 27.0458 35.332 26.2979 36.2539 26.1281C37.7416 25.855 39.0435 26.9954 39.0435 28.4347C39.0435 29.4536 38.3869 30.3148 37.4783 30.6388V33.1303H44.5217V37.4836C46.0009 36.3989 46.8696 34.8567 46.8696 33.1303C46.8696 31.5534 46.2958 30.5164 45.6009 29.6728C46.4766 27.7335 46.8696 26.1275 46.8696 24.5216C46.8696 20.3339 44.416 16.7082 41.1987 16.0031C40.3731 13.9425 38.0399 11.9999 34.8477 11.9999ZM21.0435 20.6086C20.8359 20.6086 20.6369 20.691 20.4901 20.8378C20.3433 20.9846 20.2609 21.1836 20.2609 21.3912C20.2609 21.5987 20.3433 21.7978 20.4901 21.9446C20.6369 22.0913 20.8359 22.1738 21.0435 22.1738C21.251 22.1738 21.4501 22.0913 21.5969 21.9446C21.7436 21.7978 21.8261 21.5987 21.8261 21.3912C21.8261 21.1836 21.7436 20.9846 21.5969 20.8378C21.4501 20.691 21.251 20.6086 21.0435 20.6086ZM39.8261 20.6086C39.6185 20.6086 39.4195 20.691 39.2727 20.8378C39.1259 20.9846 39.0435 21.1836 39.0435 21.3912C39.0435 21.5987 39.1259 21.7978 39.2727 21.9446C39.4195 22.0913 39.6185 22.1738 39.8261 22.1738C40.0336 22.1738 40.2327 22.0913 40.3795 21.9446C40.5262 21.7978 40.6087 21.5987 40.6087 21.3912C40.6087 21.1836 40.5262 20.9846 40.3795 20.8378C40.2327 20.691 40.0336 20.6086 39.8261 20.6086ZM36.6957 27.6521C36.4881 27.6521 36.289 27.7345 36.1423 27.8813C35.9955 28.028 35.913 28.2271 35.913 28.4347C35.913 28.6422 35.9955 28.8413 36.1423 28.988C36.289 29.1348 36.4881 29.2173 36.6957 29.2173C36.9032 29.2173 37.1023 29.1348 37.249 28.988C37.3958 28.8413 37.4783 28.6422 37.4783 28.4347C37.4783 28.2271 37.3958 28.028 37.249 27.8813C37.1023 27.7345 36.9032 27.6521 36.6957 27.6521ZM21.0435 28.4347C20.8359 28.4347 20.6369 28.5171 20.4901 28.6639C20.3433 28.8106 20.2609 29.0097 20.2609 29.2173C20.2609 29.4248 20.3433 29.6239 20.4901 29.7707C20.6369 29.9174 20.8359 29.9999 21.0435 29.9999C21.251 29.9999 21.4501 29.9174 21.5969 29.7707C21.7436 29.6239 21.8261 29.4248 21.8261 29.2173C21.8261 29.0097 21.7436 28.8106 21.5969 28.6639C21.4501 28.5171 21.251 28.4347 21.0435 28.4347ZM24.1739 38.6086C23.9664 38.6086 23.7673 38.691 23.6205 38.8378C23.4738 38.9846 23.3913 39.1836 23.3913 39.3912C23.3913 39.5987 23.4738 39.7978 23.6205 39.9446C23.7673 40.0913 23.9664 40.1738 24.1739 40.1738C24.3815 40.1738 24.5805 40.0913 24.7273 39.9446C24.8741 39.7978 24.9565 39.5987 24.9565 39.3912C24.9565 39.1836 24.8741 38.9846 24.7273 38.8378C24.5805 38.691 24.3815 38.6086 24.1739 38.6086ZM36.6957 38.6086C36.4881 38.6086 36.289 38.691 36.1423 38.8378C35.9955 38.9846 35.913 39.1836 35.913 39.3912C35.913 39.5987 35.9955 39.7978 36.1423 39.9446C36.289 40.0913 36.4881 40.1738 36.6957 40.1738C36.9032 40.1738 37.1023 40.0913 37.249 39.9446C37.3958 39.7978 37.4783 39.5987 37.4783 39.3912C37.4783 39.1836 37.3958 38.9846 37.249 38.8378C37.1023 38.691 36.9032 38.6086 36.6957 38.6086Z" fill="white"/>
</g>
<defs>
<clipPath id="clip0">
<rect width="64" height="62" fill="white"/>
</clipPath>
</defs>
</svg>
