<svg width="671" height="450" viewBox="0 0 671 450" fill="none" xmlns="http://www.w3.org/2000/svg">
<g clip-path="url(#clip0)">
<path d="M668.408 257.594C659.672 314.035 632.42 362.402 594.358 396.837C593.037 398.037 591.707 399.214 590.362 400.368C585.669 404.422 580.82 408.268 575.828 411.893H23.9932C22.886 408.1 21.9062 404.253 21.0537 400.368C20.8253 399.325 20.6056 398.281 20.399 397.23C16.4928 377.707 15.8514 357.108 19.0062 336.228C31.1466 255.913 94.8456 198.433 168.659 196.12C169.683 196.092 171.138 196.157 172.93 196.311C205.01 199.049 234.85 178.278 244.744 145.726C244.793 145.572 244.841 145.418 244.885 145.274C278.517 39.056 380.507 -28.6662 487.909 -9.8741C607.134 10.9799 688.026 130.848 668.408 257.594Z" fill="#EAE7FB"/>
<path d="M430.286 185.801C426.051 174.812 418.423 166.323 416.459 153.576C412.997 131.16 433.501 109.819 432.618 81.4716C432.203 67.9853 427.094 55.7984 418.79 46.9102C426.749 53.0289 431.21 60.2285 434.954 71.2841C441.148 89.5757 432.716 109.301 432.63 109.497C432.472 109.861 432.608 110.301 432.938 110.478C433.029 110.527 433.127 110.55 433.225 110.55C433.469 110.55 433.703 110.399 433.817 110.139C433.904 109.933 442.586 89.6597 436.188 70.766C431.158 55.9076 424.886 47.8427 411.003 40.2035C402.82 34.5917 392.774 31.5758 381.691 32.2674C368.238 33.1047 361.501 40.2959 358.225 46.1598C357.785 46.9522 357.409 47.714 357.079 48.4392C355.682 51.5615 355.299 53.8858 355.299 53.8858L363.717 244.198C363.717 244.198 392.011 255.341 401.133 252.277C413.012 250.757 432.588 227.413 433.21 202.788C434.232 209.807 434.237 218.529 431.432 228.16C431.266 228.735 431.536 229.351 432.047 229.549C432.568 229.748 433.14 229.438 433.308 228.857C437.57 214.233 435.619 201.613 433.187 193.527C432.306 190.601 431.288 188.004 430.286 185.801Z" fill="#373365"/>
<path d="M528.441 244.021C526.522 249.426 522.275 257.507 524.194 263.156C526.111 268.805 534.197 272.022 539.448 272.022C545.728 272.022 557.032 256.455 560.551 250.112C562.851 245.967 564.592 242.348 565.959 238.295C566.807 235.79 568.443 231.168 566.266 229.211C563.975 227.149 562.513 227.805 561.342 228.851C553.555 225.34 541.19 222.472 534.626 222.472C535.891 229.283 531.621 235.055 528.441 244.021Z" fill="#FFC3AD"/>
<path d="M356.05 221.188C355.549 221.762 355.025 222.351 354.476 222.939C353.635 223.854 352.749 224.788 351.828 225.731C343.589 234.172 332.785 243.511 330.088 248.931L328.004 253.134L327.483 254.183C327.302 254.538 327.181 254.818 327.03 255.141L326.156 257.009C325.572 258.245 324.985 259.483 324.396 260.841L322.641 264.824C321.514 267.509 320.38 270.193 319.318 272.935C318.766 274.289 318.248 275.661 317.731 277.043C317.218 278.425 316.682 279.788 316.193 281.189L314.705 285.368L313.278 289.585C312.349 292.408 311.417 295.233 310.556 298.1C309.669 300.954 308.844 303.838 308.013 306.723C307.207 309.618 306.414 312.516 305.656 315.44C304.906 318.363 304.163 321.29 303.471 324.242C302.761 327.187 302.094 330.147 301.442 333.118C300.699 336.526 299.992 339.948 299.309 343.384C298.805 345.938 298.324 348.497 297.853 351.066C296.874 356.419 295.986 361.807 295.142 367.229C293.807 367.041 292.481 366.845 291.171 366.627C288.699 366.248 286.28 365.803 283.882 365.352L280.334 364.624L276.888 363.82L292.111 388.128L293.475 378.472L294.822 369.245C294.923 368.573 295.036 367.901 295.142 367.229C296.305 367.391 297.468 367.545 298.629 367.705C298.704 367.714 298.78 367.725 298.856 367.733C300.515 367.951 302.189 368.139 303.861 368.33C302.257 372.135 300.545 375.941 298.634 379.746C297.068 382.869 295.368 385.999 293.488 389.122C293.211 389.584 292.929 390.046 292.644 390.508C289.24 396.665 284.958 401.849 280.7 407.186C279.937 407.091 279.171 406.999 278.403 406.895L274.075 406.265L269.677 405.509C259.643 403.781 252.763 393.333 254.316 382.168L254.321 382.132L254.455 381.203L255.765 371.897L257.184 362.177C258.176 355.664 259.259 349.136 260.447 342.62C261.633 336.1 262.935 329.593 264.354 323.099C265.064 319.853 265.794 316.608 266.575 313.373C267.335 310.131 268.154 306.902 268.985 303.676C269.816 300.447 270.697 297.227 271.596 294.015C272.514 290.803 273.439 287.591 274.428 284.396C275.395 281.192 276.44 278.014 277.485 274.83L279.101 270.068L280.788 265.324C281.342 263.741 281.956 262.172 282.543 260.599C283.132 259.025 286.883 249.646 288.193 246.54C288.857 244.986 294.298 232.758 296.686 228.393C303.265 216.365 321.865 209.586 337.518 207.395C338.123 207.307 338.725 207.233 339.321 207.163C344.123 206.588 348.585 206.457 352.25 206.751C353.023 206.808 353.761 206.892 354.458 206.99C356.893 207.336 358.844 207.905 360.133 208.699C363.586 210.822 360.957 215.557 356.05 221.188Z" fill="#EF2955"/>
<path d="M355.42 419.811C355.103 419.811 349.596 420.969 349.276 420.964C318.578 420.504 298.12 407.058 298.634 379.606L301.028 251.736C301.537 224.569 326.795 206.596 357.065 206.596C357.381 206.596 357.697 206.598 358.014 206.602C388.715 207.062 412.718 225.949 412.204 253.401L409.809 381.272C409.301 408.438 385.689 419.811 355.42 419.811Z" fill="#EF2955"/>
<path d="M532.898 265.023C526.942 261.813 523.946 256.585 522.44 252.398C515.83 261.357 506.204 274.408 504.625 276.578C499.738 283.291 494.788 289.938 489.765 296.458C484.739 302.959 479.63 309.374 474.457 315.341C473.57 316.36 472.68 317.356 471.792 318.342C469.187 314.972 466.591 311.336 464.037 307.605C457.949 298.679 452.082 289.24 446.352 279.699C440.625 270.141 435.039 260.43 429.556 250.645C429.045 249.73 417.728 227.869 412.023 221.501C403.426 211.917 387.657 207.204 373.888 205.768C373.3 205.708 372.714 205.655 372.136 205.601C366.175 205.097 360.672 205.207 356.4 205.797C355.682 205.899 355 206.008 354.354 206.138C352.496 206.5 350.963 206.973 349.839 207.538C345.861 209.536 349.768 213.694 355.943 218.511C356.547 218.983 357.169 219.459 357.811 219.944C358.781 220.672 359.79 221.412 360.818 222.16C368.495 227.742 377.262 233.683 379.532 237.951L383.625 245.628L387.733 253.217C390.48 258.266 393.261 263.299 396.075 268.314C400.932 276.988 405.887 285.631 410.993 294.24C411.792 295.594 412.601 296.948 413.412 298.302C419.387 308.256 425.529 318.154 432.271 328.047C435.663 333 439.18 337.939 443.205 342.981C445.236 345.509 447.383 348.058 449.976 350.752C450.594 351.412 451.348 352.127 452.039 352.81L453.211 353.888L453.809 354.425L454.481 354.996C455.327 355.729 456.391 356.551 457.507 357.351C458.151 357.79 458.807 358.222 459.468 358.637C460.268 359.113 461.125 359.581 461.97 360.013C465.208 361.668 468.991 362.388 472.89 361.843L473.107 361.814C473.544 361.748 473.977 361.675 474.404 361.595L475.04 361.465L475.575 361.334C475.937 361.241 476.289 361.148 476.646 361.041L477.539 360.747C478.729 360.343 479.613 359.942 480.422 359.552C482.002 358.776 483.1 358.081 484.066 357.429C485.963 356.131 487.263 355.016 488.453 353.959C490.793 351.845 492.553 349.959 494.242 348.083C497.566 344.359 500.387 340.79 503.119 337.207C508.54 330.059 513.474 322.946 518.289 315.799C523.098 308.649 527.742 301.483 532.302 294.277C534.583 290.675 542.416 277.998 542.416 277.998L548.256 269.344C543.557 269.022 538.182 267.871 532.898 265.023Z" fill="#EF2955"/>
<path d="M374.022 206.565C374.004 207.251 373.949 207.928 373.871 208.596C372.909 216.603 367.75 223.139 360.932 225.376C359.302 225.913 357.578 226.198 355.788 226.202H355.75C354.403 226.202 353.089 226.04 351.828 225.731C344.571 223.966 338.931 217.416 337.713 209.198C337.625 208.605 337.561 208.003 337.518 207.395C338.123 207.307 338.725 207.233 339.321 207.163C339.211 206.317 339.153 205.449 339.153 204.571L339.11 181.974C339.095 171.781 346.507 163.499 355.675 163.479H355.71C364.857 163.479 372.287 171.72 372.304 181.899L372.345 204.496C372.345 205.131 372.32 205.757 372.267 206.373C372.846 206.434 373.432 206.494 374.022 206.565Z" fill="white"/>
<path d="M372.345 204.497C372.345 205.132 372.322 205.758 372.264 206.372C372.211 206.98 372.126 207.579 372.022 208.17C370.64 215.848 364.983 221.81 357.92 222.833C357.22 222.934 356.506 222.991 355.78 222.991H355.747C355.32 222.991 354.896 222.972 354.476 222.94C347.174 222.323 341.184 216.444 339.581 208.703C339.472 208.199 339.39 207.687 339.321 207.162C339.211 206.318 339.153 205.448 339.153 204.572L339.122 188.481L339.115 184.779L339.11 181.974C339.095 171.783 346.507 163.499 355.675 163.481H355.71C364.857 163.481 372.287 171.72 372.302 181.899V182.144L372.315 186.865L372.345 204.497Z" fill="#FFC3AD"/>
<path d="M543.71 239.741C543.71 239.741 543.926 241.225 544.866 242.5C545.89 243.892 548.028 244.579 549.378 244.215C550.727 243.852 551.833 242.94 551.833 242.94C551.833 242.94 552.203 245.47 553.734 246.257C555.393 247.111 557.695 246.82 558.697 245.513C559.699 244.206 564.712 236.619 565.508 233.206C566.304 229.794 546.283 232.788 546.283 232.788L543.71 239.741Z" fill="#F0A68C"/>
<path d="M379.41 175.395C377.222 177.759 374.875 180.081 372.302 182.144L372.315 186.865C367.458 190.612 361.8 193.388 354.909 193.772C349.43 194.076 344.008 191.828 339.122 188.481L339.115 184.779C333.672 181.207 328.863 176.215 325.345 171.746C320.267 165.296 315.642 152.514 312.875 137.495C312.875 137.492 312.874 137.489 312.872 137.484C312.147 132.871 311.6 128.088 311.269 123.249C308.635 84.6414 324.809 78.3155 360.401 77.3382C384.891 76.6633 392.78 84.1233 395.743 98.3965C396.518 103.986 396.797 110.446 397.122 117.708C398.441 147.03 385.717 168.592 379.41 175.395Z" fill="#F0A68C"/>
<path d="M537.29 199.215L547.509 232.899L538.41 231.713L556.022 202.039C557.233 199.997 559.799 199.369 561.751 200.637C563.641 201.865 564.256 204.429 563.196 206.444L547.019 236.998C545.699 239.495 542.694 240.398 540.306 239.015C539.084 238.307 538.257 237.12 537.923 235.812L529.302 201.643C528.713 199.319 530.042 196.937 532.262 196.324C534.412 195.73 536.618 197.023 537.29 199.215Z" fill="#FFC3AD"/>
<path d="M545.195 237.538L552.744 224.872C554.13 222.544 557.148 221.777 559.486 223.16C561.821 224.541 562.591 227.548 561.205 229.876C561.111 230.032 561.006 230.185 560.9 230.326L551.991 242.084C550.627 243.884 548.056 244.242 546.248 242.884C544.564 241.617 544.138 239.304 545.195 237.538Z" fill="#FFC3AD"/>
<path d="M553.256 240.54L559.468 229.65C560.611 227.642 563.183 226.935 565.207 228.069C567.234 229.203 567.949 231.75 566.803 233.757C566.726 233.892 566.642 234.024 566.552 234.148L559.161 244.287C558.025 245.846 555.829 246.197 554.259 245.072C552.794 244.023 552.385 242.063 553.256 240.54Z" fill="#FFC3AD"/>
<path d="M530.981 240.179C530.981 240.179 536.046 232.627 539.574 229.965C542.841 227.503 544.825 226.517 546.339 226.517C547.854 226.517 559.2 230.817 560.08 232.064C561.81 234.515 561.027 239.671 558.012 240.289C554.998 240.908 548.03 239.111 546.982 239.335C545.934 239.561 544.064 241.082 544.064 241.082C544.064 241.082 547.959 249.511 539.994 252.435C532.029 255.358 530.981 240.179 530.981 240.179Z" fill="#F0A68C"/>
<path d="M84.3778 393.294H507.565L577.025 413.201H7.32941L84.3778 393.294Z" fill="#ACABDE"/>
<path d="M578.899 415.559V422.359C578.899 423.66 577.95 424.719 576.779 424.719H7.57741C6.40536 424.719 5.45528 423.66 5.45528 422.359V415.559C5.45528 414.257 6.40536 413.199 7.57741 413.199H576.779C577.95 413.199 578.899 414.257 578.899 415.559Z" fill="#9998D9"/>
<path d="M364.427 398.323L413.161 391.272L246.911 391.059L222.017 398.323H364.427Z" fill="#C5D4D9"/>
<path d="M365.947 398.323H208.736L193.491 300.861C192.786 296.353 195.906 292.228 200.019 292.228H343.778C346.998 292.228 349.756 294.805 350.307 298.333L365.947 398.323Z" fill="#EFEFEF"/>
<path d="M363.734 403.246H208.353L208.44 398.323H363.734V403.246Z" fill="#EDFBFF"/>
<path d="M363.734 403.247V398.323L412.896 391.286C413.732 391.165 414.472 391.891 414.472 392.829V394.198C414.472 394.977 413.956 395.635 413.264 395.738L363.734 403.247Z" fill="#D5E2E6"/>
<path d="M363.734 398.323H208.44L191.951 302.475C191.245 297.969 194.365 293.841 198.479 293.841H341.816C345.039 293.841 347.793 296.421 348.345 299.949L363.734 398.323Z" fill="white"/>
<path d="M263.473 350.376C263.473 357.306 268.526 362.927 274.758 362.927C280.992 362.927 286.042 357.306 286.042 350.376C286.042 343.442 280.992 337.825 274.758 337.825C268.526 337.825 263.473 343.442 263.473 350.376Z" fill="#C1C6F5"/>
<path d="M365.9 398.015L363.734 398.323V403.246L365.945 402.924L365.9 398.015Z" fill="#D5E2E6"/>
<path d="M557.066 231.657L557.018 231.646C555.404 231.262 553.788 230.829 552.176 230.346C551.37 230.107 550.567 229.857 549.769 229.596L548.575 229.2L547.431 228.796L547.189 228.71C546.487 228.463 545.725 228.485 545.037 228.77L544.527 228.981C544.042 229.189 543.734 229.335 543.354 229.516L542.288 230.046C541.586 230.408 540.898 230.786 540.215 231.184C538.853 231.98 537.516 232.855 536.212 233.837C534.906 234.823 533.629 235.919 532.415 237.2C531.81 237.846 531.221 238.53 530.663 239.283C530.551 239.438 530.444 239.585 530.339 239.736C528.858 241.449 528.034 243.793 528.304 246.343C528.715 250.207 531.721 253.348 535.416 253.769C540.279 254.322 544.388 250.355 544.388 245.382C544.388 243.644 543.886 242.029 543.024 240.687C543.575 240.32 544.141 239.964 544.72 239.627C545.263 239.31 545.817 239.006 546.372 238.718L546.87 238.472L547.792 238.628C548.691 238.774 549.585 238.908 550.486 239.03C552.283 239.278 554.091 239.475 555.919 239.619C558.242 239.805 560.371 237.762 560.042 234.974C559.846 233.329 558.612 232.023 557.066 231.657Z" fill="#FFC3AD"/>
<path d="M546.745 271.011C544.841 271.011 540.314 270.901 533.076 267.223C525.142 263.189 522.107 254.257 521.978 253.896C521.685 253.07 522.137 252.17 522.991 251.885C523.846 251.601 524.777 252.037 525.072 252.863C525.122 252.994 527.714 260.929 534.456 264.356C542.911 268.653 547.222 267.83 547.261 267.823C548.153 267.671 548.985 268.253 549.142 269.113C549.295 269.975 548.684 270.795 547.796 270.944C547.677 270.964 547.329 271.011 546.745 271.011Z" fill="white"/>
<path d="M157.195 192.175C162.388 199.011 201.802 206.106 211.23 170.282C219.015 140.701 190.941 165.894 180.274 170.677C169.606 175.462 146.135 177.619 157.195 192.175Z" fill="#EAE7FB"/>
<path d="M570.897 27.2211C567.224 26.3306 562.342 33.8605 565.768 35.5744C590.836 48.1225 622.459 83.1152 635.635 120.644C647.063 153.202 657.872 195.43 657.416 237.303C657.374 241.169 663.728 240.011 664.343 236.207C669.399 204.96 675.627 151.611 664.023 116.52C647.884 67.7163 620.138 39.1924 570.897 27.2211Z" fill="#EAE7FB"/>
<path d="M574.292 28.0729C570.619 27.1824 565.736 34.7124 569.163 36.4262C594.23 48.9743 625.853 83.967 639.03 121.496C650.458 154.054 661.266 196.282 660.811 238.155C660.768 242.02 667.123 240.863 667.737 237.058C672.793 205.812 679.022 152.462 667.417 117.371C651.279 68.5681 623.532 40.0442 574.292 28.0729Z" fill="#EAE7FB"/>
<path d="M392.935 59.3381C391.717 63.659 386.502 65.6865 381.293 63.8691C376.084 62.0488 372.85 57.0726 374.07 52.7518C375.288 48.4281 378.725 46.2831 385.711 48.2181C394.449 50.6375 394.154 55.0145 392.935 59.3381Z" fill="#F06C21"/>
<path d="M379.41 175.395C377.222 177.759 374.875 180.081 372.302 182.144C367.292 186.164 361.425 189.196 354.199 189.599C348.982 189.888 343.813 187.863 339.115 184.779C333.672 181.207 328.863 176.215 325.345 171.746C320.267 165.296 315.642 152.515 312.874 137.495C312.874 137.492 312.874 137.489 312.872 137.484C311.792 131.608 310.994 125.391 310.561 119.074C307.924 80.4662 324.101 74.1431 359.693 73.163C386.47 72.4293 393.396 81.4155 395.743 98.3965C396.518 103.986 396.797 110.446 397.122 117.708C398.441 147.03 385.717 168.592 379.41 175.395Z" fill="#FFC3AD"/>
<path d="M408.291 96.6323C407.216 108.265 401.694 125.882 395.511 139.692L395.433 139.698C393.608 116.702 387.194 114.543 383.174 109.816C377.899 103.622 376.24 90.2672 376.24 90.2672C376.24 90.2672 369.796 100.281 359.91 103.708C350.538 106.957 336.24 103.944 323.444 109.819C314.936 113.726 313.406 139.692 313.406 139.692L311.528 91.7346L378.571 65.8345L408.291 96.6323Z" fill="#F0A68C"/>
<path d="M389.144 146.405C387.57 151.261 388.623 156.13 391.493 157.28C394.363 158.43 397.966 155.425 399.537 150.569C401.111 145.712 400.061 140.844 397.19 139.693C394.32 138.542 390.718 141.547 389.144 146.405Z" fill="#FFC3AD"/>
<path d="M309.74 150.569C308.166 145.712 309.216 140.844 312.087 139.693C314.957 138.542 318.56 141.547 320.133 146.405C321.707 151.261 320.654 156.13 317.784 157.28C314.914 158.43 311.311 155.425 309.74 150.569Z" fill="#FFC3AD"/>
<path d="M327.347 134.91C327.347 138.259 329.029 140.975 331.103 140.975C333.178 140.975 334.86 138.259 334.86 134.91C334.86 131.561 333.178 128.848 331.103 128.848C329.029 128.848 327.347 131.561 327.347 134.91Z" fill="#1E1F35"/>
<path d="M374.241 134.91C374.241 138.259 375.923 140.975 377.998 140.975C380.071 140.975 381.754 138.259 381.754 134.91C381.754 131.561 380.071 128.848 377.998 128.848C375.923 128.848 374.241 131.561 374.241 134.91Z" fill="#1E1F35"/>
<path d="M408.319 89.9033C407.151 80.6147 402.453 55.1179 380.965 55.3895C380.424 55.3979 379.891 55.608 379.337 55.7564C379.337 55.7564 379.337 55.7564 379.33 55.7564C379.291 55.72 378.961 55.4259 378.348 54.9723C375.311 52.7293 365.443 46.591 350.989 48.9741C333.193 51.906 309.622 60.9593 308.501 100.53C307.731 127.749 313.406 139.693 313.406 139.693C313.406 139.693 310.342 115.56 321.329 108.355C329.361 103.084 340.661 103.466 354.718 101.023C365.733 99.1107 373.344 89.5953 376.24 84.6667V84.6612C376.688 83.9051 377.017 83.289 377.242 82.8634C377.3 83.289 377.393 83.8771 377.517 84.6023C378.506 90.4662 381.854 102.885 388.61 109.819C397.177 118.615 396.888 129.004 395.511 139.693C401.694 125.882 407.216 108.265 408.292 96.6325C408.535 94.0646 408.555 91.7851 408.319 89.9033Z" fill="#373365"/>
<path d="M347.554 161.204C347.554 161.204 347.573 161.221 347.607 161.255C347.635 161.268 347.673 161.275 347.713 161.293C347.771 161.331 347.839 161.376 347.92 161.43C348.005 161.484 348.106 161.55 348.207 161.623C348.317 161.694 348.438 161.772 348.564 161.858C348.7 161.937 348.839 162.027 348.982 162.119C349.141 162.201 349.295 162.297 349.456 162.391C349.632 162.47 349.796 162.57 349.977 162.658C350.166 162.73 350.339 162.831 350.53 162.908C350.732 162.969 350.913 163.069 351.118 163.132C351.327 163.179 351.518 163.272 351.729 163.32C351.835 163.343 351.94 163.363 352.044 163.392C352.15 163.42 352.248 163.461 352.361 163.47C352.47 163.488 352.581 163.505 352.691 163.522C352.8 163.538 352.9 163.582 353.018 163.582C353.247 163.597 353.472 163.627 353.701 163.65C353.94 163.647 354.176 163.66 354.413 163.679C354.657 163.67 354.906 163.652 355.155 163.654H355.249H355.294H355.317H355.324C355.475 163.641 355.125 163.673 355.164 163.669L355.181 163.668L355.443 163.64L355.969 163.588L356.1 163.577C356.133 163.572 356.143 163.566 356.166 163.561C356.203 163.552 356.241 163.542 356.279 163.536C356.355 163.523 356.432 163.515 356.51 163.511C356.715 163.449 356.934 163.426 357.135 163.368C357.337 163.309 357.543 163.258 357.737 163.182C357.835 163.147 357.938 163.122 358.034 163.082C358.129 163.04 358.222 162.992 358.323 162.958C358.525 162.895 358.701 162.774 358.897 162.695C359.268 162.493 359.64 162.29 359.98 162.053C360.159 161.944 360.322 161.824 360.481 161.705C360.65 161.598 360.793 161.468 360.942 161.359C361.236 161.132 361.494 160.915 361.714 160.732C361.929 160.544 362.117 160.4 362.235 160.291C362.356 160.185 362.43 160.13 362.43 160.13L362.651 159.961C363.613 159.237 364.919 159.516 365.57 160.584C365.857 161.055 365.967 161.602 365.922 162.125C365.922 162.125 365.911 162.244 365.879 162.462C365.844 162.679 365.791 163.003 365.69 163.405C365.59 163.808 365.443 164.292 365.229 164.838C365.013 165.38 364.736 165.987 364.353 166.614C364.169 166.933 363.943 167.243 363.711 167.571C363.475 167.893 363.197 168.202 362.916 168.529C362.319 169.139 361.636 169.762 360.836 170.256C360.045 170.776 359.159 171.167 358.238 171.472C357.976 171.541 357.711 171.606 357.445 171.667L357.042 171.751L356.847 171.79L356.717 171.808L356.193 171.874L355.931 171.905L355.914 171.907L355.737 171.922H355.727L355.685 171.923L355.599 171.924L355.428 171.925C354.97 171.93 354.513 171.929 354.058 171.909C353.597 171.852 353.137 171.792 352.683 171.717C352.228 171.627 351.779 171.478 351.341 171.355C350.901 171.222 350.477 171.017 350.067 170.838C349.246 170.446 348.502 169.954 347.847 169.423C347.524 169.156 347.225 168.87 346.945 168.593C346.671 168.304 346.421 168.015 346.188 167.732C345.966 167.436 345.76 167.153 345.576 166.875C345.402 166.587 345.236 166.318 345.095 166.056C344.959 165.786 344.833 165.539 344.729 165.302C344.629 165.059 344.538 164.84 344.465 164.634C344.317 164.224 344.234 163.88 344.168 163.636C344.126 163.496 344.103 163.381 344.085 163.312C344.08 163.261 344.078 163.235 344.078 163.235C343.954 161.944 344.795 160.788 345.956 160.65C346.548 160.58 347.112 160.791 347.534 161.185L347.554 161.204Z" fill="white"/>
<path d="M336.687 120.937C336.687 120.937 336.65 120.92 336.579 120.886C336.502 120.85 336.373 120.796 336.207 120.729C335.875 120.598 335.384 120.418 334.779 120.242C333.573 119.883 331.911 119.553 330.275 119.568C329.87 119.573 329.462 119.587 329.066 119.637C328.669 119.674 328.286 119.743 327.918 119.824C327.551 119.906 327.203 120.006 326.879 120.122C326.715 120.172 326.561 120.242 326.412 120.301C326.259 120.356 326.118 120.424 325.985 120.491C325.71 120.614 325.476 120.763 325.259 120.88C325.053 121.018 324.874 121.135 324.726 121.233C324.441 121.451 324.28 121.578 324.28 121.578L324.192 121.645C323.596 122.104 322.775 121.936 322.362 121.269C321.974 120.645 322.09 119.797 322.601 119.315C322.601 119.315 322.8 119.131 323.147 118.808C323.328 118.654 323.553 118.475 323.812 118.27C324.078 118.086 324.376 117.859 324.721 117.66C324.889 117.554 325.069 117.447 325.259 117.352C325.449 117.254 325.645 117.142 325.851 117.056C326.259 116.864 326.7 116.686 327.161 116.535C327.622 116.38 328.104 116.246 328.595 116.146C329.089 116.036 329.59 115.966 330.091 115.907C332.103 115.685 334.092 115.885 335.555 116.162C336.29 116.299 336.897 116.456 337.33 116.576C337.547 116.641 337.718 116.694 337.841 116.733C337.972 116.778 338.04 116.803 338.04 116.803C339.085 117.162 339.671 118.393 339.347 119.555C339.024 120.718 337.917 121.368 336.872 121.01C336.811 120.989 336.753 120.967 336.696 120.939L336.687 120.937Z" fill="#373365"/>
<path d="M370.879 116.803C370.879 116.803 370.95 116.778 371.081 116.733C371.204 116.694 371.376 116.641 371.592 116.576C372.022 116.456 372.63 116.299 373.364 116.162C374.83 115.885 376.816 115.685 378.828 115.907C379.33 115.966 379.832 116.036 380.323 116.146C380.817 116.246 381.298 116.38 381.759 116.534C382.22 116.686 382.66 116.864 383.071 117.056C383.277 117.142 383.471 117.254 383.66 117.352C383.851 117.447 384.03 117.553 384.201 117.66C384.546 117.859 384.843 118.086 385.11 118.27C385.369 118.475 385.59 118.654 385.772 118.808C386.12 119.131 386.319 119.315 386.319 119.315C386.878 119.836 386.951 120.757 386.485 121.379C386.047 121.961 385.284 122.067 384.732 121.648L384.639 121.578C384.639 121.578 384.478 121.451 384.194 121.233C384.045 121.135 383.867 121.018 383.66 120.88C383.446 120.763 383.212 120.614 382.935 120.491C382.801 120.424 382.66 120.356 382.509 120.301C382.358 120.242 382.207 120.172 382.041 120.122C381.718 120.006 381.369 119.906 381.001 119.824C380.633 119.743 380.251 119.674 379.852 119.637C379.46 119.587 379.052 119.573 378.644 119.568C377.007 119.553 375.348 119.883 374.143 120.242C373.538 120.418 373.045 120.598 372.712 120.729C372.549 120.796 372.42 120.85 372.34 120.886C372.27 120.92 372.231 120.937 372.231 120.937L372.227 120.939C371.219 121.407 370.058 120.877 369.638 119.755C369.215 118.632 369.694 117.344 370.7 116.874C370.758 116.848 370.821 116.823 370.879 116.803Z" fill="#373365"/>
<path d="M380.965 55.3897L377.517 84.6025C377.393 83.8773 377.299 83.2892 377.242 82.8636C377.017 83.2892 376.688 83.9053 376.24 84.6614L378.347 54.9725C378.961 55.4261 379.291 55.7202 379.329 55.7566C379.337 55.7566 379.337 55.7566 379.337 55.7566C379.891 55.6082 380.432 55.485 380.965 55.3897Z" fill="#2B2850"/>
<path d="M351.959 153.098C350.836 153.098 349.639 152.873 348.755 152.128C348.164 151.631 347.462 150.672 347.472 148.934C347.484 147.083 348.378 145.546 349.242 144.062C349.377 143.829 349.511 143.6 349.639 143.367C350.095 142.56 350.695 140.292 350.888 139.486C350.994 139.043 351.402 138.78 351.799 138.897C352.198 139.015 352.434 139.472 352.329 139.912C352.253 140.233 351.558 143.084 350.903 144.246C350.77 144.484 350.631 144.722 350.493 144.96C349.713 146.307 348.972 147.578 348.962 148.946C348.957 149.801 349.184 150.41 349.655 150.807C350.954 151.899 353.802 151.306 354.791 150.986C355.186 150.858 355.599 151.11 355.715 151.549C355.831 151.989 355.604 152.449 355.209 152.576C354.954 152.659 353.524 153.098 351.959 153.098Z" fill="#F0A68C"/>
<path d="M555.553 48.3371C555.553 31.5824 543.341 18 528.276 18C513.212 18 501 31.5824 501 48.3371C501 65.0918 513.212 78.6741 528.276 78.6741C543.341 78.6741 555.553 65.0918 555.553 48.3371Z" fill="#4E4BA8"/>
<path d="M524.617 61.5236C525.005 61.5236 525.308 61.6315 525.526 61.8472C525.769 62.0899 525.889 62.4135 525.889 62.818C525.889 63.2495 525.769 63.5731 525.526 63.7888C525.308 64.0045 525.005 64.1124 524.617 64.1124H522.107C520.919 64.1124 520.01 63.7483 519.379 63.0202C518.749 62.3191 518.434 61.3079 518.434 59.9865V50.8045C518.434 49.6989 518.24 48.8899 517.852 48.3775C517.488 47.8651 516.834 47.582 515.888 47.5281C515.476 47.5011 515.161 47.3663 514.942 47.1236C514.724 46.8809 514.615 46.5708 514.615 46.1933C514.615 45.8158 514.724 45.5056 514.942 45.2629C515.161 45.0202 515.476 44.8854 515.888 44.8584C516.834 44.8045 517.488 44.5348 517.852 44.0494C518.24 43.537 518.434 42.7281 518.434 41.6225V32.4405C518.434 31.1191 518.749 30.1078 519.379 29.4067C520.01 28.6787 520.919 28.3146 522.107 28.3146H524.617C525.005 28.3146 525.308 28.4225 525.526 28.6382C525.769 28.8539 525.889 29.1775 525.889 29.609C525.889 30.0135 525.769 30.3371 525.526 30.5798C525.308 30.7955 525.005 30.9034 524.617 30.9034H522.907C521.864 30.9034 521.343 31.5101 521.343 32.7236V41.9461C521.343 43.1325 521.077 44.0899 520.543 44.818C520.034 45.5461 519.416 46.0045 518.688 46.1933C519.416 46.3821 520.034 46.8404 520.543 47.5685C521.077 48.2966 521.343 49.254 521.343 50.4404V59.7034C521.343 60.9169 521.864 61.5236 522.907 61.5236H524.617Z" fill="white"/>
<path d="M540.969 44.8584C541.381 44.8854 541.696 45.0202 541.914 45.2629C542.133 45.5056 542.242 45.8158 542.242 46.1933C542.242 46.5708 542.133 46.8809 541.914 47.1236C541.696 47.3663 541.381 47.5011 540.969 47.5281C540.023 47.582 539.369 47.8651 539.005 48.3775C538.641 48.8629 538.459 49.6719 538.459 50.8045L538.423 59.9865C538.423 61.3079 538.107 62.3191 537.477 63.0202C536.847 63.7483 535.938 64.1124 534.75 64.1124H532.24C531.852 64.1124 531.537 64.0045 531.295 63.7888C531.076 63.5731 530.967 63.2495 530.967 62.818C530.967 62.4135 531.076 62.0899 531.295 61.8472C531.537 61.6315 531.852 61.5236 532.24 61.5236H533.913C534.98 61.5236 535.513 60.9169 535.513 59.7034V50.4404C535.513 49.254 535.768 48.2966 536.277 47.5685C536.811 46.8404 537.441 46.3821 538.168 46.1933C537.441 46.0045 536.811 45.5461 536.277 44.818C535.768 44.0899 535.513 43.1325 535.513 41.9461V32.7236C535.513 31.5101 534.98 30.9034 533.913 30.9034H532.24C531.852 30.9034 531.537 30.7955 531.295 30.5798C531.076 30.3371 530.967 30.0135 530.967 29.609C530.967 29.1775 531.076 28.8539 531.295 28.6382C531.537 28.4225 531.852 28.3146 532.24 28.3146H534.75C535.938 28.3146 536.847 28.6787 537.477 29.4067C538.107 30.1078 538.423 31.1191 538.423 32.4405V41.6225C538.423 42.7281 538.605 43.537 538.968 44.0494C539.357 44.5348 540.023 44.8045 540.969 44.8584Z" fill="white"/>
<path d="M184.57 352.921H50.0068V328.652" stroke="#9F9DE7"/>
<path d="M178.206 311.461H122.744V183.034" stroke="#9F9DE7"/>
<path d="M244.579 275.056V63.7079" stroke="#9F9DE7"/>
<path d="M434.604 250.787H496.431V189.101" stroke="#9F9DE7"/>
<path d="M146.624 35.4337C146.672 35.5631 146.696 35.671 146.696 35.7573C146.696 35.9623 146.619 36.1348 146.463 36.2751C146.318 36.4153 146.153 36.4854 145.969 36.4854C145.842 36.4854 145.722 36.4477 145.605 36.3721C145.499 36.2859 145.416 36.1672 145.358 36.0162L144.398 33.5892H139.073L138.113 36.0162C138.055 36.1672 137.968 36.2859 137.851 36.3721C137.735 36.4477 137.614 36.4854 137.488 36.4854C137.294 36.4854 137.119 36.4153 136.964 36.2751C136.819 36.1348 136.746 35.9623 136.746 35.7573C136.746 35.671 136.77 35.5631 136.819 35.4337L140.921 25.4508C140.989 25.2782 141.095 25.1434 141.241 25.0463C141.396 24.9492 141.556 24.9007 141.721 24.9007C141.886 24.9007 142.041 24.9492 142.187 25.0463C142.342 25.1434 142.453 25.2782 142.521 25.4508L146.624 35.4337ZM139.612 32.2625H143.874L141.736 26.907L139.612 32.2625ZM157.714 35.369C157.801 35.5092 157.845 35.6602 157.845 35.822C157.845 36.0162 157.772 36.1833 157.627 36.3236C157.491 36.453 157.331 36.5178 157.147 36.5178C156.875 36.5178 156.657 36.383 156.492 36.1133L154.543 32.7479C154.32 32.3595 154.082 32.0899 153.83 31.9389C153.578 31.7771 153.248 31.6962 152.841 31.6962H151.197V35.644C151.197 35.9029 151.129 36.1079 150.993 36.2589C150.867 36.4099 150.688 36.4854 150.455 36.4854C150.232 36.4854 150.052 36.4099 149.917 36.2589C149.781 36.1079 149.713 35.9029 149.713 35.644V25.8067C149.713 25.5587 149.776 25.3645 149.902 25.2243C150.038 25.0733 150.222 24.9978 150.455 24.9978H154.077C155.212 24.9978 156.075 25.2782 156.667 25.8391C157.268 26.4 157.569 27.2197 157.569 28.2984C157.569 29.1937 157.34 29.9218 156.885 30.4827C156.429 31.0328 155.779 31.3834 154.936 31.5344C155.187 31.6099 155.416 31.7447 155.619 31.9389C155.823 32.133 156.022 32.4027 156.216 32.7479L157.714 35.369ZM153.903 30.3533C154.659 30.3533 155.216 30.1915 155.576 29.8679C155.944 29.5335 156.128 29.0212 156.128 28.3308C156.128 27.6404 155.949 27.1388 155.59 26.8261C155.231 26.5025 154.669 26.3407 153.903 26.3407H151.182V30.3533H153.903ZM164.128 36.4854C163.905 36.4854 163.72 36.4099 163.575 36.2589C163.439 36.0971 163.371 35.8921 163.371 35.644V26.3892H160.462C159.996 26.3892 159.763 26.1573 159.763 25.6935C159.763 25.467 159.822 25.2944 159.938 25.1757C160.064 25.0571 160.239 24.9978 160.462 24.9978H167.794C168.017 24.9978 168.186 25.0571 168.303 25.1757C168.429 25.2944 168.492 25.467 168.492 25.6935C168.492 26.1573 168.259 26.3892 167.794 26.3892H164.884V35.644C164.884 35.8921 164.817 36.0971 164.68 36.2589C164.545 36.4099 164.36 36.4854 164.128 36.4854ZM171.932 36.4854C171.71 36.4854 171.53 36.4099 171.394 36.2589C171.259 36.1079 171.19 35.9029 171.19 35.644V25.7582C171.19 25.5101 171.259 25.3105 171.394 25.1596C171.53 24.9978 171.71 24.9169 171.932 24.9169C172.165 24.9169 172.35 24.9924 172.485 25.1434C172.621 25.2944 172.689 25.4993 172.689 25.7582V35.644C172.689 35.9029 172.621 36.1079 172.485 36.2589C172.359 36.4099 172.175 36.4854 171.932 36.4854ZM177.266 36.4854C177.042 36.4854 176.863 36.4099 176.728 36.2589C176.591 36.0971 176.524 35.8921 176.524 35.644V25.8067C176.524 25.5587 176.587 25.3645 176.713 25.2243C176.849 25.0733 177.033 24.9978 177.266 24.9978H182.474C182.939 24.9978 183.172 25.2243 183.172 25.6773C183.172 26.1303 182.939 26.3569 182.474 26.3569H178.008V29.9326H182.183C182.648 29.9326 182.881 30.1591 182.881 30.6121C182.881 31.0652 182.648 31.2917 182.183 31.2917H178.008V35.644C178.008 35.9029 177.94 36.1079 177.804 36.2589C177.678 36.4099 177.499 36.4854 177.266 36.4854ZM186.874 36.4854C186.652 36.4854 186.473 36.4099 186.336 36.2589C186.201 36.1079 186.132 35.9029 186.132 35.644V25.7582C186.132 25.5101 186.201 25.3105 186.336 25.1596C186.473 24.9978 186.652 24.9169 186.874 24.9169C187.107 24.9169 187.292 24.9924 187.427 25.1434C187.564 25.2944 187.631 25.4993 187.631 25.7582V35.644C187.631 35.9029 187.564 36.1079 187.427 36.2589C187.302 36.4099 187.117 36.4854 186.874 36.4854ZM195.932 36.5339C194.953 36.5339 194.099 36.3021 193.372 35.8382C192.644 35.3636 192.087 34.6894 191.699 33.8157C191.31 32.9312 191.117 31.8903 191.117 30.693C191.117 29.5066 191.31 28.4764 191.699 27.6027C192.087 26.7182 192.644 26.0441 193.372 25.5802C194.099 25.1057 194.953 24.8683 195.932 24.8683C196.572 24.8683 197.179 24.9816 197.75 25.2081C198.322 25.4238 198.822 25.742 199.249 26.1627C199.433 26.3245 199.525 26.5402 199.525 26.8099C199.525 27.004 199.477 27.1712 199.38 27.3115C199.282 27.4409 199.166 27.5056 199.031 27.5056C198.866 27.5056 198.706 27.4355 198.551 27.2953C198.085 26.907 197.659 26.6373 197.27 26.4863C196.892 26.3245 196.46 26.2436 195.976 26.2436C194.909 26.2436 194.089 26.6266 193.517 27.3924C192.945 28.1582 192.659 29.2584 192.659 30.693C192.659 32.1384 192.945 33.2441 193.517 34.0099C194.089 34.7757 194.909 35.1587 195.976 35.1587C196.441 35.1587 196.863 35.0778 197.241 34.916C197.63 34.7542 198.066 34.4845 198.551 34.107C198.744 33.9667 198.904 33.8966 199.031 33.8966C199.166 33.8966 199.282 33.9667 199.38 34.107C199.477 34.2364 199.525 34.3982 199.525 34.5924C199.525 34.8621 199.433 35.0778 199.249 35.2395C198.822 35.6602 198.322 35.9838 197.75 36.2103C197.179 36.426 196.572 36.5339 195.932 36.5339ZM203.508 36.4854C203.285 36.4854 203.105 36.4099 202.969 36.2589C202.834 36.1079 202.766 35.9029 202.766 35.644V25.7582C202.766 25.5101 202.834 25.3105 202.969 25.1596C203.105 24.9978 203.285 24.9169 203.508 24.9169C203.74 24.9169 203.925 24.9924 204.06 25.1434C204.196 25.2944 204.264 25.4993 204.264 25.7582V35.644C204.264 35.9029 204.196 36.1079 204.06 36.2589C203.934 36.4099 203.75 36.4854 203.508 36.4854ZM217.148 35.4337C217.196 35.5631 217.22 35.671 217.22 35.7573C217.22 35.9623 217.142 36.1348 216.988 36.2751C216.842 36.4153 216.677 36.4854 216.493 36.4854C216.367 36.4854 216.246 36.4477 216.129 36.3721C216.022 36.2859 215.94 36.1672 215.882 36.0162L214.922 33.5892H209.597L208.637 36.0162C208.579 36.1672 208.492 36.2859 208.376 36.3721C208.259 36.4477 208.137 36.4854 208.012 36.4854C207.817 36.4854 207.643 36.4153 207.488 36.2751C207.343 36.1348 207.27 35.9623 207.27 35.7573C207.27 35.671 207.294 35.5631 207.343 35.4337L211.445 25.4508C211.512 25.2782 211.62 25.1434 211.765 25.0463C211.92 24.9492 212.08 24.9007 212.245 24.9007C212.41 24.9007 212.565 24.9492 212.711 25.0463C212.865 25.1434 212.977 25.2782 213.045 25.4508L217.148 35.4337ZM210.136 32.2625H214.398L212.26 26.907L210.136 32.2625ZM220.964 36.4045C220.741 36.4045 220.562 36.3344 220.426 36.1942C220.3 36.0539 220.237 35.8652 220.237 35.6279V25.7582C220.237 25.5101 220.304 25.3105 220.441 25.1596C220.576 24.9978 220.755 24.9169 220.979 24.9169C221.212 24.9169 221.395 24.9924 221.532 25.1434C221.667 25.2944 221.736 25.4993 221.736 25.7582V35.013H226.158C226.381 35.013 226.551 35.0724 226.667 35.191C226.793 35.3096 226.856 35.4822 226.856 35.7088C226.856 35.9353 226.793 36.1079 226.667 36.2265C226.551 36.3451 226.381 36.4045 226.158 36.4045H220.964ZM235.679 36.4854C235.456 36.4854 235.277 36.4099 235.141 36.2589C235.005 36.1079 234.937 35.9029 234.937 35.644V25.7582C234.937 25.5101 235.005 25.3105 235.141 25.1596C235.277 24.9978 235.456 24.9169 235.679 24.9169C235.912 24.9169 236.097 24.9924 236.232 25.1434C236.368 25.2944 236.436 25.4993 236.436 25.7582V35.644C236.436 35.9029 236.368 36.1079 236.232 36.2589C236.107 36.4099 235.922 36.4854 235.679 36.4854ZM247.981 24.9169C248.195 24.9169 248.364 24.9978 248.49 25.1596C248.626 25.3105 248.694 25.5101 248.694 25.7582V35.644C248.694 35.8921 248.626 36.0971 248.49 36.2589C248.355 36.4099 248.18 36.4854 247.966 36.4854C247.714 36.4854 247.52 36.3775 247.384 36.1618L241.682 27.7969V35.644C241.682 35.8921 241.614 36.0971 241.478 36.2589C241.352 36.4099 241.183 36.4854 240.969 36.4854C240.755 36.4854 240.586 36.4099 240.46 36.2589C240.333 36.1079 240.271 35.9029 240.271 35.644V25.7582C240.271 25.5101 240.339 25.3105 240.474 25.1596C240.61 24.9978 240.784 24.9169 240.998 24.9169C241.25 24.9169 241.445 25.0248 241.58 25.2405L247.283 33.6216V25.7582C247.283 25.5101 247.345 25.3105 247.472 25.1596C247.598 24.9978 247.767 24.9169 247.981 24.9169ZM255.737 36.4854C255.514 36.4854 255.33 36.4099 255.185 36.2589C255.048 36.0971 254.981 35.8921 254.981 35.644V26.3892H252.071C251.606 26.3892 251.373 26.1573 251.373 25.6935C251.373 25.467 251.431 25.2944 251.548 25.1757C251.673 25.0571 251.848 24.9978 252.071 24.9978H259.403C259.626 24.9978 259.796 25.0571 259.912 25.1757C260.038 25.2944 260.102 25.467 260.102 25.6935C260.102 26.1573 259.869 26.3892 259.403 26.3892H256.494V35.644C256.494 35.8921 256.426 36.0971 256.29 36.2589C256.154 36.4099 255.97 36.4854 255.737 36.4854ZM263.541 36.4045C263.308 36.4045 263.124 36.3344 262.988 36.1942C262.862 36.0432 262.799 35.8436 262.799 35.5955V25.8067C262.799 25.5587 262.862 25.3645 262.988 25.2243C263.124 25.0733 263.308 24.9978 263.541 24.9978H268.895C269.117 24.9978 269.287 25.0571 269.404 25.1757C269.53 25.2944 269.593 25.4616 269.593 25.6773C269.593 25.893 269.53 26.0603 269.404 26.1789C269.287 26.2868 269.117 26.3407 268.895 26.3407H264.269V29.9326H268.604C268.826 29.9326 268.996 29.9919 269.113 30.1106C269.239 30.2292 269.302 30.3964 269.302 30.6121C269.302 30.8278 269.239 30.9951 269.113 31.1137C268.996 31.2323 268.826 31.2917 268.604 31.2917H264.269V35.0616H268.895C269.36 35.0616 269.593 35.2827 269.593 35.7249C269.593 35.9406 269.53 36.1079 269.404 36.2265C269.287 36.3451 269.117 36.4045 268.895 36.4045H263.541ZM273.491 36.4045C273.268 36.4045 273.089 36.3344 272.953 36.1942C272.827 36.0539 272.764 35.8652 272.764 35.6279V25.7582C272.764 25.5101 272.832 25.3105 272.968 25.1596C273.103 24.9978 273.282 24.9169 273.506 24.9169C273.739 24.9169 273.923 24.9924 274.059 25.1434C274.194 25.2944 274.263 25.4993 274.263 25.7582V35.013H278.685C278.908 35.013 279.078 35.0724 279.194 35.191C279.32 35.3096 279.383 35.4822 279.383 35.7088C279.383 35.9353 279.32 36.1079 279.194 36.2265C279.078 36.3451 278.908 36.4045 278.685 36.4045H273.491ZM282.902 36.4045C282.678 36.4045 282.499 36.3344 282.364 36.1942C282.237 36.0539 282.175 35.8652 282.175 35.6279V25.7582C282.175 25.5101 282.242 25.3105 282.378 25.1596C282.514 24.9978 282.693 24.9169 282.917 24.9169C283.149 24.9169 283.333 24.9924 283.469 25.1434C283.605 25.2944 283.673 25.4993 283.673 25.7582V35.013H288.095C288.318 35.013 288.488 35.0724 288.605 35.191C288.73 35.3096 288.794 35.4822 288.794 35.7088C288.794 35.9353 288.73 36.1079 288.605 36.2265C288.488 36.3451 288.318 36.4045 288.095 36.4045H282.902ZM292.326 36.4854C292.103 36.4854 291.924 36.4099 291.788 36.2589C291.652 36.1079 291.584 35.9029 291.584 35.644V25.7582C291.584 25.5101 291.652 25.3105 291.788 25.1596C291.924 24.9978 292.103 24.9169 292.326 24.9169C292.559 24.9169 292.743 24.9924 292.879 25.1434C293.015 25.2944 293.082 25.4993 293.082 25.7582V35.644C293.082 35.9029 293.015 36.1079 292.879 36.2589C292.753 36.4099 292.569 36.4854 292.326 36.4854ZM304.628 30.3533C304.812 30.3533 304.958 30.4126 305.064 30.5312C305.18 30.6499 305.239 30.8117 305.239 31.0166V34.8027C305.239 35.1695 305.19 35.4337 305.093 35.5955C305.006 35.7573 304.827 35.8867 304.555 35.9838C304.167 36.1564 303.707 36.2912 303.173 36.3883C302.639 36.4854 302.111 36.5339 301.587 36.5339C300.55 36.5339 299.652 36.3021 298.896 35.8382C298.139 35.3743 297.562 34.7056 297.165 33.8319C296.767 32.9582 296.568 31.9119 296.568 30.693C296.568 29.4957 296.767 28.4602 297.165 27.5865C297.562 26.7128 298.13 26.0441 298.867 25.5802C299.613 25.1057 300.486 24.8683 301.485 24.8683C302.165 24.8683 302.79 24.9816 303.362 25.2081C303.944 25.4238 304.439 25.742 304.846 26.1627C305.04 26.3353 305.137 26.551 305.137 26.8099C305.137 27.004 305.089 27.1712 304.991 27.3115C304.894 27.4409 304.778 27.5056 304.642 27.5056C304.555 27.5056 304.478 27.4894 304.409 27.4571C304.341 27.4247 304.254 27.3708 304.148 27.2953C303.672 26.907 303.241 26.6373 302.853 26.4863C302.465 26.3245 302.019 26.2436 301.514 26.2436C300.409 26.2436 299.565 26.6266 298.983 27.3924C298.401 28.1475 298.11 29.2477 298.11 30.693C298.11 32.1708 298.406 33.2926 298.998 34.0584C299.599 34.8135 300.477 35.191 301.631 35.191C302.406 35.191 303.154 35.0616 303.871 34.8027V31.6153H301.965C301.772 31.6153 301.616 31.5614 301.5 31.4535C301.394 31.3349 301.34 31.1784 301.34 30.9843C301.34 30.7901 301.394 30.6391 301.5 30.5312C301.616 30.4126 301.772 30.3533 301.965 30.3533H304.628ZM309.698 36.4045C309.466 36.4045 309.281 36.3344 309.146 36.1942C309.019 36.0432 308.956 35.8436 308.956 35.5955V25.8067C308.956 25.5587 309.019 25.3645 309.146 25.2243C309.281 25.0733 309.466 24.9978 309.698 24.9978H315.052C315.275 24.9978 315.445 25.0571 315.561 25.1757C315.686 25.2944 315.75 25.4616 315.75 25.6773C315.75 25.893 315.686 26.0603 315.561 26.1789C315.445 26.2868 315.275 26.3407 315.052 26.3407H310.426V29.9326H314.761C314.984 29.9326 315.154 29.9919 315.27 30.1106C315.395 30.2292 315.459 30.3964 315.459 30.6121C315.459 30.8278 315.395 30.9951 315.27 31.1137C315.154 31.2323 314.984 31.2917 314.761 31.2917H310.426V35.0616H315.052C315.517 35.0616 315.75 35.2827 315.75 35.7249C315.75 35.9406 315.686 36.1079 315.561 36.2265C315.445 36.3451 315.275 36.4045 315.052 36.4045H309.698ZM326.631 24.9169C326.844 24.9169 327.013 24.9978 327.14 25.1596C327.275 25.3105 327.343 25.5101 327.343 25.7582V35.644C327.343 35.8921 327.275 36.0971 327.14 36.2589C327.004 36.4099 326.83 36.4854 326.616 36.4854C326.364 36.4854 326.17 36.3775 326.034 36.1618L320.332 27.7969V35.644C320.332 35.8921 320.263 36.0971 320.128 36.2589C320.002 36.4099 319.832 36.4854 319.619 36.4854C319.405 36.4854 319.236 36.4099 319.11 36.2589C318.983 36.1079 318.921 35.9029 318.921 35.644V25.7582C318.921 25.5101 318.989 25.3105 319.124 25.1596C319.26 24.9978 319.434 24.9169 319.648 24.9169C319.9 24.9169 320.094 25.0248 320.23 25.2405L325.932 33.6216V25.7582C325.932 25.5101 325.995 25.3105 326.121 25.1596C326.248 24.9978 326.417 24.9169 326.631 24.9169ZM335.653 36.5339C334.673 36.5339 333.82 36.3021 333.092 35.8382C332.365 35.3636 331.807 34.6894 331.419 33.8157C331.031 32.9312 330.838 31.8903 330.838 30.693C330.838 29.5066 331.031 28.4764 331.419 27.6027C331.807 26.7182 332.365 26.0441 333.092 25.5802C333.82 25.1057 334.673 24.8683 335.653 24.8683C336.293 24.8683 336.898 24.9816 337.471 25.2081C338.043 25.4238 338.542 25.742 338.97 26.1627C339.153 26.3245 339.246 26.5402 339.246 26.8099C339.246 27.004 339.197 27.1712 339.1 27.3115C339.003 27.4409 338.887 27.5056 338.751 27.5056C338.586 27.5056 338.426 27.4355 338.271 27.2953C337.806 26.907 337.378 26.6373 336.991 26.4863C336.613 26.3245 336.181 26.2436 335.696 26.2436C334.629 26.2436 333.81 26.6266 333.238 27.3924C332.665 28.1582 332.38 29.2584 332.38 30.693C332.38 32.1384 332.665 33.2441 333.238 34.0099C333.81 34.7757 334.629 35.1587 335.696 35.1587C336.162 35.1587 336.584 35.0778 336.962 34.916C337.349 34.7542 337.786 34.4845 338.271 34.107C338.465 33.9667 338.625 33.8966 338.751 33.8966C338.887 33.8966 339.003 33.9667 339.1 34.107C339.197 34.2364 339.246 34.3982 339.246 34.5924C339.246 34.8621 339.153 35.0778 338.97 35.2395C338.542 35.6602 338.043 35.9838 337.471 36.2103C336.898 36.426 336.293 36.5339 335.653 36.5339ZM343.228 36.4045C342.996 36.4045 342.811 36.3344 342.676 36.1942C342.549 36.0432 342.486 35.8436 342.486 35.5955V25.8067C342.486 25.5587 342.549 25.3645 342.676 25.2243C342.811 25.0733 342.996 24.9978 343.228 24.9978H348.582C348.805 24.9978 348.975 25.0571 349.091 25.1757C349.217 25.2944 349.28 25.4616 349.28 25.6773C349.28 25.893 349.217 26.0603 349.091 26.1789C348.975 26.2868 348.805 26.3407 348.582 26.3407H343.956V29.9326H348.291C348.514 29.9326 348.684 29.9919 348.8 30.1106C348.926 30.2292 348.989 30.3964 348.989 30.6121C348.989 30.8278 348.926 30.9951 348.8 31.1137C348.684 31.2323 348.514 31.2917 348.291 31.2917H343.956V35.0616H348.582C349.047 35.0616 349.28 35.2827 349.28 35.7249C349.28 35.9406 349.217 36.1079 349.091 36.2265C348.975 36.3451 348.805 36.4045 348.582 36.4045H343.228Z" fill="#514B95"/>
<path d="M496.547 102.216C496.325 102.216 496.145 102.14 496.009 101.989C495.874 101.839 495.805 101.633 495.805 101.374V91.5371C495.805 91.289 495.868 91.0949 495.995 90.9546C496.13 90.8036 496.315 90.7281 496.547 90.7281H500.053C501.14 90.7281 501.984 91.0247 502.585 91.618C503.186 92.2113 503.486 93.0526 503.486 94.142C503.486 95.2207 503.186 96.0621 502.585 96.6661C501.984 97.2701 501.14 97.5721 500.053 97.5721H497.304V101.374C497.304 101.633 497.236 101.839 497.1 101.989C496.974 102.14 496.79 102.216 496.547 102.216ZM499.893 96.2292C501.329 96.2292 502.046 95.5335 502.046 94.142C502.046 92.7614 501.329 92.071 499.893 92.071H497.304V96.2292H499.893ZM513.094 90.9384C513.231 90.7443 513.4 90.6472 513.603 90.6472C513.778 90.6472 513.933 90.7281 514.069 90.8899C514.214 91.0409 514.287 91.2188 514.287 91.4238C514.287 91.618 514.229 91.7851 514.112 91.9254L510.679 96.6823V101.374C510.679 101.644 510.607 101.855 510.461 102.005C510.326 102.146 510.146 102.216 509.923 102.216C509.7 102.216 509.521 102.146 509.385 102.005C509.249 101.855 509.181 101.644 509.181 101.374V96.6823L505.748 91.9254C505.631 91.7851 505.573 91.6126 505.573 91.4076C505.573 91.2027 505.641 91.0247 505.777 90.8737C505.913 90.7227 506.073 90.6472 506.257 90.6472C506.451 90.6472 506.621 90.7443 506.766 90.9384L509.937 95.3717L513.094 90.9384ZM520.469 102.216C520.246 102.216 520.061 102.14 519.916 101.989C519.78 101.827 519.712 101.622 519.712 101.374V92.1196H516.803C516.337 92.1196 516.105 91.8877 516.105 91.4238C516.105 91.1973 516.163 91.0247 516.279 90.9061C516.405 90.7875 516.58 90.7281 516.803 90.7281H524.135C524.358 90.7281 524.527 90.7875 524.644 90.9061C524.77 91.0247 524.833 91.1973 524.833 91.4238C524.833 91.8877 524.6 92.1196 524.135 92.1196H521.225V101.374C521.225 101.622 521.158 101.827 521.022 101.989C520.886 102.14 520.701 102.216 520.469 102.216ZM535.489 90.6472C535.712 90.6472 535.891 90.7281 536.027 90.8899C536.163 91.0409 536.231 91.2405 536.231 91.4885V101.374C536.231 101.622 536.163 101.827 536.027 101.989C535.891 102.14 535.712 102.216 535.489 102.216C535.265 102.216 535.086 102.14 534.951 101.989C534.814 101.839 534.747 101.633 534.747 101.374V97.022H529.015V101.374C529.015 101.622 528.947 101.827 528.812 101.989C528.675 102.14 528.496 102.216 528.273 102.216C528.05 102.216 527.871 102.14 527.735 101.989C527.599 101.839 527.531 101.633 527.531 101.374V91.4885C527.531 91.2405 527.599 91.0409 527.735 90.8899C527.871 90.7281 528.05 90.6472 528.273 90.6472C528.496 90.6472 528.675 90.7281 528.812 90.8899C528.947 91.0409 529.015 91.2405 529.015 91.4885V95.6629H534.747V91.4885C534.747 91.2405 534.814 91.0409 534.951 90.8899C535.086 90.7281 535.265 90.6472 535.489 90.6472ZM544.475 102.264C543.505 102.264 542.662 102.027 541.943 101.552C541.236 101.078 540.688 100.404 540.3 99.5299C539.912 98.6562 539.718 97.626 539.718 96.4396C539.718 95.2422 539.907 94.2067 540.285 93.333C540.673 92.4485 541.226 91.7744 541.943 91.3106C542.662 90.836 543.505 90.5987 544.475 90.5987C545.455 90.5987 546.303 90.836 547.02 91.3106C547.739 91.7744 548.286 92.4485 548.664 93.333C549.053 94.2067 549.246 95.2369 549.246 96.4234C549.246 97.6099 549.053 98.6454 548.664 99.5299C548.286 100.404 547.739 101.078 547.02 101.552C546.303 102.027 545.455 102.264 544.475 102.264ZM544.475 100.905C545.503 100.905 546.303 100.517 546.875 99.7402C547.448 98.9636 547.733 97.858 547.733 96.4234C547.733 94.9887 547.448 93.8885 546.875 93.1227C546.313 92.3461 545.513 91.9578 544.475 91.9578C543.456 91.9578 542.662 92.3461 542.089 93.1227C541.527 93.8885 541.245 94.9887 541.245 96.4234C541.245 97.858 541.527 98.9636 542.089 99.7402C542.662 100.517 543.456 100.905 544.475 100.905ZM560.455 90.6472C560.669 90.6472 560.838 90.7281 560.964 90.8899C561.1 91.0409 561.168 91.2405 561.168 91.4885V101.374C561.168 101.622 561.1 101.827 560.964 101.989C560.829 102.14 560.654 102.216 560.44 102.216C560.189 102.216 559.994 102.108 559.859 101.892L554.156 93.5272V101.374C554.156 101.622 554.088 101.827 553.952 101.989C553.826 102.14 553.657 102.216 553.443 102.216C553.23 102.216 553.06 102.14 552.934 101.989C552.808 101.839 552.745 101.633 552.745 101.374V91.4885C552.745 91.2405 552.813 91.0409 552.949 90.8899C553.084 90.7281 553.259 90.6472 553.472 90.6472C553.724 90.6472 553.919 90.7551 554.054 90.9708L559.757 99.3519V91.4885C559.757 91.2405 559.819 91.0409 559.946 90.8899C560.072 90.7281 560.241 90.6472 560.455 90.6472Z" fill="#514B95"/>
<path d="M616.687 220.49C616.735 220.619 616.76 220.728 616.76 220.813C616.76 221.019 616.683 221.191 616.527 221.331C616.382 221.472 616.217 221.542 616.033 221.542C615.906 221.542 615.785 221.504 615.669 221.428C615.562 221.342 615.48 221.223 615.422 221.072L614.461 218.645H609.137L608.177 221.072C608.119 221.223 608.031 221.342 607.915 221.428C607.799 221.504 607.678 221.542 607.551 221.542C607.358 221.542 607.183 221.472 607.028 221.331C606.882 221.191 606.81 221.019 606.81 220.813C606.81 220.728 606.834 220.619 606.882 220.49L610.985 210.507C611.053 210.334 611.159 210.2 611.305 210.102C611.46 210.005 611.62 209.957 611.785 209.957C611.949 209.957 612.105 210.005 612.25 210.102C612.406 210.2 612.517 210.334 612.585 210.507L616.687 220.49ZM609.675 217.319H613.938L611.799 211.963L609.675 217.319ZM620.519 221.542C620.296 221.542 620.116 221.466 619.98 221.315C619.845 221.164 619.777 220.959 619.777 220.7V210.863C619.777 210.615 619.839 210.421 619.966 210.28C620.101 210.13 620.286 210.054 620.519 210.054H624.025C625.111 210.054 625.955 210.35 626.556 210.944C627.157 211.537 627.458 212.379 627.458 213.468C627.458 214.547 627.157 215.388 626.556 215.992C625.955 216.596 625.111 216.898 624.025 216.898H621.275V220.7C621.275 220.959 621.207 221.164 621.071 221.315C620.945 221.466 620.761 221.542 620.519 221.542ZM623.865 215.555C625.3 215.555 626.018 214.859 626.018 213.468C626.018 212.088 625.3 211.397 623.865 211.397H621.275V215.555H623.865ZM631.464 221.542C631.24 221.542 631.061 221.466 630.926 221.315C630.789 221.164 630.722 220.959 630.722 220.7V210.863C630.722 210.615 630.785 210.421 630.911 210.28C631.046 210.13 631.231 210.054 631.464 210.054H634.97C636.055 210.054 636.899 210.35 637.501 210.944C638.102 211.537 638.403 212.379 638.403 213.468C638.403 214.547 638.102 215.388 637.501 215.992C636.899 216.596 636.055 216.898 634.97 216.898H632.22V220.7C632.22 220.959 632.152 221.164 632.017 221.315C631.89 221.466 631.706 221.542 631.464 221.542ZM634.81 215.555C636.244 215.555 636.963 214.859 636.963 213.468C636.963 212.088 636.244 211.397 634.81 211.397H632.22V215.555H634.81Z" fill="#514B95"/>
<path d="M539.28 313.564C539.058 313.564 538.878 313.488 538.742 313.338C538.607 313.187 538.538 312.982 538.538 312.723V302.885C538.538 302.638 538.601 302.443 538.728 302.303C538.863 302.152 539.048 302.076 539.28 302.076H542.786C543.873 302.076 544.716 302.373 545.317 302.966C545.918 303.56 546.219 304.401 546.219 305.49C546.219 306.569 545.918 307.411 545.317 308.014C544.716 308.618 543.873 308.92 542.786 308.92H540.037V312.723C540.037 312.982 539.969 313.187 539.833 313.338C539.707 313.488 539.523 313.564 539.28 313.564ZM542.626 307.578C544.062 307.578 544.779 306.882 544.779 305.49C544.779 304.11 544.062 303.419 542.626 303.419H540.037V307.578H542.626ZM557.485 312.448C557.572 312.588 557.616 312.739 557.616 312.901C557.616 313.095 557.543 313.262 557.397 313.402C557.261 313.532 557.101 313.596 556.917 313.596C556.645 313.596 556.427 313.462 556.263 313.192L554.313 309.827C554.09 309.438 553.852 309.168 553.6 309.018C553.348 308.856 553.019 308.775 552.611 308.775H550.967V312.723C550.967 312.982 550.899 313.187 550.764 313.338C550.637 313.488 550.458 313.564 550.225 313.564C550.002 313.564 549.823 313.488 549.687 313.338C549.551 313.187 549.483 312.982 549.483 312.723V302.885C549.483 302.638 549.546 302.443 549.673 302.303C549.808 302.152 549.993 302.076 550.225 302.076H553.848C554.982 302.076 555.845 302.357 556.437 302.918C557.038 303.479 557.339 304.298 557.339 305.377C557.339 306.272 557.111 307 556.655 307.561C556.199 308.111 555.55 308.462 554.706 308.613C554.958 308.689 555.186 308.823 555.39 309.018C555.593 309.212 555.792 309.482 555.986 309.827L557.485 312.448ZM553.673 307.432C554.43 307.432 554.987 307.27 555.346 306.947C555.714 306.612 555.899 306.1 555.899 305.409C555.899 304.719 555.719 304.217 555.361 303.905C555.002 303.581 554.439 303.419 553.673 303.419H550.953V307.432H553.673ZM565.318 313.613C564.349 313.613 563.505 313.375 562.787 312.901C562.08 312.426 561.532 311.752 561.143 310.878C560.756 310.005 560.561 308.974 560.561 307.788C560.561 306.591 560.751 305.555 561.129 304.681C561.517 303.796 562.07 303.123 562.787 302.659C563.505 302.185 564.349 301.947 565.318 301.947C566.299 301.947 567.147 302.185 567.864 302.659C568.582 303.123 569.13 303.796 569.508 304.681C569.896 305.555 570.09 306.585 570.09 307.772C570.09 308.958 569.896 309.993 569.508 310.878C569.13 311.752 568.582 312.426 567.864 312.901C567.147 313.375 566.299 313.613 565.318 313.613ZM565.318 312.253C566.347 312.253 567.147 311.865 567.719 311.089C568.292 310.312 568.577 309.207 568.577 307.772C568.577 306.337 568.292 305.237 567.719 304.471C567.157 303.694 566.357 303.306 565.318 303.306C564.3 303.306 563.505 303.694 562.933 304.471C562.371 305.237 562.089 306.337 562.089 307.772C562.089 309.207 562.371 310.312 562.933 311.089C563.505 311.865 564.3 312.253 565.318 312.253ZM581.299 307.432C581.483 307.432 581.629 307.492 581.735 307.61C581.852 307.728 581.91 307.89 581.91 308.095V311.881C581.91 312.248 581.862 312.512 581.764 312.674C581.677 312.836 581.498 312.965 581.226 313.062C580.838 313.235 580.378 313.37 579.844 313.467C579.31 313.564 578.782 313.613 578.258 313.613C577.221 313.613 576.324 313.381 575.567 312.917C574.811 312.453 574.233 311.784 573.836 310.911C573.439 310.037 573.239 308.99 573.239 307.772C573.239 306.574 573.439 305.539 573.836 304.665C574.233 303.791 574.801 303.123 575.538 302.659C576.284 302.185 577.157 301.947 578.156 301.947C578.836 301.947 579.461 302.06 580.033 302.287C580.615 302.502 581.11 302.821 581.517 303.241C581.711 303.414 581.808 303.63 581.808 303.889C581.808 304.083 581.76 304.25 581.662 304.39C581.565 304.52 581.449 304.584 581.313 304.584C581.226 304.584 581.149 304.568 581.081 304.536C581.012 304.503 580.925 304.45 580.819 304.374C580.343 303.986 579.912 303.716 579.524 303.565C579.136 303.403 578.69 303.322 578.186 303.322C577.08 303.322 576.236 303.706 575.654 304.471C575.072 305.226 574.782 306.327 574.782 307.772C574.782 309.249 575.077 310.372 575.669 311.137C576.27 311.892 577.148 312.27 578.302 312.27C579.078 312.27 579.825 312.14 580.542 311.881V308.694H578.637C578.443 308.694 578.287 308.64 578.171 308.532C578.065 308.414 578.011 308.257 578.011 308.063C578.011 307.869 578.065 307.718 578.171 307.61C578.287 307.492 578.443 307.432 578.637 307.432H581.299ZM593.629 312.448C593.716 312.588 593.76 312.739 593.76 312.901C593.76 313.095 593.687 313.262 593.541 313.402C593.405 313.532 593.245 313.596 593.061 313.596C592.789 313.596 592.571 313.462 592.407 313.192L590.457 309.827C590.234 309.438 589.996 309.168 589.744 309.018C589.492 308.856 589.163 308.775 588.755 308.775H587.111V312.723C587.111 312.982 587.043 313.187 586.908 313.338C586.781 313.488 586.602 313.564 586.369 313.564C586.146 313.564 585.967 313.488 585.831 313.338C585.695 313.187 585.628 312.982 585.628 312.723V302.885C585.628 302.638 585.69 302.443 585.817 302.303C585.952 302.152 586.137 302.076 586.369 302.076H589.992C591.126 302.076 591.989 302.357 592.581 302.918C593.182 303.479 593.483 304.298 593.483 305.377C593.483 306.272 593.255 307 592.799 307.561C592.343 308.111 591.694 308.462 590.85 308.613C591.102 308.689 591.33 308.823 591.534 309.018C591.737 309.212 591.936 309.482 592.13 309.827L593.629 312.448ZM589.817 307.432C590.574 307.432 591.131 307.27 591.49 306.947C591.858 306.612 592.043 306.1 592.043 305.409C592.043 304.719 591.863 304.217 591.505 303.905C591.146 303.581 590.583 303.419 589.817 303.419H587.097V307.432H589.817ZM606.075 312.512C606.123 312.642 606.148 312.75 606.148 312.836C606.148 313.041 606.07 313.213 605.915 313.354C605.769 313.494 605.605 313.564 605.42 313.564C605.294 313.564 605.173 313.527 605.057 313.451C604.95 313.365 604.867 313.246 604.809 313.095L603.849 310.668H598.525L597.565 313.095C597.506 313.246 597.419 313.365 597.303 313.451C597.186 313.527 597.065 313.564 596.939 313.564C596.745 313.564 596.571 313.494 596.415 313.354C596.27 313.213 596.197 313.041 596.197 312.836C596.197 312.75 596.222 312.642 596.27 312.512L600.372 302.529C600.44 302.357 600.547 302.222 600.692 302.125C600.848 302.028 601.008 301.979 601.172 301.979C601.337 301.979 601.492 302.028 601.638 302.125C601.793 302.222 601.904 302.357 601.972 302.529L606.075 312.512ZM599.063 309.341H603.325L601.187 303.986L599.063 309.341ZM618.271 301.996C618.485 301.996 618.659 302.076 618.795 302.238C618.93 302.389 618.998 302.589 618.998 302.837V312.771C618.998 313.019 618.936 313.213 618.809 313.354C618.693 313.494 618.528 313.564 618.315 313.564C618.111 313.564 617.951 313.494 617.835 313.354C617.718 313.213 617.66 313.019 617.66 312.771V305.248L614.809 311.283C614.624 311.66 614.387 311.849 614.096 311.849C613.805 311.849 613.568 311.66 613.383 311.283L610.517 305.312V312.771C610.517 313.019 610.459 313.213 610.343 313.354C610.226 313.494 610.062 313.564 609.848 313.564C609.644 313.564 609.48 313.494 609.353 313.354C609.237 313.203 609.179 313.009 609.179 312.771V302.837C609.179 302.589 609.247 302.389 609.383 302.238C609.518 302.076 609.693 301.996 609.906 301.996C610.207 301.996 610.449 302.19 610.634 302.578L614.11 309.972L617.558 302.578C617.743 302.19 617.98 301.996 618.271 301.996ZM631.957 301.996C632.171 301.996 632.346 302.076 632.481 302.238C632.618 302.389 632.685 302.589 632.685 302.837V312.771C632.685 313.019 632.622 313.213 632.496 313.354C632.379 313.494 632.215 313.564 632.001 313.564C631.797 313.564 631.637 313.494 631.521 313.354C631.405 313.213 631.346 313.019 631.346 312.771V305.248L628.495 311.283C628.311 311.66 628.073 311.849 627.782 311.849C627.491 311.849 627.254 311.66 627.07 311.283L624.204 305.312V312.771C624.204 313.019 624.145 313.213 624.029 313.354C623.913 313.494 623.748 313.564 623.534 313.564C623.331 313.564 623.166 313.494 623.04 313.354C622.923 313.203 622.865 313.009 622.865 312.771V302.837C622.865 302.589 622.934 302.389 623.069 302.238C623.205 302.076 623.38 301.996 623.593 301.996C623.894 301.996 624.136 302.19 624.32 302.578L627.797 309.972L631.245 302.578C631.429 302.19 631.667 301.996 631.957 301.996ZM637.279 313.564C637.056 313.564 636.877 313.488 636.741 313.338C636.605 313.187 636.537 312.982 636.537 312.723V302.837C636.537 302.589 636.605 302.389 636.741 302.238C636.877 302.076 637.056 301.996 637.279 301.996C637.512 301.996 637.696 302.071 637.832 302.222C637.968 302.373 638.036 302.578 638.036 302.837V312.723C638.036 312.982 637.968 313.187 637.832 313.338C637.706 313.488 637.522 313.564 637.279 313.564ZM649.581 301.996C649.794 301.996 649.964 302.076 650.09 302.238C650.225 302.389 650.294 302.589 650.294 302.837V312.723C650.294 312.97 650.225 313.176 650.09 313.338C649.954 313.488 649.78 313.564 649.566 313.564C649.314 313.564 649.12 313.456 648.984 313.24L643.282 304.876V312.723C643.282 312.97 643.214 313.176 643.078 313.338C642.952 313.488 642.783 313.564 642.569 313.564C642.355 313.564 642.186 313.488 642.06 313.338C641.933 313.187 641.871 312.982 641.871 312.723V302.837C641.871 302.589 641.939 302.389 642.074 302.238C642.21 302.076 642.384 301.996 642.598 301.996C642.85 301.996 643.044 302.104 643.18 302.319L648.882 310.7V302.837C648.882 302.589 648.945 302.389 649.072 302.238C649.198 302.076 649.367 301.996 649.581 301.996ZM661.847 307.432C662.031 307.432 662.176 307.492 662.283 307.61C662.4 307.728 662.458 307.89 662.458 308.095V311.881C662.458 312.248 662.409 312.512 662.312 312.674C662.225 312.836 662.045 312.965 661.774 313.062C661.386 313.235 660.925 313.37 660.392 313.467C659.859 313.564 659.33 313.613 658.807 313.613C657.768 313.613 656.872 313.381 656.115 312.917C655.359 312.453 654.781 311.784 654.384 310.911C653.986 310.037 653.788 308.99 653.788 307.772C653.788 306.574 653.986 305.539 654.384 304.665C654.781 303.791 655.349 303.123 656.086 302.659C656.833 302.185 657.705 301.947 658.705 301.947C659.383 301.947 660.009 302.06 660.581 302.287C661.163 302.502 661.658 302.821 662.065 303.241C662.259 303.414 662.356 303.63 662.356 303.889C662.356 304.083 662.307 304.25 662.211 304.39C662.113 304.52 661.997 304.584 661.862 304.584C661.774 304.584 661.696 304.568 661.629 304.536C661.561 304.503 661.473 304.45 661.367 304.374C660.891 303.986 660.46 303.716 660.072 303.565C659.684 303.403 659.238 303.322 658.734 303.322C657.628 303.322 656.784 303.706 656.203 304.471C655.621 305.226 655.33 306.327 655.33 307.772C655.33 309.249 655.625 310.372 656.217 311.137C656.818 311.892 657.696 312.27 658.85 312.27C659.626 312.27 660.372 312.14 661.091 311.881V308.694H659.185C658.99 308.694 658.836 308.64 658.719 308.532C658.612 308.414 658.559 308.257 658.559 308.063C658.559 307.869 658.612 307.718 658.719 307.61C658.836 307.492 658.99 307.432 659.185 307.432H661.847Z" fill="#514B95"/>
<path d="M473.802 165.843C473.58 165.843 473.4 165.773 473.264 165.632C473.138 165.492 473.075 165.304 473.075 165.066V155.196C473.075 154.949 473.143 154.748 473.279 154.598C473.414 154.436 473.594 154.355 473.817 154.355C474.05 154.355 474.234 154.431 474.37 154.582C474.505 154.732 474.573 154.938 474.573 155.196V164.451H478.996C479.219 164.451 479.389 164.511 479.505 164.629C479.631 164.748 479.694 164.92 479.694 165.147C479.694 165.373 479.631 165.546 479.505 165.665C479.389 165.783 479.219 165.843 478.996 165.843H473.802ZM486.353 165.972C485.384 165.972 484.54 165.735 483.822 165.26C483.115 164.786 482.566 164.111 482.178 163.238C481.791 162.364 481.596 161.334 481.596 160.147C481.596 158.95 481.785 157.915 482.163 157.041C482.552 156.156 483.105 155.483 483.822 155.018C484.54 154.544 485.384 154.307 486.353 154.307C487.333 154.307 488.182 154.544 488.899 155.018C489.617 155.483 490.165 156.156 490.543 157.041C490.931 157.915 491.125 158.945 491.125 160.131C491.125 161.317 490.931 162.353 490.543 163.238C490.165 164.111 489.617 164.786 488.899 165.26C488.182 165.735 487.333 165.972 486.353 165.972ZM486.353 164.613C487.382 164.613 488.182 164.225 488.754 163.448C489.326 162.671 489.612 161.566 489.612 160.131C489.612 158.696 489.326 157.596 488.754 156.831C488.192 156.054 487.392 155.666 486.353 155.666C485.335 155.666 484.54 156.054 483.967 156.831C483.405 157.596 483.124 158.696 483.124 160.131C483.124 161.566 483.405 162.671 483.967 163.448C484.54 164.225 485.335 164.613 486.353 164.613ZM502.334 159.791C502.518 159.791 502.664 159.851 502.77 159.969C502.886 160.088 502.945 160.25 502.945 160.455V164.241C502.945 164.608 502.896 164.872 502.799 165.034C502.712 165.196 502.533 165.325 502.261 165.422C501.873 165.595 501.413 165.729 500.879 165.827C500.345 165.924 499.817 165.972 499.293 165.972C498.256 165.972 497.358 165.741 496.602 165.276C495.845 164.812 495.268 164.144 494.871 163.27C494.473 162.396 494.274 161.35 494.274 160.131C494.274 158.934 494.473 157.898 494.871 157.025C495.268 156.151 495.835 155.483 496.573 155.018C497.319 154.544 498.192 154.307 499.191 154.307C499.87 154.307 500.496 154.42 501.068 154.646C501.65 154.862 502.144 155.18 502.552 155.601C502.745 155.774 502.843 155.989 502.843 156.248C502.843 156.442 502.795 156.609 502.697 156.75C502.6 156.879 502.484 156.944 502.348 156.944C502.261 156.944 502.184 156.928 502.115 156.895C502.047 156.863 501.96 156.809 501.853 156.733C501.378 156.345 500.947 156.075 500.559 155.924C500.17 155.763 499.725 155.682 499.22 155.682C498.115 155.682 497.271 156.065 496.689 156.831C496.107 157.586 495.816 158.686 495.816 160.131C495.816 161.609 496.112 162.731 496.704 163.497C497.305 164.252 498.183 164.629 499.337 164.629C500.112 164.629 500.86 164.5 501.577 164.241V161.053H499.671C499.478 161.053 499.322 161 499.206 160.892C499.099 160.773 499.046 160.617 499.046 160.422C499.046 160.228 499.099 160.078 499.206 159.969C499.322 159.851 499.478 159.791 499.671 159.791H502.334ZM507.404 165.924C507.181 165.924 507.001 165.848 506.866 165.697C506.73 165.546 506.662 165.341 506.662 165.082V155.196C506.662 154.949 506.73 154.748 506.866 154.598C507.001 154.436 507.181 154.355 507.404 154.355C507.637 154.355 507.821 154.431 507.957 154.582C508.093 154.732 508.161 154.938 508.161 155.196V165.082C508.161 165.341 508.093 165.546 507.957 165.697C507.831 165.848 507.646 165.924 507.404 165.924ZM516.461 165.972C515.482 165.972 514.628 165.741 513.901 165.276C513.173 164.802 512.616 164.128 512.228 163.254C511.84 162.369 511.646 161.329 511.646 160.131C511.646 158.945 511.84 157.915 512.228 157.041C512.616 156.156 513.173 155.483 513.901 155.018C514.628 154.544 515.482 154.307 516.461 154.307C517.101 154.307 517.707 154.42 518.279 154.646C518.852 154.862 519.351 155.18 519.778 155.601C519.962 155.763 520.054 155.978 520.054 156.248C520.054 156.442 520.006 156.609 519.909 156.75C519.812 156.879 519.696 156.944 519.56 156.944C519.395 156.944 519.235 156.874 519.079 156.733C518.614 156.345 518.188 156.075 517.799 155.924C517.421 155.763 516.99 155.682 516.505 155.682C515.438 155.682 514.619 156.065 514.046 156.831C513.474 157.596 513.188 158.696 513.188 160.131C513.188 161.576 513.474 162.683 514.046 163.448C514.619 164.214 515.438 164.597 516.505 164.597C516.97 164.597 517.392 164.516 517.77 164.354C518.158 164.192 518.595 163.922 519.079 163.545C519.274 163.405 519.434 163.335 519.56 163.335C519.696 163.335 519.812 163.405 519.909 163.545C520.006 163.675 520.054 163.836 520.054 164.031C520.054 164.301 519.962 164.516 519.778 164.678C519.351 165.098 518.852 165.422 518.279 165.649C517.707 165.864 517.101 165.972 516.461 165.972Z" fill="#514B95"/>
<path d="M67.1218 156.871C65.7544 156.871 64.7167 156.478 64.0087 155.69C63.3007 154.902 62.9467 153.743 62.9467 152.211V146.095C62.9467 145.836 63.0146 145.631 63.1504 145.48C63.2861 145.33 63.4656 145.254 63.6886 145.254C63.9117 145.254 64.0911 145.33 64.2269 145.48C64.3626 145.631 64.4305 145.836 64.4305 146.095V152.325C64.4305 153.371 64.6536 154.164 65.0997 154.703C65.5555 155.242 66.2296 155.512 67.1218 155.512C68.0044 155.512 68.6736 155.242 69.1294 154.703C69.5851 154.164 69.8131 153.371 69.8131 152.325V146.095C69.8131 145.848 69.881 145.647 70.0168 145.497C70.1525 145.335 70.332 145.254 70.555 145.254C70.778 145.254 70.9575 145.33 71.0933 145.48C71.229 145.631 71.2969 145.836 71.2969 146.095V152.211C71.2969 153.732 70.9381 154.892 70.2204 155.69C69.5124 156.478 68.4795 156.871 67.1218 156.871ZM75.7999 156.822C75.5769 156.822 75.3975 156.747 75.2617 156.596C75.1259 156.445 75.058 156.24 75.058 155.981V146.095C75.058 145.848 75.1259 145.647 75.2617 145.497C75.3975 145.335 75.5769 145.254 75.7999 145.254C76.0327 145.254 76.217 145.33 76.3527 145.48C76.4885 145.631 76.5564 145.836 76.5564 146.095V155.981C76.5564 156.24 76.4885 156.445 76.3527 156.596C76.2267 156.747 76.0424 156.822 75.7999 156.822ZM85.5216 157.308C85.4731 157.481 85.3955 157.604 85.2888 157.68C85.1822 157.766 85.0658 157.809 84.9397 157.809C84.7748 157.809 84.6294 157.75 84.5033 157.631C84.3772 157.513 84.3141 157.356 84.3141 157.162C84.3141 157.086 84.3287 157 84.3578 156.903L87.7619 145.044C87.8104 144.871 87.888 144.747 87.9946 144.671C88.1013 144.586 88.2177 144.542 88.3438 144.542C88.5086 144.542 88.6541 144.602 88.7802 144.72C88.9063 144.838 88.9693 144.995 88.9693 145.189C88.9693 145.265 88.9548 145.351 88.9257 145.448L85.5216 157.308ZM100.834 156.871C99.4662 156.871 98.4288 156.478 97.7205 155.69C97.0122 154.902 96.6585 153.743 96.6585 152.211V146.095C96.6585 145.836 96.7267 145.631 96.8622 145.48C96.9977 145.33 97.1777 145.254 97.4005 145.254C97.6232 145.254 97.8032 145.33 97.9387 145.48C98.0742 145.631 98.1424 145.836 98.1424 146.095V152.325C98.1424 153.371 98.3651 154.164 98.8116 154.703C99.2671 155.242 99.9417 155.512 100.834 155.512C101.717 155.512 102.386 155.242 102.841 154.703C103.297 154.164 103.525 153.371 103.525 152.325V146.095C103.525 145.848 103.593 145.647 103.729 145.497C103.864 145.335 104.044 145.254 104.267 145.254C104.49 145.254 104.67 145.33 104.805 145.48C104.941 145.631 105.009 145.836 105.009 146.095V152.211C105.009 153.732 104.65 154.892 103.932 155.69C103.224 156.478 102.191 156.871 100.834 156.871ZM116.425 155.544C116.55 155.695 116.614 155.863 116.614 156.046C116.614 156.251 116.541 156.434 116.396 156.596C116.25 156.747 116.085 156.822 115.901 156.822C115.697 156.822 115.523 156.725 115.377 156.531L112.221 152.114L109.049 156.531C108.904 156.725 108.734 156.822 108.54 156.822C108.356 156.822 108.191 156.747 108.046 156.596C107.9 156.434 107.827 156.251 107.827 156.046C107.827 155.873 107.886 155.706 108.002 155.544L111.348 150.933L108.162 146.532C108.046 146.392 107.987 146.225 107.987 146.031C107.987 145.825 108.055 145.647 108.191 145.497C108.336 145.335 108.501 145.254 108.686 145.254C108.889 145.254 109.064 145.351 109.209 145.545L112.221 149.768L115.232 145.545C115.367 145.351 115.542 145.254 115.756 145.254C115.939 145.254 116.105 145.335 116.25 145.497C116.396 145.647 116.469 145.825 116.469 146.031C116.469 146.214 116.405 146.381 116.279 146.532L113.094 150.933L116.425 155.544ZM125.662 156.742C125.429 156.742 125.245 156.672 125.109 156.531C124.983 156.381 124.92 156.18 124.92 155.933V146.144C124.92 145.896 124.983 145.702 125.109 145.561C125.245 145.411 125.429 145.335 125.662 145.335H128.513C130.171 145.335 131.457 145.831 132.368 146.823C133.28 147.815 133.735 149.218 133.735 151.03C133.735 152.842 133.28 154.25 132.368 155.253C131.457 156.245 130.171 156.742 128.513 156.742H125.662ZM128.426 155.35C130.948 155.35 132.208 153.91 132.208 151.03C132.208 148.161 130.948 146.726 128.426 146.726H126.418V155.35H128.426ZM137.971 156.742C137.738 156.742 137.553 156.672 137.418 156.531C137.291 156.381 137.229 156.18 137.229 155.933V146.144C137.229 145.896 137.291 145.702 137.418 145.561C137.553 145.411 137.738 145.335 137.971 145.335H143.324C143.547 145.335 143.717 145.395 143.833 145.513C143.959 145.631 144.022 145.799 144.022 146.014C144.022 146.23 143.959 146.398 143.833 146.516C143.717 146.624 143.547 146.678 143.324 146.678H138.698V150.27H143.033C143.256 150.27 143.426 150.329 143.542 150.448C143.668 150.566 143.731 150.734 143.731 150.949C143.731 151.165 143.668 151.332 143.542 151.451C143.426 151.569 143.256 151.629 143.033 151.629H138.698V155.399H143.324C143.789 155.399 144.022 155.62 144.022 156.062C144.022 156.277 143.959 156.445 143.833 156.564C143.717 156.682 143.547 156.742 143.324 156.742H137.971ZM150.44 156.871C149.703 156.871 149 156.758 148.331 156.531C147.672 156.305 147.143 155.992 146.745 155.593C146.561 155.42 146.469 155.199 146.469 154.929C146.469 154.735 146.517 154.573 146.614 154.444C146.712 154.303 146.828 154.234 146.964 154.234C147.099 154.234 147.265 154.303 147.458 154.444C148.321 155.156 149.306 155.512 150.411 155.512C151.187 155.512 151.783 155.35 152.201 155.027C152.618 154.703 152.826 154.239 152.826 153.635C152.826 153.161 152.632 152.805 152.244 152.567C151.856 152.33 151.236 152.103 150.382 151.888C149.568 151.693 148.898 151.472 148.375 151.224C147.851 150.977 147.439 150.642 147.138 150.221C146.847 149.789 146.702 149.245 146.702 148.587C146.702 147.929 146.862 147.346 147.182 146.84C147.512 146.322 147.967 145.922 148.549 145.642C149.131 145.351 149.796 145.205 150.542 145.205C151.23 145.205 151.866 145.314 152.448 145.529C153.03 145.744 153.524 146.063 153.932 146.484C154.125 146.667 154.223 146.888 154.223 147.147C154.223 147.33 154.169 147.492 154.063 147.632C153.965 147.773 153.849 147.843 153.714 147.843C153.587 147.843 153.427 147.773 153.233 147.632C152.787 147.255 152.365 146.985 151.968 146.823C151.58 146.65 151.11 146.565 150.557 146.565C149.81 146.565 149.228 146.737 148.811 147.082C148.394 147.417 148.186 147.886 148.186 148.49C148.186 149.008 148.37 149.401 148.738 149.671C149.107 149.93 149.698 150.168 150.513 150.383C151.367 150.598 152.055 150.825 152.579 151.062C153.113 151.289 153.534 151.608 153.844 152.017C154.165 152.417 154.325 152.934 154.325 153.57C154.325 154.218 154.16 154.795 153.83 155.302C153.51 155.798 153.054 156.186 152.462 156.467C151.881 156.737 151.207 156.871 150.44 156.871ZM158.368 156.822C158.145 156.822 157.965 156.747 157.83 156.596C157.694 156.445 157.626 156.24 157.626 155.981V146.095C157.626 145.848 157.694 145.647 157.83 145.497C157.965 145.335 158.145 145.254 158.368 145.254C158.601 145.254 158.785 145.33 158.921 145.48C159.056 145.631 159.124 145.836 159.124 146.095V155.981C159.124 156.24 159.056 156.445 158.921 156.596C158.794 156.747 158.611 156.822 158.368 156.822ZM170.669 150.69C170.853 150.69 170.999 150.75 171.106 150.868C171.222 150.987 171.28 151.148 171.28 151.354V155.14C171.28 155.507 171.231 155.771 171.135 155.933C171.048 156.094 170.868 156.224 170.597 156.321C170.209 156.494 169.748 156.628 169.215 156.725C168.681 156.822 168.153 156.871 167.629 156.871C166.591 156.871 165.694 156.639 164.938 156.175C164.181 155.711 163.604 155.043 163.207 154.169C162.808 153.295 162.61 152.249 162.61 151.03C162.61 149.833 162.808 148.797 163.207 147.924C163.604 147.05 164.171 146.381 164.909 145.917C165.655 145.443 166.528 145.205 167.527 145.205C168.206 145.205 168.831 145.319 169.404 145.545C169.986 145.761 170.48 146.079 170.888 146.5C171.081 146.673 171.179 146.888 171.179 147.147C171.179 147.341 171.13 147.508 171.033 147.649C170.936 147.778 170.82 147.843 170.684 147.843C170.597 147.843 170.519 147.827 170.451 147.794C170.383 147.762 170.296 147.708 170.189 147.632C169.714 147.244 169.282 146.974 168.895 146.823C168.506 146.662 168.06 146.581 167.556 146.581C166.451 146.581 165.607 146.964 165.025 147.729C164.443 148.485 164.152 149.585 164.152 151.03C164.152 152.508 164.448 153.63 165.04 154.396C165.641 155.151 166.518 155.528 167.673 155.528C168.448 155.528 169.195 155.399 169.913 155.14V151.952H168.007C167.813 151.952 167.658 151.899 167.542 151.791C167.435 151.672 167.382 151.516 167.382 151.321C167.382 151.127 167.435 150.977 167.542 150.868C167.658 150.75 167.813 150.69 168.007 150.69H170.669ZM182.707 145.254C182.921 145.254 183.091 145.335 183.217 145.497C183.353 145.647 183.42 145.848 183.42 146.095V155.981C183.42 156.229 183.353 156.434 183.217 156.596C183.081 156.747 182.907 156.822 182.693 156.822C182.441 156.822 182.247 156.714 182.111 156.499L176.408 148.134V155.981C176.408 156.229 176.341 156.434 176.205 156.596C176.079 156.747 175.909 156.822 175.696 156.822C175.483 156.822 175.313 156.747 175.186 156.596C175.061 156.445 174.997 156.24 174.997 155.981V146.095C174.997 145.848 175.066 145.647 175.201 145.497C175.337 145.335 175.512 145.254 175.725 145.254C175.977 145.254 176.171 145.362 176.307 145.578L182.009 153.959V146.095C182.009 145.848 182.073 145.647 182.198 145.497C182.325 145.335 182.495 145.254 182.707 145.254Z" fill="#514B95"/>
<path d="M1.63659 301.429C1.34564 301.45 1.12258 301.402 0.967405 301.284C0.812232 301.165 0.734646 300.987 0.734646 300.75C0.734646 300.329 0.943156 300.102 1.36019 300.07L1.81116 300.038C2.26697 300.017 2.60642 299.865 2.82947 299.585C3.05253 299.293 3.16407 298.84 3.16407 298.226V290.702C3.16407 290.454 3.23196 290.254 3.36773 290.103C3.5132 289.942 3.69747 289.861 3.92053 289.861C4.15329 289.861 4.33756 289.942 4.47333 290.103C4.60911 290.254 4.677 290.454 4.677 290.702V298.226C4.677 299.24 4.45879 300.01 4.02236 300.539C3.59564 301.057 2.9507 301.343 2.08756 301.397L1.63659 301.429ZM17.5634 300.378C17.6119 300.507 17.6361 300.615 17.6361 300.701C17.6361 300.906 17.5586 301.078 17.4034 301.219C17.2579 301.359 17.093 301.429 16.9087 301.429C16.7827 301.429 16.6614 301.392 16.5451 301.316C16.4384 301.23 16.3559 301.111 16.2978 300.96L15.3376 298.533H10.0133L9.05315 300.96C8.99497 301.111 8.90768 301.23 8.7913 301.316C8.67492 301.392 8.5537 301.429 8.42762 301.429C8.23365 301.429 8.05908 301.359 7.90391 301.219C7.75843 301.078 7.6857 300.906 7.6857 300.701C7.6857 300.615 7.70995 300.507 7.75843 300.378L11.8608 290.395C11.9287 290.222 12.0354 290.087 12.1808 289.99C12.336 289.893 12.4961 289.844 12.6609 289.844C12.8258 289.844 12.9809 289.893 13.1264 289.99C13.2816 290.087 13.3932 290.222 13.461 290.395L17.5634 300.378ZM10.5515 297.206H14.8139L12.6754 291.851L10.5515 297.206ZM27.193 290.298C27.3191 289.995 27.5276 289.844 27.8186 289.844C28.0125 289.844 28.1871 289.92 28.3423 290.071C28.4974 290.212 28.5751 290.383 28.5751 290.589C28.5751 290.665 28.5508 290.767 28.5023 290.896L24.3999 300.895C24.332 301.068 24.2254 301.203 24.0799 301.3C23.9344 301.397 23.7792 301.445 23.6144 301.445C23.4494 301.445 23.2894 301.397 23.1343 301.3C22.9888 301.203 22.8821 301.068 22.8143 300.895L18.7264 290.896C18.6779 290.767 18.6537 290.665 18.6537 290.589C18.6537 290.373 18.7313 290.195 18.8865 290.055C19.0513 289.914 19.2307 289.844 19.4247 289.844C19.7253 289.844 19.9387 289.995 20.0648 290.298L23.6289 299.18L27.193 290.298ZM39.4527 300.378C39.5013 300.507 39.5254 300.615 39.5254 300.701C39.5254 300.906 39.4479 301.078 39.2927 301.219C39.1472 301.359 38.9824 301.429 38.7981 301.429C38.6721 301.429 38.5508 301.392 38.4344 301.316C38.3277 301.23 38.2453 301.111 38.1871 300.96L37.227 298.533H31.9026L30.9425 300.96C30.8843 301.111 30.797 301.23 30.6806 301.316C30.5642 301.392 30.443 301.429 30.3169 301.429C30.123 301.429 29.9484 301.359 29.7932 301.219C29.6477 301.078 29.575 300.906 29.575 300.701C29.575 300.615 29.5993 300.507 29.6477 300.378L33.7501 290.395C33.818 290.222 33.9247 290.087 34.0702 289.99C34.2254 289.893 34.3854 289.844 34.5502 289.844C34.7152 289.844 34.8703 289.893 35.0157 289.99C35.1709 290.087 35.2825 290.222 35.3503 290.395L39.4527 300.378ZM32.4409 297.206H36.7032L34.5648 291.851L32.4409 297.206ZM45.8324 301.478C45.0953 301.478 44.3922 301.364 43.723 301.138C43.0635 300.911 42.5349 300.599 42.1373 300.2C41.953 300.027 41.8609 299.806 41.8609 299.536C41.8609 299.342 41.9094 299.18 42.0064 299.051C42.1033 298.91 42.2197 298.84 42.3556 298.84C42.4913 298.84 42.6561 298.91 42.8502 299.051C43.7133 299.763 44.6977 300.119 45.8033 300.119C46.5791 300.119 47.1756 299.957 47.5926 299.633C48.0096 299.31 48.2182 298.846 48.2182 298.242C48.2182 297.768 48.0241 297.412 47.6363 297.174C47.2483 296.936 46.6276 296.71 45.7742 296.494C44.9595 296.3 44.2904 296.079 43.7667 295.831C43.243 295.583 42.8307 295.249 42.5301 294.828C42.2392 294.396 42.0937 293.852 42.0937 293.194C42.0937 292.535 42.2537 291.953 42.5738 291.446C42.9035 290.929 43.3593 290.529 43.9412 290.249C44.5231 289.958 45.1874 289.812 45.9342 289.812C46.6228 289.812 47.258 289.92 47.8399 290.136C48.4218 290.351 48.9164 290.67 49.3238 291.09C49.5177 291.273 49.6147 291.495 49.6147 291.754C49.6147 291.937 49.5614 292.099 49.4547 292.239C49.3577 292.38 49.2413 292.449 49.1056 292.449C48.9795 292.449 48.8194 292.38 48.6255 292.239C48.1793 291.862 47.7575 291.592 47.3599 291.43C46.9719 291.257 46.5016 291.171 45.9488 291.171C45.2019 291.171 44.62 291.344 44.2031 291.689C43.786 292.024 43.5775 292.493 43.5775 293.097C43.5775 293.614 43.7617 294.008 44.1303 294.278C44.4988 294.537 45.0905 294.774 45.9051 294.99C46.7585 295.205 47.4472 295.432 47.9709 295.669C48.5042 295.896 48.9261 296.214 49.2365 296.624C49.5565 297.023 49.7166 297.541 49.7166 298.177C49.7166 298.824 49.5516 299.402 49.2219 299.908C48.9019 300.405 48.446 300.793 47.8545 301.073C47.2726 301.343 46.5985 301.478 45.8324 301.478ZM57.4842 301.478C56.5047 301.478 55.6512 301.246 54.9238 300.782C54.1964 300.308 53.6388 299.633 53.2509 298.76C52.8629 297.875 52.669 296.834 52.669 295.637C52.669 294.451 52.8629 293.42 53.2509 292.546C53.6388 291.662 54.1964 290.988 54.9238 290.524C55.6512 290.05 56.5047 289.812 57.4842 289.812C58.1242 289.812 58.7304 289.925 59.3026 290.152C59.8747 290.367 60.3743 290.686 60.801 291.107C60.9853 291.268 61.0774 291.484 61.0774 291.754C61.0774 291.948 61.0289 292.115 60.9319 292.255C60.8349 292.385 60.7185 292.449 60.5828 292.449C60.4179 292.449 60.2579 292.38 60.1027 292.239C59.6372 291.851 59.2105 291.581 58.8225 291.43C58.4443 291.268 58.0127 291.187 57.5278 291.187C56.461 291.187 55.6414 291.571 55.0693 292.336C54.4971 293.102 54.211 294.202 54.211 295.637C54.211 297.082 54.4971 298.188 55.0693 298.954C55.6414 299.719 56.461 300.102 57.5278 300.102C57.9933 300.102 58.4152 300.022 58.7934 299.86C59.1814 299.698 59.6178 299.428 60.1027 299.051C60.2966 298.91 60.4566 298.84 60.5828 298.84C60.7185 298.84 60.8349 298.91 60.9319 299.051C61.0289 299.18 61.0774 299.342 61.0774 299.536C61.0774 299.806 60.9853 300.022 60.801 300.183C60.3743 300.604 59.8747 300.928 59.3026 301.154C58.7304 301.37 58.1242 301.478 57.4842 301.478ZM72.319 300.313C72.4063 300.453 72.4499 300.604 72.4499 300.766C72.4499 300.96 72.3772 301.127 72.2317 301.267C72.096 301.397 71.9359 301.462 71.7516 301.462C71.4801 301.462 71.2619 301.327 71.097 301.057L69.1476 297.692C68.9246 297.303 68.687 297.033 68.4348 296.883C68.1827 296.721 67.8529 296.64 67.4456 296.64H65.8017V300.588C65.8017 300.847 65.7339 301.052 65.5981 301.203C65.4721 301.353 65.2926 301.429 65.0598 301.429C64.8368 301.429 64.6574 301.353 64.5216 301.203C64.3858 301.052 64.3179 300.847 64.3179 300.588V290.751C64.3179 290.503 64.381 290.309 64.507 290.168C64.6428 290.017 64.8271 289.942 65.0598 289.942H68.6821C69.8168 289.942 70.68 290.222 71.2716 290.783C71.8729 291.344 72.1735 292.163 72.1735 293.242C72.1735 294.137 71.9457 294.865 71.4898 295.427C71.034 295.977 70.3842 296.328 69.5404 296.478C69.7926 296.554 70.0205 296.689 70.2241 296.883C70.4278 297.077 70.6267 297.347 70.8206 297.692L72.319 300.313ZM68.5076 295.297C69.264 295.297 69.8217 295.135 70.1805 294.812C70.5491 294.477 70.7333 293.965 70.7333 293.275C70.7333 292.584 70.5539 292.082 70.1951 291.77C69.8363 291.446 69.2737 291.284 68.5076 291.284H65.7872V295.297H68.5076ZM76.5586 301.429C76.3355 301.429 76.156 301.353 76.0203 301.203C75.8846 301.052 75.8166 300.847 75.8166 300.588V290.702C75.8166 290.454 75.8846 290.254 76.0203 290.103C76.156 289.942 76.3355 289.861 76.5586 289.861C76.7913 289.861 76.9756 289.937 77.1114 290.087C77.2471 290.238 77.315 290.443 77.315 290.702V300.588C77.315 300.847 77.2471 301.052 77.1114 301.203C76.9852 301.353 76.801 301.429 76.5586 301.429ZM81.8916 301.429C81.6686 301.429 81.4892 301.353 81.3534 301.203C81.2176 301.052 81.1497 300.847 81.1497 300.588V290.751C81.1497 290.503 81.2128 290.309 81.3388 290.168C81.4747 290.017 81.6589 289.942 81.8916 289.942H85.3976C86.4838 289.942 87.3276 290.238 87.9288 290.831C88.5302 291.425 88.8308 292.266 88.8308 293.356C88.8308 294.434 88.5302 295.276 87.9288 295.88C87.3276 296.483 86.4838 296.786 85.3976 296.786H82.6481V300.588C82.6481 300.847 82.5803 301.052 82.4444 301.203C82.3184 301.353 82.1341 301.429 81.8916 301.429ZM85.2375 295.443C86.6729 295.443 87.3906 294.747 87.3906 293.356C87.3906 291.975 86.6729 291.284 85.2375 291.284H82.6481V295.443H85.2375ZM95.0392 301.429C94.8165 301.429 94.6319 301.353 94.4864 301.203C94.351 301.041 94.2828 300.836 94.2828 300.588V291.333H91.3733C90.9077 291.333 90.6749 291.101 90.6749 290.637C90.6749 290.411 90.7331 290.238 90.8495 290.12C90.976 290.001 91.1505 289.942 91.3733 289.942H98.7052C98.9279 289.942 99.098 290.001 99.2144 290.12C99.3407 290.238 99.4035 290.411 99.4035 290.637C99.4035 291.101 99.1707 291.333 98.7052 291.333H95.7957V300.588C95.7957 300.836 95.7275 301.041 95.592 301.203C95.4566 301.353 95.272 301.429 95.0392 301.429Z" fill="#514B95"/>
<path d="M73.6463 219.438H26.3672C25.3629 219.438 24.5488 220.343 24.5488 221.461V274.045C24.5488 275.162 25.3629 276.067 26.3672 276.067H73.6463C74.6507 276.067 75.4648 275.162 75.4648 274.045V221.461C75.4648 220.343 74.6507 219.438 73.6463 219.438Z" fill="#FEB546"/>
<path d="M58.7514 263.68C59.777 265.542 61.1114 266.912 63.4712 266.912C65.4538 266.912 66.7202 265.809 66.7202 264.287C66.7202 262.462 65.419 261.816 63.2369 260.754L62.0408 260.184C58.5882 258.548 56.2945 256.498 56.2945 252.166C56.2945 248.174 59.0286 245.137 63.3016 245.137C66.3435 245.137 68.5306 246.314 70.1065 249.397L66.3807 252.058C65.5604 250.421 64.6755 249.777 63.3016 249.777C61.9001 249.777 61.0119 250.766 61.0119 252.058C61.0119 253.654 61.9009 254.301 63.9538 255.29L65.1499 255.859C69.2151 257.797 71.5103 259.774 71.5103 264.219C71.5103 269.01 68.1264 271.634 63.582 271.634C59.1386 271.634 56.2679 269.279 54.8632 266.193L58.7514 263.68ZM41.8498 264.141C42.6014 265.624 43.2851 266.878 44.929 266.878C46.5008 266.878 47.4925 266.195 47.4925 263.534V245.44H52.277V263.606C52.277 269.116 49.3724 271.624 45.1327 271.624C41.3018 271.624 39.0833 269.42 37.9551 266.764L41.8498 264.141Z" fill="white"/>
<path d="M244.579 63.2022C247.34 63.2022 249.579 60.7121 249.579 57.6404C249.579 54.5687 247.34 52.0786 244.579 52.0786C241.817 52.0786 239.578 54.5687 239.578 57.6404C239.578 60.7121 241.817 63.2022 244.579 63.2022Z" stroke="#9794E2"/>
<path d="M496.431 188.596C499.193 188.596 501.432 186.105 501.432 183.034C501.432 179.962 499.193 177.472 496.431 177.472C493.669 177.472 491.43 179.962 491.43 183.034C491.43 186.105 493.669 188.596 496.431 188.596Z" stroke="#9794E2"/>
<path d="M122.744 183.539C125.506 183.539 127.745 181.049 127.745 177.978C127.745 174.906 125.506 172.416 122.744 172.416C119.982 172.416 117.743 174.906 117.743 177.978C117.743 181.049 119.982 183.539 122.744 183.539Z" stroke="#9794E2"/>
<path d="M50.0068 328.146C52.7686 328.146 55.0075 325.656 55.0075 322.584C55.0075 319.513 52.7686 317.022 50.0068 317.022C47.245 317.022 45.0061 319.513 45.0061 322.584C45.0061 325.656 47.245 328.146 50.0068 328.146Z" stroke="#9794E2"/>
<path d="M207.231 85.9161C207.231 90.212 199.713 93.6949 190.446 93.6949C181.178 93.6949 173.66 90.212 173.66 85.9161H207.231ZM207.231 94.2783C207.231 98.5741 199.713 102.057 190.446 102.057C181.178 102.057 173.66 98.5741 173.66 94.2783H207.231ZM173.66 77.4801V102.52C173.66 106.774 181.178 110.225 190.446 110.225C199.713 110.225 207.231 106.774 207.231 102.52V77.4801H173.66ZM207.231 77.554C207.231 81.8501 199.716 85.3327 190.446 85.3327C181.175 85.3327 173.66 81.8501 173.66 77.554C173.66 73.258 181.175 69.7753 190.446 69.7753C199.716 69.7753 207.231 73.258 207.231 77.554Z" stroke="#EF2955" stroke-width="2" stroke-miterlimit="10" stroke-linecap="round"/>
<path d="M630.085 134.494H611.901C608.888 134.494 606.446 137.211 606.446 140.562V189.101C606.446 192.452 608.888 195.169 611.901 195.169H630.085C633.099 195.169 635.541 192.452 635.541 189.101V140.562C635.541 137.211 633.099 134.494 630.085 134.494Z" fill="#EC407A"/>
<path d="M611.901 134.494H614.629C614.87 134.494 615.101 134.601 615.271 134.791C615.442 134.98 615.538 135.238 615.538 135.506C615.538 136.042 615.73 136.556 616.071 136.936C616.412 137.315 616.874 137.528 617.356 137.528H624.63C625.112 137.528 625.575 137.315 625.916 136.936C626.257 136.556 626.449 136.042 626.449 135.506C626.449 135.238 626.544 134.98 626.715 134.791C626.885 134.601 627.117 134.494 627.358 134.494H630.085" fill="#EC407A"/>
<path d="M620.993 192.64C621.998 192.64 622.812 191.735 622.812 190.618C622.812 189.501 621.998 188.596 620.993 188.596C619.989 188.596 619.175 189.501 619.175 190.618C619.175 191.735 619.989 192.64 620.993 192.64Z" fill="white"/>
<path d="M625.539 137.022H616.447C615.945 137.022 615.538 137.475 615.538 138.034C615.538 138.592 615.945 139.045 616.447 139.045H625.539C626.041 139.045 626.449 138.592 626.449 138.034C626.449 137.475 626.041 137.022 625.539 137.022Z" fill="white"/>
<path d="M517.343 450H669.353V332.295H517.343V450Z" fill="#4A4A4A"/>
<path d="M669.353 342.201H517.343V328.652H535.894H565.218H591.804H669.353V341.475V342.201ZM532.584 333.41C531.658 333.41 530.908 334.244 530.908 335.273C530.908 336.303 531.658 337.137 532.584 337.137C533.51 337.137 534.26 336.303 534.26 335.273C534.26 334.244 533.51 333.41 532.584 333.41ZM527.412 333.41C526.487 333.41 525.737 334.244 525.737 335.273C525.737 336.303 526.487 337.137 527.412 337.137C528.338 337.137 529.088 336.303 529.088 335.273C529.088 334.244 528.338 333.41 527.412 333.41ZM522.24 333.41C521.315 333.41 520.564 334.244 520.564 335.273C520.564 336.303 521.315 337.137 522.24 337.137C523.165 337.137 523.916 336.303 523.916 335.273C523.916 334.244 523.165 333.41 522.24 333.41ZM567.029 334.167V336.002H622.502V334.167H567.029Z" fill="#D762B6"/>
<path d="M522.24 337.137C521.315 337.137 520.564 336.303 520.564 335.272C520.564 334.243 521.315 333.41 522.24 333.41C523.165 333.41 523.916 334.243 523.916 335.272C523.916 336.303 523.165 337.137 522.24 337.137Z" fill="url(#paint0_linear)"/>
<path d="M527.412 337.137C526.487 337.137 525.737 336.303 525.737 335.272C525.737 334.243 526.487 333.41 527.412 333.41C528.338 333.41 529.088 334.243 529.088 335.272C529.088 336.303 528.338 337.137 527.412 337.137Z" fill="url(#paint1_linear)"/>
<path d="M532.584 337.137C531.658 337.137 530.908 336.303 530.908 335.272C530.908 334.243 531.658 333.41 532.584 333.41C533.51 333.41 534.26 334.243 534.26 335.272C534.26 336.303 533.51 337.137 532.584 337.137Z" fill="url(#paint2_linear)"/>
<path d="M567.029 336.002H622.502V334.167H567.029V336.002Z" fill="#EBB8F8"/>
<path d="M535.945 357.93H555.528V354.129H535.945V357.93Z" fill="#B55E7B"/>
<path d="M535.945 365.974H567.316V362.173H535.945V365.974Z" fill="#B55E7B"/>
<path d="M542.159 374.018H556.815V370.217H542.159V374.018Z" fill="#888888"/>
<path d="M535.945 390.105H566.011V386.305H535.945V390.105Z" fill="#B55E7B"/>
<path d="M542.159 398.15H583.477V394.349H542.159V398.15Z" fill="#888888"/>
<path d="M535.945 406.193H555.528V402.393H535.945V406.193Z" fill="#B55E7B"/>
<path d="M542.159 414.238H579.637V410.437H542.159V414.238Z" fill="#888888"/>
<path d="M535.945 430.325H564.893V426.525H535.945V430.325Z" fill="#B55E7B"/>
<path d="M542.159 438.37H595.087V434.57H542.159V438.37Z" fill="#888888"/>
<path d="M560.944 374.018H571.106V370.217H560.944V374.018Z" fill="#888888"/>
<path d="M572.226 390.105H592.429V386.305H572.226V390.105Z" fill="#888888"/>
<path d="M598.204 390.105H613.564V386.305H598.204V390.105Z" fill="#907CB3"/>
<path d="M561.476 406.193H594.815V402.393H561.476V406.193Z" fill="#888888"/>
<path d="M585.727 414.238H601.03V410.437H585.727V414.238Z" fill="#907CB3"/>
<path d="M606.434 414.238H636.31V410.437H606.434V414.238Z" fill="#888888"/>
<path d="M599.86 406.193H618.239V402.393H599.86V406.193Z" fill="#907CB3"/>
<path d="M623.124 406.193H651.227V402.393H623.124V406.193Z" fill="#888888"/>
<path d="M589.474 398.15H630.792V394.349H589.474V398.15Z" fill="#888888"/>
<path d="M528.132 357.93H531.273V354.129H528.132V357.93Z" fill="#707070"/>
<path d="M528.132 365.974H531.273V362.173H528.132V365.974Z" fill="#707070"/>
<path d="M528.132 374.018H531.273V370.217H528.132V374.018Z" fill="#707070"/>
<path d="M528.132 382.061H531.273V378.261H528.132V382.061Z" fill="#707070"/>
<path d="M528.132 390.105H531.273V386.305H528.132V390.105Z" fill="#707070"/>
<path d="M528.132 398.15H531.273V394.349H528.132V398.15Z" fill="#707070"/>
<path d="M528.132 406.193H531.273V402.393H528.132V406.193Z" fill="#707070"/>
<path d="M528.132 414.238H531.273V410.437H528.132V414.238Z" fill="#707070"/>
<path d="M528.132 422.282H531.273V418.481H528.132V422.282Z" fill="#707070"/>
<path d="M528.132 430.325H531.273V426.525H528.132V430.325Z" fill="#707070"/>
<path d="M528.132 438.37H531.273V434.57H528.132V438.37Z" fill="#707070"/>
</g>
<defs>
<linearGradient id="paint0_linear" x1="638.956" y1="319.443" x2="567.34" y2="339.732" gradientUnits="userSpaceOnUse">
<stop stop-color="#C3AEF2"/>
<stop offset="0.0799606" stop-color="#C3AEF2"/>
<stop offset="1" stop-color="#F3A5CD"/>
</linearGradient>
<linearGradient id="paint1_linear" x1="638.958" y1="319.443" x2="567.341" y2="339.733" gradientUnits="userSpaceOnUse">
<stop stop-color="#C3AEF2"/>
<stop offset="0.0799606" stop-color="#C3AEF2"/>
<stop offset="1" stop-color="#F3A5CD"/>
</linearGradient>
<linearGradient id="paint2_linear" x1="638.962" y1="319.443" x2="567.342" y2="339.734" gradientUnits="userSpaceOnUse">
<stop stop-color="#C3AEF2"/>
<stop offset="0.0799606" stop-color="#C3AEF2"/>
<stop offset="1" stop-color="#F3A5CD"/>
</linearGradient>
<clipPath id="clip0">
<rect width="671" height="450" fill="white"/>
</clipPath>
</defs>
</svg>
