<svg width="629" height="426" viewBox="0 0 629 426" fill="none" xmlns="http://www.w3.org/2000/svg">
<g clip-path="url(#clip0)">
<path d="M11.7268 414.073H597.552C605.154 400.808 608.754 385.562 606.239 369.819C605.146 362.979 602.948 356.19 600.75 349.398C599.239 344.73 597.726 340.059 596.572 335.367C592.725 319.742 592.773 303.807 592.821 287.987C592.895 263.209 592.969 238.716 578.073 216.139C569.819 203.628 557.518 192.77 545.353 182.032C527.809 166.547 510.549 151.312 506.124 131.735C504.266 123.517 505.014 115.46 505.763 107.402L505.765 107.388C506.054 104.268 506.344 101.148 506.481 98.0192C507.47 75.7055 499.319 50.4701 478.292 34.2372C455.249 16.448 423.416 13.7686 394.805 13.3973C393.472 13.3795 392.139 13.3652 390.805 13.3553C389.466 13.3452 388.128 13.3396 386.79 13.3396C371.971 13.3396 357.226 14.0557 343.591 17.5197C321.332 23.1746 303.824 35.5751 286.251 48.0218C276.933 54.6207 267.598 61.2326 257.527 66.8588C237.514 78.0357 214.284 85.3815 189.603 88.3319C186.539 88.6984 183.439 89.0012 180.337 89.3045H180.332C169.261 90.3868 158.156 91.4736 148.561 95.4597C127.521 104.205 118.152 124.898 112.593 144.924C111.684 148.2 110.828 151.516 109.971 154.841L109.97 154.847C105.586 171.836 101.155 189.021 89.1931 202.065C81.035 210.962 69.9791 217.24 58.8922 223.535L58.8846 223.539C51.2695 227.863 43.6403 232.196 36.9253 237.391C11.3898 257.154 0.6479 288.47 0.0269595 320.079C-0.328036 338.152 2.88333 356.298 6.09227 374.432C8.43388 387.664 10.7742 400.889 11.7268 414.073Z" fill="#E1DDFA"/>
<path d="M11.9431 413.549C11.9431 420.425 142.946 425.999 304.548 425.999C466.149 425.999 597.152 420.425 597.152 413.549C597.152 406.673 466.149 401.097 304.548 401.097C142.946 401.097 11.9431 406.673 11.9431 413.549Z" fill="#CFCAE9"/>
<path d="M423.883 368.361C423.764 367.902 420.959 356.923 422.361 340.417C422.364 340.373 422.369 340.324 422.373 340.281C419.042 338.397 403.884 329.205 409.023 320.558C409.997 318.921 411.717 317.925 413.513 317.925C414.145 317.925 414.788 318.049 415.41 318.31C415.536 318.363 415.662 318.421 415.789 318.485C418.851 320.019 421.122 324.72 421.44 328.3C421.638 330.572 422.218 334.921 422.616 337.8C423.336 331.265 424.799 323.531 427.591 315.126C424.267 312.141 413.707 301.751 418.255 294.071C419.058 292.713 420.397 291.809 421.955 291.613C422.218 291.581 422.495 291.56 422.782 291.56C424.478 291.56 426.502 292.254 427.869 294.996C430.311 299.879 427.307 308.274 428.027 313.846C430.377 307.045 433.597 299.835 437.999 292.484C435.672 289.21 430.535 280.746 434.642 274.784C436.683 271.824 438.546 270.687 440.099 270.687C442.5 270.687 444.164 273.396 444.614 276.267C445.234 280.207 440.858 284.265 439.457 290.117C441.651 286.645 444.109 283.149 446.87 279.658C447.014 279.471 448.372 277.738 451.04 275.273C449.311 272.084 444.775 262.419 449.896 256.888C452.09 254.519 453.932 253.59 455.405 253.59C458.096 253.59 459.544 256.689 459.603 259.772C459.686 264.134 453.777 267.775 452.022 274.383C455.008 271.752 459.327 268.481 465.094 265.379C463.793 262.01 461.177 253.464 466.131 249.262C468.128 247.57 469.749 246.892 471.016 246.892C473.722 246.892 474.823 249.98 474.545 252.883C474.176 256.687 468.757 259.267 466.4 264.692C469.764 262.966 473.595 261.314 477.9 259.882C477.866 255.569 478.371 240.716 486.999 240.716C487.942 240.716 488.984 240.893 490.129 241.281C490.129 241.281 492.798 242.608 493.03 245.915C493.262 249.222 490.424 253.083 487.557 254.778C485.411 256.048 481.074 258.935 479.034 260.3L479.094 260.477C479.23 260.482 479.368 260.482 479.502 260.482C482.296 260.482 484.82 259.679 487.103 258.875C489.387 258.071 491.432 257.268 493.269 257.268C493.845 257.268 494.402 257.347 494.936 257.528C499.408 259.045 502.914 263.788 494.748 267.764C493.543 268.352 492.307 268.601 491.074 268.601C485.784 268.601 480.56 263.998 478.219 261.628C469.509 264.561 462.78 268.453 457.926 271.964C457.973 271.964 458.016 271.964 458.06 271.964C460.852 271.964 463.375 271.162 465.659 270.357C467.942 269.555 469.988 268.753 471.829 268.753C472.404 268.753 472.958 268.831 473.495 269.013C477.964 270.53 481.473 275.273 473.307 279.248C472.101 279.836 470.866 280.085 469.63 280.085C464.211 280.085 458.86 275.255 456.613 272.942C450.996 277.218 448.271 280.7 448.219 280.767C445.04 284.789 442.27 288.816 439.846 292.805C446.124 292.312 450.534 287.707 454.515 287.707C454.835 287.707 455.152 287.737 455.467 287.799C460.076 288.733 464.129 293.001 456.549 298.012C455.052 299.002 453.426 299.399 451.777 299.399C446.743 299.399 441.511 295.697 439.217 293.852C434.927 301.087 431.789 308.179 429.507 314.857C430.896 313.47 433.226 310.789 434.807 307.059C436.578 302.883 438.712 300.423 441.678 300.423C442.703 300.423 443.828 300.718 445.071 301.333C449.635 303.6 450.536 316.076 431.962 316.076C431.066 316.076 430.12 316.046 429.131 315.986C426.28 324.637 424.853 332.557 424.2 339.141C425.619 336.408 427.495 332.284 428.375 328.137C429.266 323.932 431.837 322.283 434.392 322.283C436.178 322.283 437.955 323.089 439.143 324.392C441.934 327.459 439.352 337.443 423.96 341.943C422.848 357.391 425.509 367.847 425.536 367.953L423.883 368.361Z" fill="#DA1C49"/>
<path d="M485.021 323.169L510.973 323.715C520.656 309.471 527.854 297.038 527.854 297.038C498.846 289.917 474.011 291.47 453.086 297.776L440.588 321.986L439.044 302.93C386.855 325.636 363.396 376.945 363.396 376.945C363.396 376.945 453.997 371.723 473.493 364.491C481.019 361.698 490.837 351.004 500.056 338.93C493.417 332.792 485.021 323.169 485.021 323.169Z" fill="#4E4BA8"/>
<path d="M527.854 297.039C527.854 297.039 410.014 336.267 363.396 376.945C363.396 376.945 453.997 371.723 473.493 364.491C481.019 361.698 490.837 351.004 500.056 338.93C493.417 332.792 485.021 323.169 485.021 323.169L510.973 323.715C520.656 309.471 527.854 297.039 527.854 297.039Z" fill="#453A9D"/>
<path d="M532.77 324.432C528.144 316.93 517.856 327.063 515.204 329.885C511.879 328.806 508.71 328.064 505.771 327.574C510.186 325.446 514.807 326.35 517.146 324.282C519.774 321.965 520.868 318.087 514.236 318.407C508.983 318.659 505.743 324.84 504.622 327.397C499.509 326.643 495.145 326.634 491.923 326.846C496.644 323.752 502.148 324.252 504.535 321.658C507.148 318.82 507.83 314.473 500.455 315.636C494.361 316.595 491.618 324.287 490.852 326.929C487.911 327.182 486.143 327.595 485.955 327.639C482.384 328.455 478.989 329.41 475.763 330.468C479.855 327.66 484.69 327.231 486.528 324.644C488.734 321.538 488.765 317.224 481.506 319.327C475.766 320.992 474.05 328.246 473.583 331.206C466.895 333.553 460.976 336.345 455.797 339.285C458.488 335.695 464.941 332.112 466.242 328.161C467.093 325.566 465.858 324.215 464.663 323.538C463.639 322.956 462.349 322.889 461.118 323.328C454.159 325.801 454.549 336.609 454.828 339.84C448.496 343.525 443.312 347.408 439.238 350.919C440.616 349.054 442.706 346.244 443.856 344.823C445.672 342.582 446.968 338.81 446.029 336.546C445.99 336.451 445.946 336.361 445.905 336.274C445.064 334.616 442.91 334.033 440.904 334.743C433.056 337.521 436.81 349.677 437.71 352.266C437.682 352.289 437.654 352.314 437.625 352.339C427.581 361.397 423.088 369.086 422.902 369.409L424.099 369.907C424.144 369.833 428.427 362.512 437.712 353.949C449.254 358.175 456.349 353.472 456.424 350.428C456.502 347.283 452.9 344.304 448.015 347.821C445.183 349.861 441.779 351.443 439.418 352.413C443.48 348.842 448.743 344.832 455.251 341.03C467.111 351.39 474.267 343.078 472.785 339.55C471.289 335.979 468.102 336.096 463.569 338.329C460.555 339.811 457.691 340.346 456.102 340.537C461.172 337.638 466.975 334.879 473.534 332.55C473.952 335.345 475.578 342.368 481.375 342.723C488.621 343.166 488.628 338.854 486.448 336.251C484.442 333.858 478.762 334.929 474.489 332.216C478.14 330.957 482.015 329.832 486.127 328.893C486.195 328.877 489.737 328.049 495.421 328.048C495.455 330.943 496.106 338.151 501.689 339.193C508.7 340.505 509.293 336.158 507.517 333.274C505.936 330.701 500.531 331.006 496.74 328.061C501.547 328.165 507.67 328.886 514.417 331.052C514.476 334.053 515.209 341 520.682 342.024C527.692 343.334 528.285 338.99 526.513 336.105C524.908 333.496 519.371 333.848 515.573 330.765L515.635 330.637C517.596 330.745 521.753 330.987 523.721 331.199C526.348 331.485 530.171 330.484 531.882 328.442C533.593 326.399 532.77 324.432 532.77 324.432Z" fill="#DA1C49"/>
<path d="M520.911 366.496C505.714 357.43 490.194 352.305 475.053 349.926C470.361 354.717 464.609 360.343 464.609 360.343L464.575 348.699C406.27 344.145 356.238 377.312 356.238 377.312C389.18 397.625 417.796 403.954 441.513 403.13C443.106 399.119 445.371 393.127 445.371 393.127L449.112 402.619C460.517 401.459 470.664 398.674 479.481 395.135C477.495 390.21 475.425 384.586 475.425 384.586L487.717 391.446C509.353 380.706 520.911 366.496 520.911 366.496Z" fill="#453A9D"/>
<path d="M441.513 403.13C443.106 399.119 445.371 393.127 445.371 393.127L449.112 402.619C460.517 401.459 470.664 398.674 479.481 395.135C477.495 390.21 475.425 384.586 475.425 384.586L487.717 391.446C509.353 380.706 520.911 366.496 520.911 366.496C453.179 356.935 356.238 377.312 356.238 377.312C389.18 397.625 417.796 403.954 441.513 403.13Z" fill="#4E4BA8"/>
<path d="M87.2627 154.574C97.7127 148.538 102.51 165.774 103.6 170.458C108.146 171.05 112.28 171.942 115.977 172.999C112.392 168.138 106.486 166.634 105.231 162.985C103.823 158.893 105.239 153.857 112.603 157.864C118.437 161.039 117.892 169.886 117.414 173.425C123.782 175.371 128.777 177.758 132.314 179.768C129.043 173.637 122.406 171.189 121.461 166.909C120.426 162.229 122.635 156.886 130.27 162.263C136.58 166.708 134.422 177.011 133.484 180.451C136.672 182.359 138.41 183.801 138.594 183.955C142.115 186.849 145.343 189.802 148.305 192.786C145.556 187.328 140.322 184.183 140 180.215C139.614 175.451 142.545 170.501 149.398 176.89C154.821 181.946 151.791 191.185 150.288 194.826C156.322 201.182 161.17 207.627 165.071 213.834C164.462 208.249 159.546 200.609 160.781 195.375C161.591 191.942 163.932 191.075 165.767 190.955C167.335 190.853 168.858 191.485 169.964 192.663C176.219 199.315 168.342 211.457 165.798 215.003C170.506 222.692 173.76 229.978 176.003 236.233C175.713 233.342 175.255 228.982 174.917 226.724C174.382 223.164 175.494 218.14 178.126 216.066C178.237 215.98 178.346 215.899 178.456 215.824C180.556 214.389 183.421 214.906 185.228 216.82C192.291 224.306 179.636 236.144 176.826 238.611C176.84 238.654 176.855 238.7 176.87 238.741C182.128 254.614 181.974 265.877 181.965 266.347L180.252 266.26C180.254 266.149 180.393 255.427 175.664 240.535C159.559 239.03 154.68 229.756 156.689 226.234C158.764 222.595 164.931 221.166 168.098 227.871C169.934 231.758 172.738 235.436 174.77 237.842C172.581 231.527 169.319 224.053 164.495 216.132C143.804 221.463 141.341 208.03 145.459 204.807C149.628 201.544 153.191 203.431 156.843 208.47C159.267 211.821 162.175 214.004 163.86 215.1C160.058 208.999 155.318 202.656 149.419 196.391C147.019 199.359 140.332 206.497 133.456 203.719C124.864 200.247 127.823 195.31 132.108 193.53C134.234 192.647 136.889 193.507 139.946 194.367C142.552 195.1 145.449 195.834 148.558 195.485C145.249 192.041 141.592 188.626 137.535 185.292C137.469 185.237 133.985 182.346 127.488 179.221C125.457 182.516 119.756 190.399 112.654 188.527C103.733 186.175 106.045 180.881 110.057 178.555C111.989 177.437 114.615 177.887 117.625 178.336C120.194 178.721 123.041 179.104 125.972 178.514C120.402 175.993 112.904 173.455 103.698 172.224C101.566 175.627 95.9469 183.168 88.9858 181.334C80.0657 178.981 82.3774 173.685 86.3898 171.361C88.3208 170.243 90.9477 170.693 93.9568 171.144C96.6043 171.541 99.5472 171.938 102.574 171.264L102.589 171.082C100.274 170.128 95.3542 168.124 92.9556 167.285C89.7546 166.167 86.0694 162.925 85.5182 159.649C84.9673 156.375 87.2627 154.574 87.2627 154.574Z" fill="#DA1C49"/>
<path d="M193.784 123.335C186.587 123.139 189.985 132.957 191.015 135.567C188.961 137.074 187.214 138.619 185.737 140.132C185.884 136.767 188.306 134.444 187.705 132.302C187.031 129.899 184.643 127.785 182.34 131.737C180.515 134.868 183.747 139.101 185.169 140.727C182.668 143.392 180.994 145.907 179.917 147.849C179.483 143.941 181.948 140.955 180.984 138.583C179.929 135.988 177.046 133.937 175.067 138.638C173.432 142.525 177.949 147.048 179.567 148.502C178.626 150.297 178.249 151.476 178.21 151.6C177.436 153.975 176.827 156.301 176.359 158.568C175.893 155.133 177.431 152.176 176.261 150.125C174.858 147.665 171.749 145.997 170.496 150.992C169.505 154.946 174.099 158.709 176.061 160.108C175.202 164.869 174.96 169.353 175.108 173.469C173.539 170.543 173.413 165.446 171.05 163.186C169.5 161.703 168.05 161.9 167.102 162.331C166.292 162.699 165.749 163.419 165.596 164.297C164.726 169.262 172.692 173.167 175.139 174.244C175.383 179.307 176.212 183.785 177.196 187.481C176.372 185.973 175.138 183.691 174.55 182.482C173.622 180.578 171.39 178.387 169.392 178.065C169.308 178.05 169.227 178.041 169.147 178.033C167.628 177.885 166.381 178.906 166.129 180.335C165.138 185.931 175.368 188.408 177.585 188.878C177.592 188.903 177.599 188.929 177.607 188.954C180.318 198.218 184.166 203.752 184.328 203.982L185.146 203.482C185.108 203.426 181.45 198.156 178.804 189.519C186.273 184.47 185.582 178.574 183.409 177.368C181.163 176.12 177.632 177.064 178.309 181.228C178.702 183.642 178.544 186.213 178.344 187.946C177.314 184.237 176.426 179.665 176.162 174.454C188.189 171.562 184.911 164.254 181.793 163.76C178.638 163.26 177.504 165.143 177.385 168.616C177.306 170.921 176.598 172.78 176.13 173.773C175.971 169.737 176.193 165.33 177.015 160.652C179.196 161.477 184.898 163.225 187.371 160.011C190.46 155.997 187.343 154.344 184.627 154.609C182.129 154.851 180.735 158.542 177.138 159.972C177.623 157.383 178.29 154.715 179.182 151.981C179.195 151.934 179.953 149.573 182.123 146.29C184.231 147.377 189.693 149.756 192.583 146.931C196.211 143.382 193.293 141.379 190.529 141.3C188.063 141.232 186.216 144.468 182.636 145.534C184.55 142.797 187.41 139.537 191.556 136.466C193.752 137.579 199.058 139.812 201.89 137.042C205.518 133.494 202.6 131.49 199.837 131.412C197.334 131.342 195.474 134.674 191.791 135.691L191.725 135.603C192.55 134.513 194.315 132.205 195.221 131.149C196.43 129.74 197.172 127.151 196.346 125.383C195.522 123.612 193.784 123.335 193.784 123.335Z" fill="#DA1C49"/>
<path d="M194.262 314.755C192.028 312.037 189.241 308.826 185.929 305.324C153.143 253.45 77.7683 189.927 77.7683 189.927C107.593 193.448 129.795 203.512 146.326 216.595L147.299 243.242L156.291 227.496C155.91 230.74 159.229 236.177 167.799 238.969C170.215 242.277 172.418 245.648 174.417 249.033C174.495 265.055 174.647 278.244 174.798 279.11C174.92 279.802 181.869 285.663 191.257 293.311C193.158 302.344 193.94 309.886 194.262 314.755Z" fill="#4E4BA8"/>
<path d="M167.799 238.97C159.23 236.178 155.911 230.742 156.292 227.497L157.019 226.223C161.027 230.322 164.603 234.596 167.799 238.97Z" fill="#C8F4FC"/>
<path d="M185.929 305.324C171.427 289.998 146.772 269.095 113.571 259.515L108.47 270.227C108.47 270.227 105.621 263.048 103.384 257.002C98.978 256.098 94.4387 255.404 89.7685 254.95C88.0186 249.875 86.479 244.12 85.1381 238.181C93.9262 234.835 105.853 228.887 105.853 228.887L81.7064 220.369C78.9872 203.882 77.7683 189.928 77.7683 189.928C77.7683 189.928 153.143 253.451 185.929 305.324Z" fill="#453A9D"/>
<path d="M200.917 323.526C200.917 323.526 120.483 271.061 53.924 256.328C61.9252 254.958 69.6462 254.333 77.072 254.333C81.4052 254.333 85.6371 254.545 89.7685 254.949C94.4386 255.403 98.9779 256.097 103.384 257.001C105.621 263.047 108.47 270.226 108.47 270.226L113.571 259.514C146.772 269.094 171.427 289.997 185.928 305.323C189.241 308.825 192.028 312.037 194.262 314.755C198.652 320.092 200.917 323.526 200.917 323.526Z" fill="#4E4BA8"/>
<path d="M162.864 327.25C142.005 327.25 124.977 323.477 111.116 317.674C111.399 313.422 111.919 307.117 111.919 307.117L104.341 314.559C94.3378 309.526 86.2024 303.435 79.6212 297.11C83.5953 293.261 87.9514 288.803 87.9514 288.803L73.6417 290.848C58.3859 273.436 53.924 256.327 53.924 256.327C120.483 271.06 200.917 323.526 200.917 323.526C187.002 326.106 174.349 327.25 162.864 327.25Z" fill="#453A9D"/>
<path d="M390.645 284.299H385.306V63.6609H390.645V284.299Z" fill="#333333"/>
<path d="M421.495 34.938H354.02L332.921 105.878H442.59L421.495 34.938Z" fill="#FFB74D"/>
<path d="M297.879 127.507C297.879 127.507 318.871 127.504 315.922 150.773L313.659 152.288C313.659 152.288 312.55 149.813 311.559 147.513C310.569 145.211 303.839 139.897 303.839 139.897L297.879 127.507Z" fill="#FF5B7E"/>
<path d="M406.526 267.337C404.269 267.383 340.478 267.337 340.478 267.337V325.564L387.654 327.25C387.654 327.25 407.143 319.157 405.891 317.472C404.637 315.786 406.526 267.337 406.526 267.337Z" fill="#07085B"/>
<path d="M343.876 173.423L176.685 173.488L178.29 174.929C178.29 174.929 175.554 181.396 174.799 190.016C174.044 198.64 174.421 276.953 174.799 279.109C175.176 281.265 241.976 333.716 241.976 333.716L332.041 330.286C335.423 332.451 339.495 333.716 343.876 333.716C355.601 333.716 365.104 324.669 365.104 313.507V193.632C365.104 182.47 355.601 173.423 343.876 173.423Z" fill="#FEB546"/>
<path d="M190.919 312.826H165.662C160.912 312.826 157.061 309.384 157.061 305.139V181.111C157.061 176.867 160.912 173.424 165.662 173.424H190.919C195.67 173.424 199.519 176.867 199.519 181.111V305.139C199.519 309.384 195.67 312.826 190.919 312.826Z" fill="#F4A640"/>
<path d="M387.654 404.77H271.791V342.087H387.654V404.77Z" fill="#F4A640"/>
<path d="M406.526 267.338C417.724 267.632 426.994 275.938 427.647 286.281C428.161 294.445 423.419 301.629 416.261 305.219C413.799 306.452 412.21 308.779 412.21 311.369V397.221C412.21 401.392 408.556 404.77 404.049 404.77H392.257C387.75 404.77 384.093 401.392 384.093 397.221V287.486C384.093 276.158 394.198 267.015 406.526 267.338Z" fill="#FEB546"/>
<path d="M393.184 352.429H264.718C262.249 352.429 260.247 350.64 260.247 348.433V318.998C260.247 316.791 262.249 315.002 264.718 315.002H393.184C395.653 315.002 397.655 316.791 397.655 318.998V348.433C397.655 350.64 395.653 352.429 393.184 352.429Z" fill="#FEB546"/>
<path d="M384.093 315.002C385.337 314.951 386.565 314.854 387.832 314.912C389.089 314.99 390.335 315.272 391.504 315.724C392.67 316.183 393.754 316.823 394.693 317.61C395.627 318.403 396.398 319.348 396.99 320.379C397.573 321.409 397.985 322.533 398.132 323.69C398.269 324.873 398.228 325.954 398.257 327.068L398.292 333.715L398.259 340.364C398.231 341.476 398.269 342.559 398.132 343.742C397.985 344.899 397.575 346.022 396.99 347.053C396.401 348.084 395.627 349.029 394.696 349.822C393.756 350.611 392.67 351.249 391.507 351.711C390.335 352.16 389.089 352.442 387.832 352.52C386.565 352.577 385.337 352.481 384.093 352.43C385.329 352.358 386.588 352.349 387.796 352.22C389.007 352.061 390.17 351.706 391.235 351.205C393.388 350.23 395.114 348.591 396.097 346.665C396.582 345.704 396.915 344.679 397.025 343.629C397.118 342.605 397.056 341.466 397.051 340.364L397.017 333.715L397.054 327.068C397.056 325.966 397.118 324.826 397.025 323.803C396.915 322.753 396.585 321.725 396.097 320.764C395.117 318.841 393.388 317.199 391.238 316.224C390.17 315.724 389.007 315.369 387.796 315.21C386.588 315.081 385.329 315.074 384.093 315.002Z" fill="#DAEEF7"/>
<path d="M316.206 154.505C316.206 154.505 306.985 183.187 314.532 197.012C322.079 210.837 309.505 207.296 304.376 201.732C299.247 196.168 290.691 191.617 289.875 186.39C289.057 181.163 286.242 178.128 288.5 174.758C290.755 171.384 293.02 168.606 296.604 165.697C300.19 162.787 304.521 159.796 308.91 157.708C313.301 155.616 316.206 154.505 316.206 154.505Z" fill="#373365"/>
<path d="M394.618 393.279L394.494 403.175C394.483 403.994 395.217 404.662 396.13 404.671L422.066 404.936C423.942 404.955 424.685 402.771 423.114 401.854L409.707 393.431C409.707 393.431 406.735 391.278 394.618 393.279Z" fill="#DA1C49"/>
<path d="M366.006 386.069L362.216 395.371C361.904 396.138 362.345 396.987 363.207 397.266L387.577 405.197C389.342 405.771 390.851 403.931 389.708 402.601L379.545 390.476C379.545 390.476 372.419 392.122 366.006 386.069Z" fill="#EF2955"/>
<path d="M292.363 139.816L289.844 153.919L284.529 135.117C284.529 135.117 291.98 131.885 292.308 133.06C292.638 134.234 292.363 139.816 292.363 139.816Z" fill="#07085B"/>
<path d="M273.878 170.17L271.577 194.549L295.655 193.521L292.878 171.931L273.878 170.17Z" fill="#FFC3AD"/>
<path d="M294.2 182.201L292.878 171.931L273.878 170.17L273.081 178.613C276.858 181.978 283.652 185.464 294.2 182.201Z" fill="#F99893"/>
<path d="M287.137 284.532C287.137 284.532 280.486 312.51 313.399 317.81C346.312 323.113 388.89 323.991 388.89 323.991L394.59 393.903L411.771 394.688C411.771 394.688 456.014 297.551 394.776 282.365L339.743 282.605L317.081 281.159C317.081 281.159 294.15 276.099 293.882 277.063C293.612 278.026 287.677 285.017 287.137 284.532Z" fill="#322E5C"/>
<path d="M247.488 289.349C247.488 289.349 244.936 320.028 278.189 323.196C311.443 326.366 352.161 322.151 352.161 322.151L363.483 391.514L380.685 391.187C380.685 391.187 416.976 291.454 354.671 280.253L299.801 284.036L277.082 284.055C277.082 284.055 253.804 280.482 253.61 281.462C253.419 282.441 248.066 289.794 247.488 289.349Z" fill="#373365"/>
<path d="M298.346 184.825C298.346 184.825 321.005 187.396 326.762 191.576C332.515 195.754 360.214 257.138 360.214 257.138L337.194 281.241L288.273 281.561C288.273 281.561 251.585 299.237 228.565 282.525C205.544 265.814 217.413 207.644 230.722 195.111C244.03 182.577 267.771 182.898 267.771 182.898C267.771 182.898 289.354 196.395 298.346 184.825Z" fill="#E91E63"/>
<path d="M260.425 128.37C260.425 128.37 221.273 153.14 250.94 191.28C267.595 212.691 275.548 203.08 285.169 231.576C285.169 231.576 298.349 215.359 290.102 200.722C285.096 191.832 273.623 177.419 275.548 171.048C277.475 164.675 263.583 136.148 263.583 136.148L260.425 128.37Z" fill="#373365"/>
<path d="M254.462 215.358C255.272 218.703 255.767 222.1 256.12 225.508C256.318 227.209 256.402 228.919 256.511 230.631C256.57 232.342 256.614 234.055 256.588 235.77C256.514 239.196 256.302 242.634 255.641 246.028C254.999 249.407 254.062 252.799 252.305 255.853C253.487 252.594 254.072 249.246 254.498 245.887C254.916 242.527 255.06 239.138 255.109 235.751C255.187 232.362 255.094 228.968 254.973 225.57C254.839 222.174 254.665 218.773 254.462 215.358Z" fill="white"/>
<path d="M333.654 267.349C333.509 266.33 324.863 265.196 321.687 265.049C319.279 264.938 303.318 264.461 297.889 264.242L298.289 265.489L298.207 270.997L297.314 274.647C302.077 274.917 313.722 275.322 316.144 275.751C319.383 276.323 325.002 278.504 325.002 278.504C325.002 278.504 327.337 278.031 324.367 276.886C321.985 275.968 320.311 274.543 319.605 273.835C319.197 273.43 319.637 272.703 319.934 272.773C328.019 274.665 328.849 274.979 328.849 274.979C328.849 274.979 338.349 274.93 328.903 273.023C323.239 271.881 321.212 271.216 320.706 270.647C320.491 270.407 320.877 269.583 321.219 269.566C326.127 269.293 334.931 270.847 332.518 269.828C330.552 268.998 324.357 268.087 321.949 267.744C321.802 267.723 321.562 266.921 322.22 266.873C326.893 266.524 333.788 268.293 333.654 267.349Z" fill="#FFC0BB"/>
<path d="M248.933 255.008C250.922 255.441 252.883 255.936 254.882 256.31C256.864 256.732 258.876 257.041 260.869 257.414C264.878 258.069 268.901 258.639 272.936 259.144C276.974 259.616 281.02 260.055 285.076 260.403C289.114 260.762 293.222 261.069 297.221 261.267L297.76 261.295L297.876 261.713C298.22 262.923 298.444 264.106 298.615 265.316C298.785 266.522 298.855 267.739 298.855 268.956C298.842 270.174 298.725 271.394 298.5 272.599C298.254 273.803 297.853 274.984 297.317 276.116L297.27 276.213L297.183 276.265L292.739 278.929C291.261 279.816 289.775 280.697 288.273 281.561C289.666 280.566 291.073 279.586 292.486 278.613L296.721 275.691L296.586 275.841C297.032 274.749 297.345 273.618 297.518 272.461C297.675 271.306 297.747 270.137 297.709 268.966C297.665 267.797 297.536 266.628 297.353 265.468C297.162 264.313 296.906 263.142 296.566 262.044L297.221 262.487C295.108 262.437 293.108 262.316 291.052 262.182C289.009 262.046 286.967 261.901 284.929 261.71C280.854 261.334 276.789 260.88 272.742 260.304C268.699 259.72 264.675 259.014 260.688 258.173C258.701 257.719 256.712 257.283 254.759 256.732C252.787 256.236 250.858 255.619 248.933 255.008Z" fill="white"/>
<path d="M435.987 226.444H347.502L322.411 281.16H279.787C278.594 281.16 277.63 282.023 277.63 283.087C277.63 284.153 278.594 285.017 279.787 285.017H406.58L435.987 226.444Z" fill="#4E4BA8"/>
<path d="M388.355 261.248C387.678 264.258 384.744 266.272 381.797 265.743C378.846 265.216 377.004 262.35 377.677 259.338C378.352 256.329 381.287 254.317 384.238 254.844C387.185 255.37 389.028 258.237 388.355 261.248Z" fill="#DAEEF7"/>
<path d="M361.991 322.973C361.042 322.936 360.093 322.908 359.148 322.827C358.204 322.749 357.265 322.636 356.333 322.507C355.867 322.436 355.394 322.355 354.93 322.262C355.381 322.119 355.812 321.944 356.238 321.748C357.079 321.361 357.845 320.858 358.552 320.309C359.226 319.724 359.856 319.103 360.382 318.421C360.914 317.739 361.347 317.005 361.711 316.254L360.927 317.259C360.637 317.575 360.376 317.907 360.07 318.204C359.496 318.829 358.834 319.378 358.145 319.885C357.45 320.386 356.697 320.815 355.91 321.174C355.128 321.522 354.266 321.811 353.451 321.938L351.954 322.17L353.372 322.562C354.336 322.827 355.276 322.966 356.238 323.083C357.195 323.203 358.158 323.251 359.117 323.282C360.078 323.302 361.04 323.307 361.996 323.254C362.952 323.201 363.906 323.127 364.853 323.009C363.895 323.001 362.944 323.012 361.991 322.973Z" fill="#DAEEF7"/>
<path d="M256.626 267.337H151.976C151.575 267.328 151.171 267.328 150.764 267.337C139.565 267.632 130.295 275.937 129.643 286.283C129.128 294.447 133.871 301.634 141.028 305.221C143.49 306.455 145.078 308.781 145.078 311.37V397.235C145.078 401.404 148.733 404.784 153.24 404.784H158.57H165.033H263.867L256.626 267.337Z" fill="#F4A640"/>
<path d="M256.627 267.337C245.425 267.632 236.156 275.937 235.505 286.283C234.989 294.447 239.732 301.634 246.891 305.222C249.351 306.455 250.94 308.781 250.94 311.371V397.235C250.94 401.404 254.594 404.784 259.101 404.784H270.895C275.402 404.784 279.056 401.404 279.056 397.235V287.489C279.056 276.161 268.952 267.014 256.627 267.337Z" fill="#FEB546"/>
<path d="M324.326 209.58C325.493 212.307 326.553 215.045 327.5 217.804C328.429 220.567 329.252 223.351 329.799 226.174C330.103 227.58 330.299 228.998 330.433 230.418C330.596 231.841 330.611 233.266 330.552 234.686C330.436 237.534 325.714 250.923 324.326 253.571C326.287 251.22 331.424 237.718 331.773 234.774C332.17 231.818 331.899 228.83 331.339 225.927C331.032 224.477 330.668 223.04 330.219 221.625C329.749 220.216 329.252 218.816 328.65 217.451C327.471 214.716 326.076 212.054 324.326 209.58Z" fill="white"/>
<path d="M255.94 146.595C255.94 146.595 253.86 123.997 271.577 115.835C289.872 107.403 311.275 115.046 317.078 131.555C322.881 148.063 314.247 156.359 314.247 156.359C314.247 156.359 297.484 160.574 289.872 159.485C282.264 158.399 266.979 150.704 264.006 149.724C261.034 148.743 255.94 146.595 255.94 146.595Z" fill="#373365"/>
<path d="M308.963 153.741C307.516 156.417 308.285 159.425 310.679 160.461C313.077 161.496 316.191 160.165 317.638 157.488C319.088 154.814 318.32 151.807 315.922 150.772C313.528 149.737 310.41 151.067 308.963 153.741Z" fill="#F99893"/>
<path d="M306.941 169.76C307.792 168.619 308.527 167.398 309.139 166.111C310.86 162.663 311.872 158.953 312.46 155.702C312.583 155.003 312.756 154.314 312.942 153.627C313.691 150.853 313.889 147.879 313.37 144.778C311.696 134.801 302.714 126.849 291.529 125.468C276.463 123.608 263.191 133.572 262.251 146.774C260.704 145.884 258.913 145.599 257.28 146.143C254.145 147.187 252.787 150.869 254.247 154.369C255.708 157.869 259.432 159.859 262.567 158.817C263 158.671 263.397 158.471 263.761 158.231C264.244 169.538 273.929 178.791 286.298 179.309C292.347 179.561 297.972 177.679 302.34 174.38C302.632 174.189 302.939 173.963 303.262 173.699C304.683 172.545 305.896 171.205 306.941 169.76Z" fill="#FFC3AD"/>
<path d="M293.701 148.331C293.751 149.648 293.764 150.934 293.839 152.193C293.931 153.424 294.08 154.74 294.633 155.607L294.744 155.746C294.785 155.799 294.796 155.826 294.881 155.919C295.012 156.085 295.169 156.223 295.271 156.414C295.493 156.774 295.647 157.191 295.655 157.623C295.689 158.494 295.172 159.273 294.53 159.751C293.217 160.737 291.514 160.832 290.102 160.521C291.541 160.295 292.92 159.852 293.722 159.013C294.096 158.596 294.341 158.13 294.257 157.692C294.228 157.478 294.145 157.265 294.004 157.07C293.957 156.964 293.839 156.876 293.766 156.777L293.58 156.557L293.377 156.304C292.915 155.6 292.768 154.888 292.68 154.201C292.607 153.51 292.617 152.839 292.69 152.175C292.832 150.851 293.147 149.557 293.701 148.331Z" fill="#F99893"/>
<path d="M285.166 150.071C285.109 151.178 284.057 152.034 282.818 151.981C281.58 151.93 280.623 150.992 280.679 149.883C280.739 148.775 281.789 147.921 283.027 147.973C284.268 148.024 285.226 148.965 285.166 150.071Z" fill="#333333"/>
<path d="M304.373 152.005C304.317 153.113 303.264 153.967 302.025 153.917C300.786 153.864 299.829 152.926 299.887 151.819C299.945 150.71 300.995 149.857 302.234 149.907C303.476 149.961 304.433 150.899 304.373 152.005Z" fill="#333333"/>
<path d="M287.986 145.539C286.843 145.222 285.767 144.983 284.702 144.836C283.639 144.69 282.596 144.665 281.582 144.773C280.574 144.895 279.56 145.089 278.581 145.486C278.066 145.629 277.612 145.903 277.087 146.098C276.582 146.325 276.115 146.611 275.548 146.832C275.831 146.366 276.162 145.91 276.546 145.493C276.969 145.114 277.374 144.688 277.903 144.4C278.891 143.728 280.132 143.343 281.384 143.205C282.643 143.069 283.931 143.233 285.073 143.643C286.211 144.061 287.251 144.681 287.986 145.539Z" fill="#FF5B7E"/>
<path d="M297.879 146.535C298.787 145.82 299.943 145.391 301.148 145.179C302.358 144.976 303.659 145.038 304.864 145.389C306.06 145.744 307.196 146.337 308.019 147.167C308.476 147.54 308.78 148.031 309.113 148.474C309.399 148.951 309.624 149.454 309.799 149.961C309.294 149.645 308.897 149.283 308.45 148.974C307.978 148.693 307.593 148.345 307.116 148.112C306.246 147.553 305.292 147.19 304.327 146.894C303.357 146.611 302.33 146.454 301.254 146.415C300.178 146.373 299.071 146.424 297.879 146.535Z" fill="#FF5B7E"/>
<path d="M262.873 147.513C262.873 147.513 263.862 141.797 271.577 137.75C279.291 133.704 291.142 143.953 307.789 133.644C307.789 133.644 305.472 124.726 286.227 123.081C266.979 121.438 257.486 136.454 257.279 146.143C257.279 146.143 259.855 145.147 262.873 147.513Z" fill="#373365"/>
<path d="M307.789 133.644C307.789 133.644 308.958 133.088 308.424 128.172C308.424 128.172 309.673 130.543 308.672 134.649C307.144 140.913 307.789 133.644 307.789 133.644Z" fill="#FFC0BB"/>
<path d="M241.352 153.025C241.352 153.025 241.726 124.216 274.616 114.595L250.702 141.29L244.9 156.59L241.352 153.025Z" fill="#373365"/>
<path d="M471.477 208.967H439.643C426.257 208.967 415.405 199.269 415.405 187.305V175.334C415.405 163.372 426.257 153.675 439.643 153.675H471.477C484.863 153.675 495.716 163.372 495.716 175.334V187.305C495.716 199.269 484.863 208.967 471.477 208.967Z" fill="#4E4BA8"/>
<path d="M419.138 207.296C419.138 209.511 417.126 211.307 414.645 211.307C412.166 211.307 410.156 209.511 410.156 207.296C410.156 205.078 412.166 203.281 414.645 203.281C417.126 203.281 419.138 205.078 419.138 207.296Z" fill="#E91E63"/>
<path d="M405.948 215.727C405.948 217.297 404.524 218.57 402.766 218.57C401.009 218.57 399.585 217.297 399.585 215.727C399.585 214.157 401.009 212.884 402.766 212.884C404.524 212.884 405.948 214.157 405.948 215.727Z" fill="#E91E63"/>
<path d="M480.312 171.283H429.392C429.123 171.283 428.904 171.089 428.904 170.85V168.886C428.904 168.645 429.123 168.452 429.392 168.452H480.312C480.58 168.452 480.8 168.645 480.8 168.886V170.85C480.8 171.089 480.58 171.283 480.312 171.283Z" fill="white"/>
<path d="M485.178 182.966H429.392C429.123 182.966 428.904 182.77 428.904 182.53V180.566C428.904 180.326 429.123 180.132 429.392 180.132H485.178C485.447 180.132 485.664 180.326 485.664 180.566V182.53C485.664 182.77 485.447 182.966 485.178 182.966Z" fill="white"/>
<path d="M475.322 194.19H429.389C429.123 194.19 428.904 193.996 428.904 193.757V191.792C428.904 191.552 429.123 191.357 429.389 191.357H475.322C475.591 191.357 475.81 191.552 475.81 191.792V193.757C475.81 193.996 475.591 194.19 475.322 194.19Z" fill="white"/>
<path d="M291.535 169.137C291.402 169.137 291.269 169.134 291.129 169.125C286.893 168.895 286.779 165.406 286.779 165.406C286.779 165.406 287.509 165.171 288.559 165.171C289.459 165.171 290.595 165.347 291.697 165.992C291.697 165.992 292.878 165.331 294.271 165.331C294.937 165.331 295.652 165.483 296.308 165.927C296.308 165.927 295.425 169.137 291.535 169.137Z" fill="#FDA8A3"/>
<path d="M284.56 164.177C285.038 164.523 285.538 164.844 286.062 165.123C286.58 165.411 287.117 165.67 287.674 165.886C288.784 166.321 289.952 166.628 291.149 166.718C292.345 166.813 293.555 166.679 294.707 166.366C295.859 166.036 296.948 165.522 297.972 164.908C297.515 165.28 297.022 165.619 296.499 165.919C295.974 166.22 295.407 166.456 294.827 166.667C294.239 166.864 293.625 167.006 293 167.087C292.373 167.158 291.741 167.173 291.109 167.131C289.852 167.028 288.626 166.693 287.52 166.174C286.412 165.655 285.388 164.996 284.56 164.177Z" fill="#F99893"/>
<path d="M259.101 404.618L267.778 404.484L269.948 404.459C270.676 404.447 271.391 404.461 272.082 404.343C273.481 404.149 274.793 403.571 275.877 402.751C276.94 401.914 277.794 400.834 278.249 399.615C278.499 399.015 278.617 398.377 278.687 397.74C278.729 397.11 278.703 396.431 278.698 395.764L278.592 387.75L278.326 355.687C278.21 345 278.231 334.314 278.189 323.627L278.102 291.565L278.11 287.557L278.014 285.637C277.941 285.003 277.813 284.373 277.717 283.742C277.188 281.231 276.11 278.821 274.561 276.698C271.486 272.433 266.496 269.372 261.018 268.472L258.951 268.22C258.257 268.183 257.556 268.183 256.856 268.16L252.527 268.146L243.847 268.126C238.062 268.123 232.274 268.088 226.49 268.042L191.773 267.796C180.202 267.648 168.631 267.563 157.061 267.363C168.631 267.164 180.201 267.076 191.768 266.931L226.474 266.684C232.259 266.639 238.042 266.604 243.826 266.6L252.504 266.581L256.848 266.574C257.594 266.592 258.343 266.592 259.09 266.629L261.328 266.889C267.272 267.842 272.706 271.132 276.073 275.753C277.769 278.053 278.961 280.673 279.552 283.407C279.662 284.094 279.804 284.781 279.884 285.473L280.004 287.557L280.01 291.565L279.923 323.627C279.882 334.314 279.903 345 279.787 355.687L279.521 387.75L279.415 395.764C279.402 396.435 279.412 397.09 279.351 397.795C279.255 398.483 279.108 399.172 278.819 399.813C278.295 401.113 277.348 402.248 276.195 403.113C275.018 403.956 273.615 404.535 272.141 404.705C271.406 404.811 270.665 404.782 269.948 404.776L267.778 404.749L259.101 404.618Z" fill="white"/>
<path fill-rule="evenodd" clip-rule="evenodd" d="M514.694 13.3408C523.169 13.2819 529.983 19.0633 532.61 26.3115C535.244 33.583 533.535 41.8625 526.66 46.3626C519.771 50.8723 510.359 49.9512 503.569 45.3213C497.197 40.9764 495.223 33.419 497.611 26.5547C500.091 19.4268 506.392 13.3985 514.694 13.3408Z" fill="#EDE7F6"/>
<path fill-rule="evenodd" clip-rule="evenodd" d="M530.545 76.22C534.781 76.2487 538.188 73.4321 539.502 69.9009C540.82 66.3584 539.965 62.3249 536.527 60.1324C533.082 57.9355 528.377 58.3841 524.981 60.6397C521.795 62.7565 520.809 66.4383 522.002 69.7825C523.242 73.255 526.392 76.1919 530.545 76.22Z" fill="#EDE7F6"/>
<path fill-rule="evenodd" clip-rule="evenodd" d="M486.753 17.5228C490.99 17.5514 494.397 14.7348 495.711 11.2036C497.028 7.66119 496.174 3.62757 492.736 1.4352C489.291 -0.761828 484.586 -0.313094 481.19 1.9425C478.004 4.05924 477.018 7.74108 478.211 11.0852C479.451 14.5578 482.601 17.4947 486.753 17.5228Z" fill="#EDE7F6"/>
<path fill-rule="evenodd" clip-rule="evenodd" d="M623.782 341.083C621.435 339.677 618.352 340.17 616.133 341.756C613.907 343.348 612.684 345.932 613.673 348.312C614.665 350.697 617.474 351.983 620.314 351.807C622.98 351.642 625.08 349.863 625.824 347.56C626.597 345.17 626.081 342.46 623.782 341.083Z" fill="#EDE7F6"/>
<path fill-rule="evenodd" clip-rule="evenodd" d="M614.825 287.722C612.478 286.315 609.395 286.808 607.176 288.395C604.95 289.987 603.727 292.571 604.716 294.951C605.708 297.335 608.517 298.621 611.357 298.445C614.023 298.281 616.124 296.501 616.868 294.199C617.64 291.809 617.124 289.098 614.825 287.722Z" fill="#EDE7F6"/>
<path fill-rule="evenodd" clip-rule="evenodd" d="M605.114 327.155C600.627 324.512 599.571 319.185 602.431 315.308C605.198 311.556 610.996 310.737 615.336 313.293C619.805 315.925 621.653 321.088 618.805 324.95C615.867 328.934 609.724 329.87 605.114 327.155Z" fill="#EDE7F6"/>
</g>
<defs>
<clipPath id="clip0">
<rect width="629" height="426" fill="white"/>
</clipPath>
</defs>
</svg>
