<svg width="64" height="64" viewBox="0 0 64 64" fill="none" xmlns="http://www.w3.org/2000/svg">
<path fill-rule="evenodd" clip-rule="evenodd" d="M0.685259 38.2137C-1.08566 28.7137 4.08255 19.6903 10.5005 12.4657C16.6459 5.54795 24.8255 0.683082 34.0785 0.623259C43.6949 0.561087 53.4005 4.30447 58.9582 12.1524C64.338 19.7491 63.1955 29.5757 60.9854 38.6182C58.7416 47.7984 55.3575 57.4056 46.8779 61.578C38.1382 65.8783 27.8996 63.5711 19.2077 59.1748C10.4539 54.7471 2.48299 47.8574 0.685259 38.2137Z" fill="#FFC136"/>
<path fill-rule="evenodd" clip-rule="evenodd" d="M5.61796 18.8076C9.75804 10.7492 18.7682 7.02712 27.6723 5.35564C36.1982 3.75516 45.0538 4.84404 51.9469 10.1107C59.1107 15.5842 64.1564 23.9299 63.7715 32.9372C63.3989 41.6561 56.9118 48.2843 50.0833 53.7185C43.1508 59.2355 35.128 64.4144 26.4476 62.64C17.501 60.8113 11.2359 53.2243 7.31646 44.9766C3.36911 36.67 1.41522 26.9878 5.61796 18.8076Z" fill="#7E57C2"/>
<path d="M32.2175 14.9716C30.7856 14.9716 29.4925 15.6519 27.7013 16.5937C25.3948 17.8066 22.2333 19.4681 16.883 20.6427L16.3154 20.7669V21.3486C16.3154 43.3694 31.7579 50.7532 31.914 50.8248L32.2331 50.9716L32.5451 50.8121C32.7012 50.7326 48.1197 42.6357 48.1197 21.3486V20.7669L47.5521 20.6427C42.2018 19.4681 39.0403 17.8066 36.7338 16.5937C34.9426 15.6519 33.6495 14.9716 32.2175 14.9716ZM32.2175 22.8521C34.6029 22.8521 36.5545 24.8754 36.5545 27.333V28.6347H37.3493C38.1444 28.6347 38.723 29.2855 38.723 30.0083V37.3806C38.723 38.1034 38.0721 38.7542 37.3493 38.7542H27.0858C26.2907 38.7542 25.7121 38.1037 25.7121 37.3086V30.0083C25.7121 29.2855 26.2907 28.6347 27.0858 28.6347H27.8806V27.333C27.8806 24.8754 29.8322 22.8521 32.2175 22.8521ZM32.2175 24.2977C30.6273 24.2977 29.3263 25.6705 29.3263 27.333V28.6347H35.1088V27.333C35.1088 25.6705 33.8078 24.2977 32.2175 24.2977ZM32.2175 32.2488C31.6393 32.2488 31.2053 32.6828 31.2053 33.261C31.2053 33.5502 31.3499 33.767 31.5667 33.9839V34.9227C31.5667 35.2841 31.8561 35.5735 32.2175 35.5735C32.579 35.5735 32.8684 35.2841 32.8684 34.9227V33.9839C33.0852 33.767 33.2298 33.5502 33.2298 33.261C33.2298 32.6828 32.7958 32.2488 32.2175 32.2488Z" fill="white"/>
</svg>
