<svg width="63" height="64" viewBox="0 0 63 64" fill="none" xmlns="http://www.w3.org/2000/svg">
<path fill-rule="evenodd" clip-rule="evenodd" d="M0.752155 38.2856C-1.01877 28.7857 4.14944 19.7623 10.5674 12.5377C16.7128 5.61994 24.8924 0.755073 34.1454 0.69525C43.7617 0.633078 53.4674 4.37646 59.0251 12.2244C64.4049 19.8211 63.2624 29.6477 61.0523 38.6902C58.8085 47.8704 55.4243 57.4776 46.9448 61.65C38.2051 65.9503 27.9665 63.6431 19.2746 59.2468C10.5208 54.8191 2.54988 47.9294 0.752155 38.2856Z" fill="#FFC136"/>
<path fill-rule="evenodd" clip-rule="evenodd" d="M15.5724 5.98157C23.1861 1.07162 32.8505 2.35163 41.3979 5.3547C49.5823 8.23023 56.7078 13.5998 60.0454 21.6069C63.5141 29.9284 63.7127 39.6787 58.8769 47.2877C54.196 54.653 45.2643 57.1511 36.6338 58.4445C27.8718 59.7576 18.3345 60.2328 11.7033 54.3571C4.86866 48.3011 3.23476 38.5984 3.96278 29.4958C4.696 20.3283 7.8434 10.9658 15.5724 5.98157Z" fill="#7E57C2"/>
<path d="M48.8365 22.5055C46.7882 17.9059 44.2761 15.4758 41.5699 15.4758C38.7151 15.4758 37.0532 16.4608 35.7174 17.2517C34.7151 17.8448 33.9916 18.2731 32.9073 18.2731C31.8284 18.2731 31.105 17.8448 30.1036 17.2517C28.7678 16.4608 27.1058 15.4758 24.2511 15.4758C21.543 15.4758 19.03 17.9059 16.9807 22.5055C14.0358 29.118 11.9902 41.2048 15.4891 45.0928C16.5798 46.3056 17.7862 46.5142 18.599 46.4705C21.8474 46.3074 24.939 42.0923 27.4238 38.7045C28.0425 37.8617 28.7906 36.8411 29.1815 36.4338H36.6395C37.0304 36.8411 37.7785 37.8617 38.3971 38.7045C40.8819 42.0923 43.9727 46.3074 47.2219 46.4705C47.283 46.4732 47.3459 46.4751 47.4105 46.4751C48.2169 46.4751 49.3222 46.2145 50.3318 45.0928C53.8289 41.2057 51.7824 29.1189 48.8365 22.5055ZM27.8958 29.1435H26.529V30.5103C26.529 31.2656 25.9167 31.877 25.1622 31.877C24.4078 31.877 23.7955 31.2656 23.7955 30.5103V29.1435H22.4287C21.6742 29.1435 21.0619 28.5321 21.0619 27.7767C21.0619 27.0213 21.6742 26.4099 22.4287 26.4099H23.7955V25.0432C23.7955 24.2878 24.4078 23.6764 25.1622 23.6764C25.9167 23.6764 26.529 24.2878 26.529 25.0432V26.4099H27.8958C28.6502 26.4099 29.2626 27.0213 29.2626 27.7767C29.2626 28.5321 28.6502 29.1435 27.8958 29.1435ZM37.0076 29.1435C36.2531 29.1435 35.6408 28.5312 35.6408 27.7767C35.6408 27.0223 36.2531 26.4099 37.0076 26.4099C37.7621 26.4099 38.3744 27.0223 38.3744 27.7767C38.3744 28.5312 37.7621 29.1435 37.0076 29.1435ZM40.6523 32.7882C39.8979 32.7882 39.2855 32.1759 39.2855 31.4214C39.2855 30.667 39.8979 30.0547 40.6523 30.0547C41.4068 30.0547 42.0191 30.667 42.0191 31.4214C42.0191 32.1759 41.4068 32.7882 40.6523 32.7882ZM40.6523 25.4988C39.8979 25.4988 39.2855 24.8864 39.2855 24.132C39.2855 23.3775 39.8979 22.7652 40.6523 22.7652C41.4068 22.7652 42.0191 23.3775 42.0191 24.132C42.0191 24.8864 41.4068 25.4988 40.6523 25.4988ZM44.297 29.1435C43.5426 29.1435 42.9303 28.5312 42.9303 27.7767C42.9303 27.0223 43.5426 26.4099 44.297 26.4099C45.0515 26.4099 45.6638 27.0223 45.6638 27.7767C45.6638 28.5312 45.0515 29.1435 44.297 29.1435Z" fill="white"/>
</svg>
