<svg width="100" height="100" viewBox="0 0 100 100" fill="none" xmlns="http://www.w3.org/2000/svg">
<g style="mix-blend-mode:luminosity" opacity="0.6">
<path style="mix-blend-mode:luminosity" opacity="0.6" d="M35.205 0.000265694C15.551 0.104566 5.68395 33.9063 2.00095 51.2813C-1.68105 68.6565 2.167 104.3 30.731 99.572C35.348 98.808 36.426 98.651 40.232 96.741C47.006 93.34 55.024 90.948 62.269 90.225C65.24 89.929 68.996 88.948 70.985 88.591C86.927 85.724 103.197 70.2784 98.271 54.0944C94.572 41.9405 83.735 37.0479 72.881 37.7206C66.921 38.0899 60.577 34.5934 59.305 30.7307C55.162 18.1493 50.396 -0.0802343 35.205 0.000265694Z" fill="url(#paint0_linear)"/>
<g style="mix-blend-mode:luminosity" opacity="0.1">
<path d="M49.631 10.9663L24.968 21.029C24.158 21.3594 24.158 22.5067 24.968 22.8374L49.631 32.9001C49.868 32.9966 50.132 32.9966 50.369 32.9001L75.032 22.8374C75.842 22.5069 75.842 21.3596 75.032 21.029L50.369 10.9663C50.132 10.8698 49.868 10.8698 49.631 10.9663Z" fill="#590BB2"/>
</g>
<g style="mix-blend-mode:luminosity" opacity="0.1">
<path d="M94.139 78.3691V83.293C94.139 84.371 93.266 85.246 92.186 85.246H7.81403C6.73403 85.246 5.86102 84.371 5.86102 83.293V78.3691C5.86102 77.291 6.73403 76.416 7.81403 76.416H34.378C34.661 76.416 34.931 76.5391 35.116 76.7535L37.631 79.6582H62.369L64.884 76.7535C65.069 76.5393 65.339 76.416 65.622 76.416H92.186C93.266 76.416 94.139 77.291 94.139 78.3691Z" fill="#590BB2"/>
</g>
<g style="mix-blend-mode:luminosity" opacity="0.6">
<path d="M88.29 75.7685H11.71V26.9923C11.71 25.1359 13.215 23.631 15.071 23.631H84.929C86.785 23.631 88.29 25.1359 88.29 26.9923V75.7685Z" fill="#C182F9"/>
</g>
<g style="mix-blend-mode:luminosity" opacity="0.6">
<path d="M94.139 73.0957V78.0195C94.139 79.0977 93.266 79.9727 92.186 79.9727H7.81403C6.73403 79.9727 5.86102 79.0977 5.86102 78.0195V73.0957C5.86102 72.0176 6.73403 71.1426 7.81403 71.1426H34.378C34.661 71.1426 34.931 71.2656 35.116 71.4801L37.631 74.3848H62.369L64.884 71.4801C65.069 71.2658 65.339 71.1426 65.622 71.1426H92.186C93.266 71.1426 94.139 72.0176 94.139 73.0957Z" fill="#E2CCFF"/>
</g>
<g style="mix-blend-mode:luminosity" opacity="0.6">
<path d="M82.779 66.4604H17.221C16.682 66.4604 16.245 66.0231 16.245 65.4838V29.4618C16.245 28.9226 16.682 28.4854 17.221 28.4854H82.779C83.318 28.4854 83.755 28.9226 83.755 29.4618V65.4838C83.755 66.0231 83.318 66.4604 82.779 66.4604Z" fill="white"/>
</g>
<g style="mix-blend-mode:luminosity" opacity="0.6">
<path d="M83.755 41.2111V29.4618C83.755 28.9226 83.318 28.4854 82.779 28.4854H17.221C16.682 28.4854 16.245 28.9226 16.245 29.4618V41.2111H83.755Z" fill="#FFD5B8"/>
</g>
<g style="mix-blend-mode:luminosity" opacity="0.6">
<path d="M78.231 50.3728H43.949C43.41 50.3728 42.973 49.9355 42.973 49.3962C42.973 48.857 43.41 48.4197 43.949 48.4197H78.231C78.77 48.4197 79.207 48.857 79.207 49.3962C79.207 49.9355 78.77 50.3728 78.231 50.3728Z" fill="#FFA052"/>
</g>
<g style="mix-blend-mode:luminosity" opacity="0.6">
<path d="M78.231 53.7912H43.949C43.41 53.7912 42.973 53.3539 42.973 52.8146C42.973 52.2753 43.41 51.838 43.949 51.838H78.231C78.77 51.838 79.207 52.2753 79.207 52.8146C79.207 53.3539 78.77 53.7912 78.231 53.7912Z" fill="#FFA052"/>
</g>
<g style="mix-blend-mode:luminosity" opacity="0.6">
<path d="M78.231 57.2097H43.949C43.41 57.2097 42.973 56.7724 42.973 56.2332C42.973 55.6939 43.41 55.2566 43.949 55.2566H78.231C78.77 55.2566 79.207 55.6939 79.207 56.2332C79.207 56.7724 78.77 57.2097 78.231 57.2097Z" fill="#FFA052"/>
</g>
<g style="mix-blend-mode:luminosity" opacity="0.6">
<path d="M78.231 58.6753C78.77 58.6753 79.207 59.1126 79.207 59.6519C79.207 60.1911 78.77 60.6284 78.231 60.6284H43.949C43.41 60.6284 42.973 60.1911 42.973 59.6519C42.973 59.1126 43.41 58.6753 43.949 58.6753H78.231Z" fill="#FFA052"/>
</g>
<g style="mix-blend-mode:luminosity" opacity="0.6">
<path d="M31.441 50.3728H21.769C21.23 50.3728 20.793 49.9355 20.793 49.3962C20.793 48.857 21.23 48.4197 21.769 48.4197H31.441C31.981 48.4197 32.418 48.857 32.418 49.3962C32.418 49.9355 31.98 50.3728 31.441 50.3728Z" fill="#C182F9"/>
</g>
<g style="mix-blend-mode:luminosity" opacity="0.6">
<path d="M36.715 53.7912H21.769C21.23 53.7912 20.793 53.3539 20.793 52.8146C20.793 52.2753 21.23 51.838 21.769 51.838H36.715C37.254 51.838 37.691 52.2753 37.691 52.8146C37.691 53.3539 37.254 53.7912 36.715 53.7912Z" fill="#C182F9"/>
</g>
<g style="mix-blend-mode:luminosity" opacity="0.6">
<path d="M36.715 57.2094H21.769C21.23 57.2094 20.793 56.7721 20.793 56.2328C20.793 55.6936 21.23 55.2562 21.769 55.2562H36.715C37.254 55.2562 37.691 55.6936 37.691 56.2328C37.691 56.7721 37.254 57.2094 36.715 57.2094Z" fill="#C182F9"/>
</g>
<g style="mix-blend-mode:luminosity" opacity="0.6">
<path d="M36.715 60.6279H21.769C21.23 60.6279 20.793 60.1906 20.793 59.6514C20.793 59.1121 21.23 58.6748 21.769 58.6748H36.715C37.254 58.6748 37.691 59.1121 37.691 59.6514C37.691 60.1906 37.254 60.6279 36.715 60.6279Z" fill="#C182F9"/>
</g>
<g style="mix-blend-mode:luminosity" opacity="0.6">
<path d="M22.071 46.8469C22.611 46.8469 23.048 46.4097 23.048 45.8704C23.048 45.331 22.611 44.8938 22.071 44.8938C21.532 44.8938 21.095 45.331 21.095 45.8704C21.095 46.4097 21.532 46.8469 22.071 46.8469Z" fill="#FFA052"/>
</g>
<g style="mix-blend-mode:luminosity" opacity="0.6">
<path d="M25.245 46.8469C25.785 46.8469 26.222 46.4097 26.222 45.8704C26.222 45.331 25.785 44.8938 25.245 44.8938C24.706 44.8938 24.269 45.331 24.269 45.8704C24.269 46.4097 24.706 46.8469 25.245 46.8469Z" fill="#FFA052"/>
</g>
<g style="mix-blend-mode:luminosity" opacity="0.6">
<path d="M19.629 12.3734H19.043V11.7875C19.043 11.2482 18.606 10.8109 18.066 10.8109C17.527 10.8109 17.09 11.2482 17.09 11.7875V12.3734H16.504C15.965 12.3734 15.527 12.8107 15.527 13.35C15.527 13.8893 15.965 14.3266 16.504 14.3266H17.09V14.9125C17.09 15.4518 17.527 15.8891 18.066 15.8891C18.606 15.8891 19.043 15.4518 19.043 14.9125V14.3266H19.629C20.168 14.3266 20.605 13.8893 20.605 13.35C20.605 12.8107 20.168 12.3734 19.629 12.3734Z" fill="#FFA052"/>
</g>
<g style="mix-blend-mode:luminosity" opacity="0.6">
<path d="M33.268 90.137H32.682V89.551C32.682 89.012 32.245 88.574 31.706 88.574C31.166 88.574 30.729 89.012 30.729 89.551V90.137H30.143C29.604 90.137 29.167 90.574 29.167 91.113C29.167 91.653 29.604 92.09 30.143 92.09H30.729V92.676C30.729 93.215 31.166 93.652 31.706 93.652C32.245 93.652 32.682 93.215 32.682 92.676V92.09H33.268C33.807 92.09 34.245 91.653 34.245 91.113C34.245 90.574 33.808 90.137 33.268 90.137Z" fill="#FFA052"/>
</g>
<g style="mix-blend-mode:luminosity" opacity="0.6">
<path d="M84.341 15.8823H83.755V15.2964C83.755 14.7571 83.318 14.3198 82.779 14.3198C82.239 14.3198 81.802 14.7571 81.802 15.2964V15.8823H81.216C80.677 15.8823 80.24 16.3196 80.24 16.8589C80.24 17.3981 80.677 17.8354 81.216 17.8354H81.802V18.4214C81.802 18.9606 82.239 19.398 82.779 19.398C83.318 19.398 83.755 18.9606 83.755 18.4214V17.8354H84.341C84.881 17.8354 85.318 17.3981 85.318 16.8589C85.318 16.3196 84.881 15.8823 84.341 15.8823Z" fill="#C182F9"/>
</g>
<g style="mix-blend-mode:luminosity" opacity="0.6">
<path d="M28.168 9.50527C27.918 9.50527 27.668 9.40997 27.477 9.21937L26.605 8.34747L25.733 9.21937C25.352 9.60057 24.734 9.60057 24.352 9.21937C23.971 8.83787 23.971 8.21957 24.352 7.83827L25.915 6.27577C26.296 5.89457 26.914 5.89457 27.296 6.27577L28.858 7.83827C29.24 8.21977 29.24 8.83807 28.858 9.21937C28.668 9.40977 28.418 9.50527 28.168 9.50527Z" fill="#FDD250"/>
</g>
<g style="mix-blend-mode:luminosity" opacity="0.6">
<path d="M44.975 94.462C44.725 94.462 44.475 94.367 44.284 94.177L43.412 93.305L42.54 94.177C42.159 94.558 41.541 94.558 41.159 94.177C40.778 93.795 40.778 93.177 41.159 92.795L42.722 91.233C43.103 90.852 43.721 90.852 44.103 91.233L45.665 92.795C46.047 93.177 46.047 93.795 45.665 94.177C45.475 94.367 45.225 94.462 44.975 94.462Z" fill="#C182F9"/>
</g>
<g style="mix-blend-mode:luminosity" opacity="0.6">
<path d="M67.447 18.5082V37.1195C67.447 37.516 67.207 37.8734 66.838 38.0238L50.369 44.7445C50.133 44.8402 49.867 44.8402 49.631 44.7445L33.162 38.0238C32.793 37.8734 32.553 37.516 32.553 37.1195V18.5082H67.447Z" fill="#B557FF"/>
</g>
<g style="mix-blend-mode:luminosity" opacity="0.6">
<path d="M67.447 18.5082V23.8226L51.477 30.3383C51.006 30.5316 50.508 30.6293 50 30.6293C49.492 30.6293 48.994 30.5316 48.523 30.3383L32.553 23.8226V18.5082H67.447Z" fill="#9526DD"/>
</g>
<g style="mix-blend-mode:luminosity" opacity="0.6">
<path d="M49.631 5.69261L24.968 15.7553C24.158 16.0858 24.158 17.2331 24.968 17.5637L49.631 27.6264C49.868 27.7229 50.132 27.7229 50.369 27.6264L75.032 17.5637C75.842 17.2332 75.842 16.086 75.032 15.7553L50.369 5.69261C50.132 5.59611 49.868 5.59611 49.631 5.69261Z" fill="#C182F9"/>
</g>
<g style="mix-blend-mode:luminosity" opacity="0.6">
<path d="M64.368 61.9144H59.461C58.921 61.9144 58.484 61.4771 58.484 60.9378V55.2681C58.484 53.3738 60.02 51.838 61.914 51.838C63.809 51.838 65.344 53.3738 65.344 55.2681V60.9378C65.344 61.4771 64.907 61.9144 64.368 61.9144Z" fill="#FFC136"/>
</g>
<g style="mix-blend-mode:luminosity" opacity="0.6">
<path d="M61.914 53.4632C63.993 53.4632 65.678 51.7783 65.678 49.6998C65.678 47.6212 63.993 45.9363 61.914 45.9363C59.836 45.9363 58.151 47.6212 58.151 49.6998C58.151 51.7783 59.836 53.4632 61.914 53.4632Z" fill="#FFE783"/>
</g>
<g style="mix-blend-mode:luminosity" opacity="0.6">
<path d="M92.186 70.1663H89.266V26.9925C89.266 24.6005 87.32 22.6548 84.929 22.6548H68.423V21.3151L75.401 18.4681C76.139 18.1669 76.616 17.4571 76.616 16.6599C76.616 15.8624 76.139 15.1526 75.401 14.8513L50.738 4.78862C50.262 4.59422 49.738 4.59422 49.262 4.78862L24.599 14.8513C23.861 15.1524 23.384 15.8624 23.384 16.6599C23.384 17.4571 23.861 18.1669 24.599 18.4681L31.577 21.3151V37.1196C31.577 37.9171 32.054 38.6269 32.793 38.928L49.262 45.6477C49.5 45.745 49.75 45.7935 50 45.7935C50.25 45.7935 50.5 45.7448 50.738 45.6477L60.937 41.4862V45.0616C58.791 45.513 57.174 47.421 57.174 49.6999C57.174 50.8659 57.598 51.9341 58.299 52.7606C57.803 53.4733 57.507 54.3358 57.507 55.2681V60.9378C57.507 62.0147 58.384 62.8909 59.461 62.8909H64.367C65.444 62.8909 66.32 62.0147 66.32 60.9378V55.2681C66.32 54.3354 66.028 53.4702 65.532 52.7575C66.231 51.9315 66.654 50.8643 66.654 49.6999C66.654 47.421 65.037 45.513 62.89 45.0616V40.6894L67.208 38.928C67.946 38.6269 68.423 37.9169 68.423 37.1196V24.6079H84.929C86.243 24.6079 87.313 25.6776 87.313 26.9925V71.1429C87.313 71.6821 87.75 72.1194 88.29 72.1194H92.186C92.724 72.1194 93.162 72.5575 93.162 73.096V78.0198C93.162 78.5583 92.724 78.9964 92.186 78.9964H7.81403C7.27603 78.9964 6.83801 78.5583 6.83801 78.0198V73.096C6.83801 72.5575 7.27603 72.1194 7.81403 72.1194H34.378L36.893 75.0243C37.078 75.2386 37.347 75.3618 37.631 75.3618H62.369C62.653 75.3618 62.922 75.2388 63.107 75.0243L65.622 72.1194H82.313C82.853 72.1194 83.29 71.6821 83.29 71.1429C83.29 70.6036 82.853 70.1663 82.313 70.1663H65.622C65.055 70.1663 64.516 70.4124 64.145 70.8411L61.923 73.4085H38.077L35.854 70.8411C35.483 70.4122 34.945 70.1663 34.378 70.1663H12.687V26.9925C12.687 25.6776 13.756 24.6079 15.071 24.6079H26.576C27.115 24.6079 27.553 24.1706 27.553 23.6313C27.553 23.0921 27.115 22.6548 26.576 22.6548H15.071C12.68 22.6548 10.734 24.6007 10.734 26.9925V70.1663H7.81403C6.19903 70.1663 4.88501 71.4806 4.88501 73.096V78.0198C4.88501 79.6352 6.19903 80.95 7.81403 80.95H92.186C93.801 80.95 95.115 79.6352 95.115 78.0198V73.096C95.115 71.4806 93.801 70.1663 92.186 70.1663ZM63.216 60.9378V58.0081C63.216 57.4688 62.779 57.0315 62.24 57.0315C61.7 57.0315 61.263 57.4688 61.263 58.0081V60.9378H59.461V55.2681C59.461 54.7874 59.602 54.3409 59.843 53.9624C60.469 54.2679 61.172 54.4399 61.914 54.4399C62.656 54.4399 63.359 54.2681 63.985 53.9628C64.225 54.3411 64.368 54.7874 64.368 55.2683L64.369 60.9378H63.216ZM64.701 49.6999C64.701 51.2366 63.451 52.4868 61.914 52.4868C60.377 52.4868 59.127 51.2366 59.127 49.6999C59.127 48.1632 60.377 46.913 61.914 46.913C63.451 46.913 64.701 48.1632 64.701 49.6999ZM50 6.59682L74.663 16.6595L61.513 22.0247L47.755 15.9651C47.261 15.7476 46.685 15.9714 46.468 16.4653C46.25 16.9589 46.474 17.5353 46.968 17.7526L58.998 23.0513L50 26.7224L25.337 16.6595L50 6.59682ZM50 43.8393L33.53 37.1194V22.1118L49.262 28.5306C49.5 28.6278 49.75 28.6763 50 28.6763C50.25 28.6763 50.5 28.6276 50.738 28.5306L60.937 24.3692V39.3769L50 43.8393ZM62.891 38.58V23.5724L66.47 22.112V37.1196L62.891 38.58Z" fill="#590BB2"/>
</g>
</g>
<defs>
<linearGradient id="paint0_linear" x1="178.176" y1="-0.706438" x2="-86.355" y2="93.914" gradientUnits="userSpaceOnUse">
<stop stop-color="#FFA052"/>
<stop offset="1" stop-color="white" stop-opacity="0"/>
</linearGradient>
</defs>
</svg>
