<svg width="48" height="48" viewBox="0 0 48 48" fill="none" xmlns="http://www.w3.org/2000/svg">
<path d="M24 48C37.2548 48 48 37.2548 48 24C48 10.7452 37.2548 0 24 0C10.7452 0 0 10.7452 0 24C0 37.2548 10.7452 48 24 48Z" fill="#FDECF2"/>
<path d="M12.1905 11C9.87962 11 8 12.8804 8 15.1905V32.7143C8 35.0244 9.87962 36.9048 12.1905 36.9048H22.8571V11H12.1905ZM25.1429 11V36.9048H35.8095C38.1204 36.9048 40 35.0244 40 32.7143V15.1905C40 12.8804 38.1204 11 35.8095 11H25.1429ZM32.381 17.8571C34.4815 17.8571 36.1905 19.5661 36.1905 21.6667V26.2381C36.1905 28.3387 34.4815 30.0476 32.381 30.0476C30.2804 30.0476 28.5714 28.3387 28.5714 26.2381V21.6667C28.5714 19.5661 30.2804 17.8571 32.381 17.8571ZM15.5238 17.8616C15.7923 17.839 16.0632 17.9118 16.2872 18.0729C16.5851 18.2878 16.7619 18.6328 16.7619 19V28.9048C16.7619 29.5364 16.2507 30.0476 15.619 30.0476C14.9874 30.0476 14.4762 29.5364 14.4762 28.9048V20.5848L13.6949 20.8467C13.0976 21.0486 12.4481 20.7224 12.2485 20.1235C12.0489 19.5247 12.3729 18.8767 12.9717 18.6771L15.2574 17.9152C15.3445 17.886 15.4343 17.8691 15.5238 17.8616ZM32.381 20.1429C31.5406 20.1429 30.8571 20.8263 30.8571 21.6667V26.2381C30.8571 27.0785 31.5406 27.7619 32.381 27.7619C33.2213 27.7619 33.9048 27.0785 33.9048 26.2381V21.6667C33.9048 20.8263 33.2213 20.1429 32.381 20.1429Z" fill="#EC407A"/>
</svg>
