<svg width="64" height="64" viewBox="0 0 64 64" fill="none" xmlns="http://www.w3.org/2000/svg">
<path fill-rule="evenodd" clip-rule="evenodd" d="M0.710519 36.2732C-0.657049 26.7068 4.88815 17.9101 11.6059 10.9634C18.0383 4.31172 26.4164 -0.202862 35.6636 0.128695C45.274 0.473275 54.8127 4.62378 60.0335 12.6998C65.0872 20.5172 63.5302 30.2866 60.9396 39.2276C58.3096 48.3047 54.5221 57.7602 45.8737 61.5702C36.9599 65.4971 26.828 62.7589 18.3299 57.9989C9.77122 53.205 2.09878 45.9843 0.710519 36.2732Z" fill="#FFC136"/>
<path fill-rule="evenodd" clip-rule="evenodd" d="M16.7844 6.68008C24.4592 1.86601 34.1067 3.26713 42.6158 6.37717C50.7634 9.35512 57.8211 14.8136 61.058 22.8619C64.4221 31.2263 64.4983 40.9784 59.5675 48.5261C54.7946 55.8321 45.8323 58.218 37.1862 59.403C28.4084 60.6061 18.8659 60.9617 12.3089 55.0033C5.55077 48.8621 4.03869 39.1396 4.88082 30.0469C5.72896 20.8893 8.99355 11.567 16.7844 6.68008Z" fill="#7E57C2"/>
<path d="M30.938 14.3708C22.9856 14.3708 16.538 20.8184 16.538 28.7708C16.538 37.778 21.938 36.7434 21.938 45.4032V50.3708H38.138V44.9708H41.738C43.727 44.9708 45.338 43.3598 45.338 41.3708V36.0094L47.9044 34.9266C48.8422 34.5324 49.2005 33.3876 48.6533 32.529L45.2466 27.1817C44.4564 19.9763 38.354 14.3708 30.938 14.3708ZM29.8517 21.5708H32.0244C32.2584 21.5708 32.4546 21.7499 32.4744 21.9821L32.615 23.6626C33.3332 23.8984 33.9802 24.2697 34.531 24.7629L36.0498 24.0493C36.2622 23.9503 36.5128 24.027 36.6298 24.2286L37.7162 26.1094C37.8332 26.3128 37.7752 26.5704 37.5826 26.7036L36.2185 27.6528C36.2941 28.0164 36.338 28.3874 36.338 28.7708C36.338 29.1542 36.2941 29.5269 36.2185 29.8887L37.5826 30.8344C37.7752 30.9676 37.8332 31.227 37.7162 31.4286L36.6298 33.3094C36.5128 33.5128 36.2604 33.593 36.0498 33.4922L34.531 32.7751C33.982 33.2683 33.3332 33.6432 32.615 33.879L32.4744 35.5559C32.4546 35.7899 32.2584 35.9708 32.0244 35.9708H29.8517C29.6177 35.9708 29.4215 35.7916 29.4017 35.5594L29.2611 33.879C28.5429 33.6432 27.8959 33.2718 27.3451 32.7786L25.8263 33.4922C25.6139 33.5912 25.3632 33.5145 25.2462 33.3129L24.1599 31.4321C24.0429 31.2287 24.1009 30.9711 24.2935 30.8379L25.6576 29.8887C25.582 29.5251 25.538 29.1542 25.538 28.7708C25.538 28.3874 25.582 28.0146 25.6576 27.6528L24.2935 26.7071C24.1009 26.5739 24.0429 26.3145 24.1599 26.1129L25.2462 24.2321C25.3632 24.0287 25.6157 23.9485 25.8263 24.0493L27.3451 24.7665C27.8977 24.2715 28.5464 23.8984 29.2646 23.6626L29.4052 21.9821C29.4232 21.7499 29.6177 21.5708 29.8517 21.5708ZM30.938 26.0708C30.222 26.0708 29.5352 26.3552 29.0289 26.8616C28.5225 27.3679 28.238 28.0547 28.238 28.7708C28.238 29.4868 28.5225 30.1736 29.0289 30.6799C29.5352 31.1863 30.222 31.4708 30.938 31.4708C31.6541 31.4708 32.3409 31.1863 32.8472 30.6799C33.3536 30.1736 33.638 29.4868 33.638 28.7708C33.638 28.0547 33.3536 27.3679 32.8472 26.8616C32.3409 26.3552 31.6541 26.0708 30.938 26.0708Z" fill="white"/>
</svg>
