<svg width="48" height="48" viewBox="0 0 48 48" fill="none" xmlns="http://www.w3.org/2000/svg">
<path d="M24 48C37.2548 48 48 37.2548 48 24C48 10.7452 37.2548 0 24 0C10.7452 0 0 10.7452 0 24C0 37.2548 10.7452 48 24 48Z" fill="#FDECF2"/>
<path d="M12.196 8C11.6031 8 11.0567 8.31213 10.7519 8.81908L9.23874 11.3454C8.92042 11.8776 8.92042 12.5434 9.23874 13.0757L10.7519 15.602C11.0567 16.1106 11.6031 16.4211 12.196 16.4211H15.4328C16.0257 16.4211 16.5753 16.1089 16.8802 15.602L18.3901 13.0757C18.7084 12.5434 18.7084 11.8793 18.3901 11.3454L16.8802 8.81908C16.5753 8.31213 16.0257 8 15.4328 8H12.196ZM33.3703 8C32.7775 8 32.2311 8.31213 31.9262 8.81908L30.4131 11.3454C30.0948 11.8776 30.0948 12.5418 30.4131 13.0757L31.9262 15.602C32.2311 16.1089 32.7792 16.4211 33.3703 16.4211H36.6072C37.2 16.4211 37.7464 16.1089 38.0512 15.602L39.5644 13.0757C39.8827 12.5434 39.8827 11.8776 39.5644 11.3454L38.0512 8.81908C37.7481 8.31045 37.2 8 36.6072 8H33.3703ZM22.7848 14.7368C22.1919 14.7368 21.6456 15.049 21.3407 15.5559L19.8276 18.0822C19.5092 18.6144 19.5092 19.2786 19.8276 19.8125L21.3407 22.3388C21.6456 22.8458 22.1919 23.1579 22.7848 23.1579H26.0216C26.6145 23.1579 27.1642 22.8458 27.469 22.3388L28.9789 19.8125C29.2972 19.2803 29.2972 18.6161 28.9789 18.0822L27.469 15.5559C27.1642 15.049 26.6145 14.7368 26.0216 14.7368H22.7848ZM12.196 19.7895C11.6031 19.7895 11.0567 20.1016 10.7519 20.6086L9.23874 23.1349C8.92042 23.6671 8.92042 24.3329 9.23874 24.8651L10.7519 27.3914C11.0567 27.9001 11.6031 28.2105 12.196 28.2105H15.4328C16.0257 28.2105 16.5753 27.8984 16.8802 27.3914L18.3901 24.8651C18.7084 24.3329 18.7084 23.6688 18.3901 23.1349L16.8802 20.6086C16.5753 20.1016 16.0257 19.7895 15.4328 19.7895H12.196ZM33.3703 19.7895C32.7775 19.7895 32.2311 20.1016 31.9262 20.6086L30.4131 23.1349C30.0948 23.6671 30.0948 24.3312 30.4131 24.8651L31.9262 27.3914C32.2311 27.8984 32.7792 28.2105 33.3703 28.2105H36.6072C37.2 28.2105 37.7464 27.8984 38.0512 27.3914L39.5644 24.8651C39.8827 24.3329 39.8827 23.6671 39.5644 23.1349L38.0512 20.6086C37.7481 20.0999 37.2 19.7895 36.6072 19.7895H33.3703ZM22.7848 26.5263C22.1919 26.5263 21.6456 26.8384 21.3407 27.3454L19.8276 29.8717C19.5092 30.4039 19.5092 31.0681 19.8276 31.602L21.3407 34.1283C21.6456 34.6352 22.1919 34.9474 22.7848 34.9474H26.0216C26.6145 34.9474 27.1642 34.6352 27.469 34.1283L28.9789 31.602C29.2972 31.0698 29.2972 30.4056 28.9789 29.8717L27.469 27.3454C27.1642 26.8384 26.6145 26.5263 26.0216 26.5263H22.7848ZM12.196 31.5789C11.6031 31.5789 11.0567 31.8911 10.7519 32.398L9.23874 34.9243C8.92042 35.4566 8.92042 36.1224 9.23874 36.6546L10.7519 39.1809C11.0567 39.6896 11.6031 40 12.196 40H15.4328C16.0257 40 16.5753 39.6879 16.8802 39.1809L18.3901 36.6546C18.7084 36.1224 18.7084 35.4582 18.3901 34.9243L16.8802 32.398C16.5753 31.8911 16.0257 31.5789 15.4328 31.5789H12.196ZM33.3703 31.5789C32.7775 31.5789 32.2311 31.8911 31.9262 32.398L30.4131 34.9243C30.0948 35.4566 30.0948 36.1207 30.4131 36.6546L31.9262 39.1809C32.2311 39.6879 32.7792 40 33.3703 40H36.6072C37.2 40 37.7464 39.6879 38.0512 39.1809L39.5644 36.6546C39.8827 36.1224 39.8827 35.4566 39.5644 34.9243L38.0512 32.398C37.7481 31.8894 37.2 31.5789 36.6072 31.5789H33.3703Z" fill="#EC407A"/>
</svg>
