<svg width="64" height="63" viewBox="0 0 64 63" fill="none" xmlns="http://www.w3.org/2000/svg">
<path fill-rule="evenodd" clip-rule="evenodd" d="M38.6411 62.5177C29.1683 64.4286 20.0696 59.3942 12.751 53.0836C5.7433 47.041 0.75821 38.9341 0.561797 29.683C0.357672 20.0686 3.95737 10.3087 11.7224 4.6358C19.2389 -0.855529 29.0812 0.14172 38.1554 2.21811C47.3678 4.32613 57.0238 7.56811 61.3209 15.9852C65.7498 24.6604 63.594 34.932 59.3265 43.6878C55.0285 52.506 48.2572 60.5778 38.6411 62.5177Z" fill="#FFC136"/>
<path fill-rule="evenodd" clip-rule="evenodd" d="M32.9127 0.560735C41.9712 0.703863 49.2988 7.13382 54.7408 14.3769C59.9516 21.3122 62.8972 29.7342 61.228 38.2469C59.4932 47.094 54.2452 55.3139 45.9989 58.9579C38.0166 62.4852 29.2009 59.6044 21.3045 55.8888C13.2879 52.1165 5.0915 47.2169 2.83807 38.6485C0.515514 29.8172 4.54322 20.8399 10.2022 13.6731C15.9015 6.45525 23.7171 0.41544 32.9127 0.560735Z" fill="#7E57C2"/>
<path d="M31.7774 14.5582C24.9693 14.5582 23.56 18.0738 23.56 20.1098V23.9495H31.3861V24.7321H19.7203C17.1371 24.7321 14.1687 26.7681 14.1687 32.5582C14.1687 38.3482 17.1371 40.3843 19.7203 40.3843H24.3426V35.6886C24.3426 33.9675 25.7519 32.5582 27.473 32.5582H36.8644C38.1942 32.5582 39.2122 31.5402 39.2122 30.2103V20.1098C39.2122 17.3707 36.629 14.5582 31.7774 14.5582ZM28.2557 18.4712C29.1177 18.4712 29.8209 19.1743 29.8209 20.0364C29.8209 20.8985 29.1177 21.6016 28.2557 21.6016C27.3936 21.6016 26.6904 20.8985 26.6904 20.0364C26.6904 19.1743 27.3936 18.4712 28.2557 18.4712ZM39.9948 24.7321V30.2103C39.9948 31.9315 38.5855 33.3408 36.8644 33.3408H27.473C26.1432 33.3408 25.1252 34.3588 25.1252 35.6886V45.0065C25.1252 47.7457 27.7084 50.5582 32.56 50.5582C39.3681 50.5582 40.7774 47.0425 40.7774 45.0065V41.1669H32.9513V40.3843H44.6171C47.2003 40.3843 50.1687 38.3482 50.1687 32.5582C50.1687 26.7681 47.2003 24.7321 44.6171 24.7321H39.9948ZM36.0817 43.5147C36.9438 43.5147 37.647 44.2178 37.647 45.0799C37.647 45.942 36.9438 46.6451 36.0817 46.6451C35.2197 46.6451 34.5165 45.942 34.5165 45.0799C34.5165 44.2178 35.2197 43.5147 36.0817 43.5147Z" fill="white"/>
</svg>
