<svg width="1248" height="133" viewBox="0 0 1248 133" fill="none" xmlns="http://www.w3.org/2000/svg">
<path d="M1199.25 112.286C1199.47 112.286 1199.64 112.361 1199.76 112.512C1199.88 112.65 1199.94 112.839 1199.94 113.077V125.01C1199.94 125.236 1199.88 125.418 1199.77 125.556C1199.65 125.694 1199.5 125.764 1199.29 125.764C1199.08 125.764 1198.93 125.694 1198.82 125.556C1198.73 125.418 1198.67 125.236 1198.67 125.01V115.377L1194.96 123.219C1194.79 123.583 1194.56 123.765 1194.25 123.765C1193.95 123.765 1193.72 123.583 1193.55 123.219L1189.81 115.471V125.01C1189.81 125.236 1189.75 125.418 1189.64 125.556C1189.53 125.694 1189.38 125.764 1189.17 125.764C1188.96 125.764 1188.81 125.694 1188.7 125.556C1188.58 125.418 1188.52 125.236 1188.52 125.01V113.077C1188.52 112.839 1188.58 112.65 1188.71 112.512C1188.84 112.361 1189.01 112.286 1189.22 112.286C1189.51 112.286 1189.73 112.468 1189.91 112.832L1194.27 122.012L1198.57 112.832C1198.66 112.631 1198.76 112.493 1198.86 112.418C1198.98 112.33 1199.11 112.286 1199.25 112.286ZM1213.44 124.783C1213.48 124.884 1213.5 124.991 1213.5 125.104C1213.5 125.292 1213.44 125.449 1213.29 125.575C1213.17 125.701 1213.02 125.764 1212.84 125.764C1212.55 125.764 1212.35 125.613 1212.24 125.311L1211.02 122.257H1204.55L1203.32 125.311C1203.21 125.613 1203.01 125.764 1202.72 125.764C1202.53 125.764 1202.38 125.701 1202.23 125.575C1202.1 125.437 1202.03 125.273 1202.03 125.085C1202.03 124.984 1202.05 124.884 1202.1 124.783L1207.01 112.795C1207.07 112.619 1207.18 112.487 1207.31 112.399C1207.44 112.311 1207.6 112.267 1207.76 112.267C1207.93 112.267 1208.08 112.317 1208.22 112.418C1208.36 112.505 1208.46 112.631 1208.53 112.795L1213.44 124.783ZM1205.06 120.976H1210.5L1207.78 114.208L1205.06 120.976ZM1224.26 124.501C1224.42 124.664 1224.51 124.846 1224.51 125.047C1224.51 125.223 1224.43 125.387 1224.3 125.537C1224.17 125.676 1224.02 125.745 1223.85 125.745C1223.71 125.745 1223.54 125.669 1223.39 125.519L1216.97 119.354V124.972C1216.97 125.211 1216.91 125.405 1216.79 125.556C1216.66 125.694 1216.49 125.764 1216.28 125.764C1216.06 125.764 1215.89 125.694 1215.76 125.556C1215.63 125.405 1215.57 125.211 1215.57 124.972V113.077C1215.57 112.839 1215.63 112.65 1215.76 112.512C1215.89 112.361 1216.06 112.286 1216.28 112.286C1216.49 112.286 1216.66 112.361 1216.79 112.512C1216.91 112.65 1216.97 112.839 1216.97 113.077V118.487L1223.1 112.512C1223.22 112.374 1223.37 112.304 1223.54 112.304C1223.72 112.304 1223.86 112.38 1223.99 112.531C1224.12 112.669 1224.17 112.826 1224.17 113.002C1224.17 113.19 1224.11 113.366 1223.95 113.53L1218.42 118.883L1224.26 124.501ZM1227.15 125.669C1226.93 125.669 1226.75 125.6 1226.61 125.462C1226.49 125.324 1226.42 125.142 1226.42 124.915V113.134C1226.42 112.908 1226.49 112.725 1226.61 112.587C1226.75 112.449 1226.93 112.38 1227.15 112.38H1233.56C1233.77 112.38 1233.92 112.436 1234.03 112.549C1234.15 112.663 1234.21 112.82 1234.21 113.021C1234.21 113.222 1234.15 113.379 1234.03 113.492C1233.92 113.605 1233.77 113.662 1233.56 113.662H1227.81V118.28H1233.21C1233.42 118.28 1233.58 118.337 1233.69 118.45C1233.81 118.563 1233.86 118.72 1233.86 118.921C1233.86 119.122 1233.81 119.279 1233.69 119.392C1233.58 119.505 1233.42 119.562 1233.21 119.562H1227.81V124.388H1233.56C1233.77 124.388 1233.92 124.444 1234.03 124.557C1234.15 124.658 1234.21 124.815 1234.21 125.028C1234.21 125.23 1234.15 125.387 1234.03 125.5C1233.92 125.613 1233.77 125.669 1233.56 125.669H1227.15ZM1245.71 124.708C1245.8 124.846 1245.84 124.991 1245.84 125.142C1245.84 125.33 1245.77 125.487 1245.63 125.613C1245.5 125.726 1245.35 125.782 1245.18 125.782C1244.92 125.782 1244.71 125.657 1244.57 125.405L1242.26 121.409C1241.97 120.894 1241.66 120.542 1241.34 120.354C1241.03 120.152 1240.59 120.052 1240.04 120.052H1237.88V124.972C1237.88 125.211 1237.82 125.405 1237.69 125.556C1237.57 125.694 1237.4 125.764 1237.2 125.764C1236.98 125.764 1236.81 125.694 1236.68 125.556C1236.55 125.405 1236.49 125.211 1236.49 124.972V113.134C1236.49 112.908 1236.55 112.725 1236.68 112.587C1236.82 112.449 1237 112.38 1237.21 112.38H1241.46C1242.78 112.38 1243.78 112.7 1244.47 113.341C1245.16 113.982 1245.51 114.925 1245.51 116.169C1245.51 117.224 1245.23 118.073 1244.67 118.714C1244.12 119.354 1243.33 119.744 1242.3 119.882C1242.59 119.983 1242.85 120.146 1243.07 120.372C1243.3 120.599 1243.53 120.913 1243.76 121.315L1245.71 124.708ZM1241.34 118.77C1242.28 118.77 1242.98 118.556 1243.44 118.129C1243.9 117.702 1244.14 117.055 1244.14 116.188C1244.14 115.333 1243.91 114.698 1243.46 114.284C1243 113.869 1242.29 113.662 1241.34 113.662H1237.88V118.77H1241.34Z" fill="black"/>
<path d="M27.6275 64.9291C27.6275 56.8318 21.6561 50.2677 14.2901 50.2677C6.92406 50.2677 0.952698 56.8318 0.952698 64.9291C0.952698 73.0264 6.92406 79.5905 14.2901 79.5905C21.6561 79.5905 27.6275 73.0264 27.6275 64.9291Z" fill="#DA1C49"/>
<path d="M21.9114 64.9291C21.9114 60.3021 18.4992 56.5511 14.2901 56.5511C10.0809 56.5511 6.6687 60.3021 6.6687 64.9291C6.6687 69.5561 10.0809 73.307 14.2901 73.307C18.4992 73.307 21.9114 69.5561 21.9114 64.9291Z" fill="#DA1C49"/>
<path d="M4.59569 125.591C3.73828 125.591 2.91518 125.453 2.12636 125.176C1.34898 124.887 0.725936 124.504 0.257221 124.027C0.0857405 123.851 0 123.631 0 123.367C0 123.191 0.0457282 123.04 0.137185 122.914C0.228641 122.776 0.337246 122.707 0.462998 122.707C0.611615 122.707 0.771664 122.776 0.943145 122.914C2.00633 123.819 3.21813 124.272 4.57854 124.272C5.5617 124.272 6.31621 124.064 6.84209 123.65C7.36796 123.235 7.6309 122.644 7.6309 121.878C7.6309 121.438 7.50515 121.086 7.25364 120.822C7.00214 120.546 6.67061 120.326 6.25905 120.162C5.8475 119.999 5.29304 119.829 4.59569 119.653C3.65826 119.414 2.8866 119.163 2.2807 118.899C1.68623 118.635 1.20037 118.258 0.823108 117.768C0.457282 117.278 0.27437 116.637 0.27437 115.845C0.27437 115.091 0.457282 114.425 0.823108 113.847C1.20037 113.257 1.72053 112.804 2.38358 112.49C3.05808 112.163 3.82402 112 4.68143 112C5.48167 112 6.22476 112.138 6.91068 112.415C7.60804 112.679 8.19107 113.062 8.65979 113.565C8.8427 113.766 8.93416 113.986 8.93416 114.224C8.93416 114.4 8.88843 114.557 8.79697 114.696C8.70551 114.821 8.59691 114.884 8.47116 114.884C8.3454 114.884 8.17964 114.815 7.97386 114.677C7.41369 114.174 6.89353 113.822 6.41339 113.621C5.93324 113.42 5.35592 113.32 4.68143 113.32C3.73257 113.32 2.9952 113.539 2.46933 113.979C1.94345 114.407 1.68051 115.01 1.68051 115.789C1.68051 116.455 1.90915 116.958 2.36644 117.297C2.83515 117.624 3.54966 117.913 4.50995 118.164C5.55027 118.441 6.36766 118.698 6.96213 118.937C7.55659 119.163 8.04817 119.509 8.43686 119.974C8.83698 120.439 9.03704 121.061 9.03704 121.84C9.03704 122.581 8.84842 123.235 8.47116 123.8C8.10533 124.366 7.58517 124.806 6.91068 125.12C6.23619 125.434 5.46453 125.591 4.59569 125.591ZM15.009 124.328C15.4091 124.366 15.6091 124.567 15.6091 124.931C15.6091 125.145 15.5348 125.308 15.3862 125.421C15.249 125.522 15.0375 125.56 14.7517 125.535L14.2887 125.497C13.3742 125.421 12.6997 125.12 12.2653 124.592C11.8308 124.064 11.6136 123.266 11.6136 122.198V117.467H10.4647C10.2704 117.467 10.116 117.416 10.0017 117.316C9.89883 117.203 9.84739 117.058 9.84739 116.882C9.84739 116.694 9.89883 116.543 10.0017 116.43C10.116 116.317 10.2704 116.26 10.4647 116.26H11.6136V114.13C11.6136 113.891 11.6765 113.709 11.8023 113.583C11.928 113.445 12.0995 113.376 12.3167 113.376C12.5225 113.376 12.6883 113.445 12.814 113.583C12.9398 113.709 13.0026 113.891 13.0026 114.13V116.26H14.9061C15.089 116.26 15.2319 116.317 15.3348 116.43C15.4491 116.543 15.5063 116.694 15.5063 116.882C15.5063 117.058 15.4491 117.203 15.3348 117.316C15.2319 117.416 15.089 117.467 14.9061 117.467H13.0026V122.273C13.0026 122.965 13.1284 123.467 13.3799 123.781C13.6428 124.083 14.0315 124.253 14.546 124.29L15.009 124.328ZM20.4765 116.034C22.5686 116.034 23.6146 117.24 23.6146 119.653V124.781C23.6146 125.007 23.5518 125.189 23.426 125.327C23.3117 125.465 23.1516 125.535 22.9459 125.535C22.7401 125.535 22.5743 125.465 22.4486 125.327C22.3228 125.189 22.2599 125.007 22.2599 124.781V123.876C22.0427 124.416 21.7112 124.837 21.2653 125.139C20.8195 125.428 20.3051 125.572 19.722 125.572C19.1847 125.572 18.6874 125.453 18.2301 125.214C17.7843 124.975 17.4299 124.642 17.167 124.215C16.904 123.788 16.7725 123.317 16.7725 122.801C16.7725 122.11 16.9326 121.576 17.2527 121.199C17.5728 120.809 18.0987 120.533 18.8303 120.37C19.562 120.194 20.5794 120.106 21.8827 120.106H22.2599V119.484C22.2599 118.73 22.117 118.177 21.8312 117.825C21.5569 117.473 21.1053 117.297 20.4765 117.297C19.6992 117.297 18.9103 117.529 18.1101 117.994C17.8014 118.208 17.5842 118.315 17.4585 118.315C17.3213 118.315 17.207 118.258 17.1155 118.145C17.0241 118.032 16.9783 117.888 16.9783 117.712C16.9783 117.536 17.0241 117.385 17.1155 117.259C17.2184 117.121 17.3784 116.983 17.5957 116.845C17.9958 116.593 18.4473 116.398 18.9504 116.26C19.4648 116.109 19.9735 116.034 20.4765 116.034ZM19.9106 124.366C20.5966 124.366 21.1567 124.115 21.5912 123.612C22.037 123.097 22.2599 122.437 22.2599 121.633V121.086H21.9513C20.9452 121.086 20.1793 121.136 19.6534 121.237C19.1276 121.325 18.7503 121.482 18.5217 121.708C18.3044 121.922 18.1958 122.242 18.1958 122.669C18.1958 123.159 18.3559 123.568 18.676 123.895C19.0075 124.209 19.4191 124.366 19.9106 124.366ZM30.3757 116.072C30.8559 116.034 31.096 116.248 31.096 116.713C31.096 116.914 31.0445 117.077 30.9416 117.203C30.8387 117.316 30.6615 117.385 30.41 117.41L29.8956 117.467C29.1297 117.542 28.5581 117.844 28.1808 118.371C27.815 118.887 27.6321 119.496 27.6321 120.2V124.781C27.6321 125.032 27.5692 125.22 27.4434 125.346C27.3177 125.472 27.1519 125.535 26.9461 125.535C26.7404 125.535 26.5689 125.472 26.4317 125.346C26.3059 125.208 26.2431 125.019 26.2431 124.781V116.826C26.2431 116.587 26.3117 116.405 26.4488 116.279C26.586 116.141 26.7518 116.072 26.9461 116.072C27.129 116.072 27.2834 116.141 27.4091 116.279C27.5349 116.405 27.5978 116.581 27.5978 116.807V117.862C27.8378 117.31 28.1751 116.889 28.6095 116.599C29.0553 116.31 29.5641 116.141 30.1357 116.091L30.3757 116.072ZM36.9023 124.328C37.3024 124.366 37.5025 124.567 37.5025 124.931C37.5025 125.145 37.4282 125.308 37.2796 125.421C37.1424 125.522 36.9309 125.56 36.6451 125.535L36.1821 125.497C35.2675 125.421 34.593 125.12 34.1586 124.592C33.7242 124.064 33.507 123.266 33.507 122.198V117.467H32.3581C32.1637 117.467 32.0094 117.416 31.8951 117.316C31.7922 117.203 31.7407 117.058 31.7407 116.882C31.7407 116.694 31.7922 116.543 31.8951 116.43C32.0094 116.317 32.1637 116.26 32.3581 116.26H33.507V114.13C33.507 113.891 33.5699 113.709 33.6956 113.583C33.8214 113.445 33.9929 113.376 34.2101 113.376C34.4158 113.376 34.5816 113.445 34.7074 113.583C34.8331 113.709 34.896 113.891 34.896 114.13V116.26H36.7994C36.9823 116.26 37.1252 116.317 37.2281 116.43C37.3424 116.543 37.3996 116.694 37.3996 116.882C37.3996 117.058 37.3424 117.203 37.2281 117.316C37.1252 117.416 36.9823 117.467 36.7994 117.467H34.896V122.273C34.896 122.965 35.0217 123.467 35.2732 123.781C35.5362 124.083 35.9249 124.253 36.4393 124.29L36.9023 124.328ZM47.3053 125.535C47.0881 125.535 46.9109 125.465 46.7737 125.327C46.648 125.176 46.5851 124.982 46.5851 124.743V113.47H42.8982C42.6925 113.47 42.5324 113.414 42.4181 113.301C42.3038 113.188 42.2466 113.024 42.2466 112.811C42.2466 112.597 42.3038 112.434 42.4181 112.32C42.5324 112.207 42.6925 112.151 42.8982 112.151H51.6952C51.901 112.151 52.061 112.207 52.1754 112.32C52.2897 112.434 52.3468 112.597 52.3468 112.811C52.3468 113.024 52.2897 113.188 52.1754 113.301C52.061 113.414 51.901 113.47 51.6952 113.47H48.0084V124.743C48.0084 124.982 47.9455 125.176 47.8197 125.327C47.694 125.465 47.5225 125.535 47.3053 125.535ZM55.9562 125.572C55.1674 125.572 54.4701 125.377 53.8642 124.988C53.2697 124.598 52.8067 124.045 52.4752 123.329C52.1551 122.6 51.995 121.758 51.995 120.803C51.995 119.848 52.1551 119.012 52.4752 118.296C52.8067 117.567 53.2697 117.008 53.8642 116.618C54.4701 116.229 55.1674 116.034 55.9562 116.034C56.745 116.034 57.4424 116.229 58.0483 116.618C58.6542 117.008 59.1172 117.567 59.4373 118.296C59.7688 119.012 59.9346 119.848 59.9346 120.803C59.9346 121.758 59.7688 122.6 59.4373 123.329C59.1172 124.045 58.6542 124.598 58.0483 124.988C57.4424 125.377 56.745 125.572 55.9562 125.572ZM55.9562 124.309C56.7793 124.309 57.4081 124.014 57.8425 123.423C58.2884 122.82 58.5113 121.947 58.5113 120.803C58.5113 119.685 58.2884 118.824 57.8425 118.221C57.3967 117.605 56.7679 117.297 55.9562 117.297C55.1445 117.297 54.5158 117.605 54.0699 118.221C53.6241 118.824 53.4012 119.685 53.4012 120.803C53.4012 121.934 53.6184 122.801 54.0528 123.404C54.4986 124.008 55.1331 124.309 55.9562 124.309ZM68.7948 112.057C69.012 112.057 69.1835 112.126 69.3093 112.264C69.435 112.402 69.4979 112.578 69.4979 112.792V124.781C69.4979 125.007 69.435 125.189 69.3093 125.327C69.1835 125.465 69.012 125.535 68.7948 125.535C68.5776 125.535 68.4061 125.465 68.2804 125.327C68.166 125.189 68.1089 125.007 68.1089 124.781V123.763C67.8574 124.341 67.4858 124.787 66.9943 125.101C66.5141 125.415 65.9482 125.572 65.2966 125.572C64.5649 125.572 63.919 125.371 63.3589 124.969C62.7987 124.567 62.3643 124.008 62.0556 123.291C61.7469 122.563 61.5926 121.721 61.5926 120.765C61.5926 119.823 61.7469 118.993 62.0556 118.277C62.3643 117.561 62.7987 117.008 63.3589 116.618C63.919 116.229 64.5649 116.034 65.2966 116.034C65.9482 116.034 66.5141 116.191 66.9943 116.505C67.4858 116.819 67.8574 117.266 68.1089 117.844V112.792C68.1089 112.566 68.166 112.39 68.2804 112.264C68.4061 112.126 68.5776 112.057 68.7948 112.057ZM65.571 124.309C66.3826 124.309 67.0057 124.008 67.4401 123.404C67.886 122.789 68.1089 121.922 68.1089 120.803C68.1089 119.685 67.886 118.824 67.4401 118.221C67.0057 117.617 66.3826 117.316 65.571 117.316C64.7593 117.316 64.1248 117.617 63.6675 118.221C63.2217 118.824 62.9988 119.672 62.9988 120.765C62.9988 121.884 63.2217 122.757 63.6675 123.386C64.1248 124.001 64.7593 124.309 65.571 124.309ZM75.5688 116.034C77.6609 116.034 78.7069 117.24 78.7069 119.653V124.781C78.7069 125.007 78.644 125.189 78.5182 125.327C78.4039 125.465 78.2439 125.535 78.0381 125.535C77.8323 125.535 77.6666 125.465 77.5408 125.327C77.4151 125.189 77.3522 125.007 77.3522 124.781V123.876C77.135 124.416 76.8034 124.837 76.3576 125.139C75.9117 125.428 75.3973 125.572 74.8143 125.572C74.277 125.572 73.7797 125.453 73.3224 125.214C72.8765 124.975 72.5221 124.642 72.2592 124.215C71.9963 123.788 71.8648 123.317 71.8648 122.801C71.8648 122.11 72.0248 121.576 72.3449 121.199C72.665 120.809 73.1909 120.533 73.9226 120.37C74.6542 120.194 75.6717 120.106 76.9749 120.106H77.3522V119.484C77.3522 118.73 77.2093 118.177 76.9235 117.825C76.6491 117.473 76.1975 117.297 75.5688 117.297C74.7914 117.297 74.0026 117.529 73.2023 117.994C72.8937 118.208 72.6765 118.315 72.5507 118.315C72.4135 118.315 72.2992 118.258 72.2078 118.145C72.1163 118.032 72.0706 117.888 72.0706 117.712C72.0706 117.536 72.1163 117.385 72.2078 117.259C72.3106 117.121 72.4707 116.983 72.6879 116.845C73.088 116.593 73.5396 116.398 74.0426 116.26C74.557 116.109 75.0658 116.034 75.5688 116.034ZM75.0029 124.366C75.6888 124.366 76.249 124.115 76.6834 123.612C77.1293 123.097 77.3522 122.437 77.3522 121.633V121.086H77.0435C76.0375 121.086 75.2715 121.136 74.7457 121.237C74.2198 121.325 73.8425 121.482 73.6139 121.708C73.3967 121.922 73.2881 122.242 73.2881 122.669C73.2881 123.159 73.4481 123.568 73.7682 123.895C74.0998 124.209 74.5113 124.366 75.0029 124.366ZM87.3543 116.543C87.48 116.241 87.6801 116.091 87.9545 116.091C88.1259 116.091 88.2803 116.153 88.4175 116.279C88.5546 116.405 88.6232 116.562 88.6232 116.75C88.6232 116.863 88.6004 116.964 88.5547 117.052L83.736 128.475C83.6789 128.613 83.5931 128.72 83.4788 128.796C83.3759 128.871 83.2673 128.909 83.153 128.909C82.9815 128.909 82.8272 128.846 82.69 128.72C82.5642 128.607 82.5014 128.456 82.5014 128.268C82.5014 128.167 82.5242 128.067 82.57 127.966L83.7703 125.12L80.375 117.052C80.3293 116.964 80.3064 116.87 80.3064 116.769C80.3064 116.581 80.3807 116.417 80.5293 116.279C80.6894 116.141 80.8609 116.072 81.0438 116.072C81.1581 116.072 81.2667 116.109 81.3696 116.185C81.4839 116.26 81.5697 116.367 81.6268 116.505L84.4906 123.574L87.3543 116.543Z" fill="black"/>
<path d="M353.714 125.669C353.519 125.669 353.354 125.607 353.216 125.481C353.091 125.343 353.028 125.167 353.028 124.953V113.077C353.028 112.839 353.091 112.65 353.216 112.512C353.342 112.361 353.514 112.286 353.731 112.286C353.948 112.286 354.12 112.361 354.245 112.512C354.371 112.65 354.434 112.839 354.434 113.077V124.35H359.973C360.179 124.35 360.339 124.406 360.453 124.519C360.567 124.633 360.624 124.796 360.624 125.01C360.624 125.223 360.567 125.387 360.453 125.5C360.339 125.613 360.179 125.669 359.973 125.669H353.714ZM363.095 125.669C362.877 125.669 362.7 125.6 362.563 125.462C362.437 125.324 362.374 125.142 362.374 124.915V113.134C362.374 112.908 362.437 112.725 362.563 112.587C362.7 112.449 362.877 112.38 363.095 112.38H369.508C369.714 112.38 369.874 112.436 369.988 112.549C370.102 112.663 370.16 112.82 370.16 113.021C370.16 113.222 370.102 113.379 369.988 113.492C369.874 113.605 369.714 113.662 369.508 113.662H363.763V118.28H369.165C369.371 118.28 369.531 118.337 369.645 118.45C369.76 118.563 369.817 118.72 369.817 118.921C369.817 119.122 369.76 119.279 369.645 119.392C369.531 119.505 369.371 119.562 369.165 119.562H363.763V124.388H369.508C369.714 124.388 369.874 124.444 369.988 124.557C370.102 124.658 370.16 124.815 370.16 125.028C370.16 125.23 370.102 125.387 369.988 125.5C369.874 125.613 369.714 125.669 369.508 125.669H363.095ZM382.615 124.783C382.661 124.884 382.683 124.991 382.683 125.104C382.683 125.292 382.615 125.449 382.478 125.575C382.352 125.701 382.198 125.764 382.015 125.764C381.729 125.764 381.529 125.613 381.415 125.311L380.197 122.257H373.732L372.498 125.311C372.383 125.613 372.183 125.764 371.897 125.764C371.714 125.764 371.554 125.701 371.417 125.575C371.28 125.437 371.211 125.273 371.211 125.085C371.211 124.984 371.234 124.884 371.28 124.783L376.184 112.795C376.253 112.619 376.356 112.487 376.493 112.399C376.63 112.311 376.779 112.267 376.939 112.267C377.11 112.267 377.265 112.317 377.402 112.418C377.539 112.505 377.642 112.631 377.711 112.795L382.615 124.783ZM374.247 120.976H379.683L376.956 114.208L374.247 120.976ZM393.976 124.708C394.056 124.846 394.096 124.991 394.096 125.142C394.096 125.33 394.028 125.487 393.891 125.613C393.765 125.726 393.616 125.782 393.445 125.782C393.182 125.782 392.976 125.657 392.828 125.405L390.53 121.409C390.232 120.894 389.924 120.542 389.604 120.354C389.284 120.152 388.849 120.052 388.3 120.052H386.14V124.972C386.14 125.211 386.077 125.405 385.951 125.556C385.825 125.694 385.66 125.764 385.454 125.764C385.237 125.764 385.065 125.694 384.939 125.556C384.814 125.405 384.751 125.211 384.751 124.972V113.134C384.751 112.908 384.814 112.725 384.939 112.587C385.077 112.449 385.254 112.38 385.471 112.38H389.724C391.038 112.38 392.039 112.7 392.725 113.341C393.422 113.982 393.771 114.925 393.771 116.169C393.771 117.224 393.491 118.073 392.93 118.714C392.382 119.354 391.593 119.744 390.564 119.882C390.85 119.983 391.107 120.146 391.336 120.372C391.564 120.599 391.793 120.913 392.022 121.315L393.976 124.708ZM389.604 118.77C390.541 118.77 391.238 118.556 391.696 118.129C392.164 117.702 392.399 117.055 392.399 116.188C392.399 115.333 392.17 114.698 391.713 114.284C391.256 113.869 390.553 113.662 389.604 113.662H386.14V118.77H389.604ZM405.63 112.286C405.835 112.286 405.995 112.361 406.11 112.512C406.224 112.65 406.281 112.839 406.281 113.077V124.972C406.281 125.211 406.218 125.405 406.093 125.556C405.978 125.694 405.812 125.764 405.595 125.764C405.378 125.764 405.189 125.657 405.029 125.443L397.913 114.981V124.972C397.913 125.211 397.85 125.405 397.724 125.556C397.61 125.694 397.45 125.764 397.244 125.764C397.038 125.764 396.878 125.694 396.764 125.556C396.65 125.405 396.592 125.211 396.592 124.972V113.077C396.592 112.839 396.65 112.65 396.764 112.512C396.89 112.361 397.061 112.286 397.278 112.286C397.507 112.286 397.701 112.392 397.861 112.606L404.961 123.068V113.077C404.961 112.839 405.018 112.65 405.132 112.512C405.258 112.361 405.424 112.286 405.63 112.286ZM410.076 125.669C409.858 125.669 409.681 125.6 409.544 125.462C409.418 125.324 409.355 125.142 409.355 124.915V113.134C409.355 112.908 409.418 112.725 409.544 112.587C409.681 112.449 409.858 112.38 410.076 112.38H416.489C416.695 112.38 416.855 112.436 416.969 112.549C417.083 112.663 417.141 112.82 417.141 113.021C417.141 113.222 417.083 113.379 416.969 113.492C416.855 113.605 416.695 113.662 416.489 113.662H410.744V118.28H416.146C416.352 118.28 416.512 118.337 416.626 118.45C416.741 118.563 416.798 118.72 416.798 118.921C416.798 119.122 416.741 119.279 416.626 119.392C416.512 119.505 416.352 119.562 416.146 119.562H410.744V124.388H416.489C416.695 124.388 416.855 124.444 416.969 124.557C417.083 124.658 417.141 124.815 417.141 125.028C417.141 125.23 417.083 125.387 416.969 125.5C416.855 125.613 416.695 125.669 416.489 125.669H410.076ZM428.647 124.708C428.727 124.846 428.767 124.991 428.767 125.142C428.767 125.33 428.698 125.487 428.561 125.613C428.436 125.726 428.287 125.782 428.115 125.782C427.853 125.782 427.647 125.657 427.498 125.405L425.2 121.409C424.903 120.894 424.594 120.542 424.274 120.354C423.954 120.152 423.52 120.052 422.971 120.052H420.81V124.972C420.81 125.211 420.747 125.405 420.622 125.556C420.496 125.694 420.33 125.764 420.124 125.764C419.907 125.764 419.736 125.694 419.61 125.556C419.484 125.405 419.421 125.211 419.421 124.972V113.134C419.421 112.908 419.484 112.725 419.61 112.587C419.747 112.449 419.924 112.38 420.142 112.38H424.394C425.709 112.38 426.709 112.7 427.395 113.341C428.093 113.982 428.441 114.925 428.441 116.169C428.441 117.224 428.161 118.073 427.601 118.714C427.052 119.354 426.263 119.744 425.235 119.882C425.52 119.983 425.778 120.146 426.006 120.372C426.235 120.599 426.464 120.913 426.692 121.315L428.647 124.708ZM424.274 118.77C425.212 118.77 425.909 118.556 426.366 118.129C426.835 117.702 427.069 117.055 427.069 116.188C427.069 115.333 426.841 114.698 426.383 114.284C425.926 113.869 425.223 113.662 424.274 113.662H420.81V118.77H424.274Z" fill="black"/>
<path d="M760.539 125.669C760.322 125.669 760.144 125.6 760.007 125.462C759.881 125.324 759.819 125.141 759.819 124.915V113.134C759.819 112.908 759.881 112.725 760.007 112.587C760.144 112.449 760.322 112.38 760.539 112.38H766.952C767.158 112.38 767.318 112.436 767.432 112.549C767.547 112.663 767.604 112.82 767.604 113.021C767.604 113.222 767.547 113.379 767.432 113.492C767.318 113.605 767.158 113.662 766.952 113.662H761.208V118.28H766.609C766.815 118.28 766.975 118.336 767.089 118.45C767.204 118.563 767.261 118.72 767.261 118.921C767.261 119.122 767.204 119.279 767.089 119.392C766.975 119.505 766.815 119.562 766.609 119.562H761.208V124.387H766.952C767.158 124.387 767.318 124.444 767.432 124.557C767.547 124.658 767.604 124.815 767.604 125.028C767.604 125.229 767.547 125.387 767.432 125.5C767.318 125.613 767.158 125.669 766.952 125.669H760.539ZM778.923 112.286C779.128 112.286 779.288 112.361 779.403 112.512C779.517 112.65 779.574 112.838 779.574 113.077V124.972C779.574 125.211 779.511 125.405 779.386 125.556C779.271 125.694 779.105 125.764 778.888 125.764C778.671 125.764 778.482 125.657 778.322 125.443L771.206 114.981V124.972C771.206 125.211 771.143 125.405 771.017 125.556C770.903 125.694 770.743 125.764 770.537 125.764C770.331 125.764 770.171 125.694 770.057 125.556C769.943 125.405 769.886 125.211 769.886 124.972V113.077C769.886 112.838 769.943 112.65 770.057 112.512C770.183 112.361 770.354 112.286 770.571 112.286C770.8 112.286 770.994 112.392 771.154 112.606L778.254 123.068V113.077C778.254 112.838 778.311 112.65 778.425 112.512C778.551 112.361 778.717 112.286 778.923 112.286ZM786.283 125.764C786.066 125.764 785.888 125.694 785.751 125.556C785.626 125.405 785.563 125.211 785.563 124.972V113.699H781.876C781.67 113.699 781.51 113.643 781.396 113.53C781.281 113.417 781.224 113.253 781.224 113.04C781.224 112.826 781.281 112.663 781.396 112.549C781.51 112.436 781.67 112.38 781.876 112.38H790.673C790.879 112.38 791.039 112.436 791.153 112.549C791.267 112.663 791.324 112.826 791.324 113.04C791.324 113.253 791.267 113.417 791.153 113.53C791.039 113.643 790.879 113.699 790.673 113.699H786.986V124.972C786.986 125.211 786.923 125.405 786.797 125.556C786.672 125.694 786.5 125.764 786.283 125.764ZM802.208 124.708C802.288 124.846 802.328 124.991 802.328 125.141C802.328 125.33 802.259 125.487 802.122 125.613C801.996 125.726 801.848 125.782 801.676 125.782C801.413 125.782 801.207 125.657 801.059 125.405L798.761 121.409C798.464 120.894 798.155 120.542 797.835 120.353C797.515 120.152 797.081 120.052 796.532 120.052H794.371V124.972C794.371 125.211 794.308 125.405 794.182 125.556C794.057 125.694 793.891 125.764 793.685 125.764C793.468 125.764 793.296 125.694 793.171 125.556C793.045 125.405 792.982 125.211 792.982 124.972V113.134C792.982 112.908 793.045 112.725 793.171 112.587C793.308 112.449 793.485 112.38 793.702 112.38H797.955C799.27 112.38 800.27 112.7 800.956 113.341C801.653 113.982 802.002 114.925 802.002 116.169C802.002 117.224 801.722 118.073 801.162 118.714C800.613 119.354 799.824 119.744 798.795 119.882C799.081 119.983 799.338 120.146 799.567 120.372C799.796 120.599 800.024 120.913 800.253 121.315L802.208 124.708ZM797.835 118.77C798.772 118.77 799.47 118.556 799.927 118.129C800.396 117.702 800.63 117.055 800.63 116.188C800.63 115.333 800.401 114.698 799.944 114.284C799.487 113.869 798.784 113.662 797.835 113.662H794.371V118.77H797.835ZM805.544 125.669C805.327 125.669 805.15 125.6 805.012 125.462C804.887 125.324 804.824 125.141 804.824 124.915V113.134C804.824 112.908 804.887 112.725 805.012 112.587C805.15 112.449 805.327 112.38 805.544 112.38H811.957C812.163 112.38 812.323 112.436 812.438 112.549C812.552 112.663 812.609 112.82 812.609 113.021C812.609 113.222 812.552 113.379 812.438 113.492C812.323 113.605 812.163 113.662 811.957 113.662H806.213V118.28H811.614C811.82 118.28 811.98 118.336 812.095 118.45C812.209 118.563 812.266 118.72 812.266 118.921C812.266 119.122 812.209 119.279 812.095 119.392C811.98 119.505 811.82 119.562 811.614 119.562H806.213V124.387H811.957C812.163 124.387 812.323 124.444 812.438 124.557C812.552 124.658 812.609 124.815 812.609 125.028C812.609 125.229 812.552 125.387 812.438 125.5C812.323 125.613 812.163 125.669 811.957 125.669H805.544ZM815.593 125.764C815.376 125.764 815.204 125.694 815.078 125.556C814.953 125.405 814.89 125.211 814.89 124.972V113.134C814.89 112.908 814.953 112.725 815.078 112.587C815.216 112.449 815.393 112.38 815.61 112.38H819.674C820.943 112.38 821.926 112.719 822.624 113.398C823.332 114.076 823.687 115.038 823.687 116.282C823.687 117.526 823.332 118.494 822.624 119.185C821.915 119.876 820.932 120.222 819.674 120.222H816.296V124.972C816.296 125.211 816.233 125.405 816.107 125.556C815.981 125.694 815.81 125.764 815.593 125.764ZM819.537 118.94C821.377 118.94 822.298 118.054 822.298 116.282C822.298 114.535 821.377 113.662 819.537 113.662H816.296V118.94H819.537ZM835.254 124.708C835.334 124.846 835.374 124.991 835.374 125.141C835.374 125.33 835.305 125.487 835.168 125.613C835.043 125.726 834.894 125.782 834.722 125.782C834.459 125.782 834.254 125.657 834.105 125.405L831.807 121.409C831.51 120.894 831.201 120.542 830.881 120.353C830.561 120.152 830.127 120.052 829.578 120.052H827.417V124.972C827.417 125.211 827.354 125.405 827.229 125.556C827.103 125.694 826.937 125.764 826.731 125.764C826.514 125.764 826.343 125.694 826.217 125.556C826.091 125.405 826.028 125.211 826.028 124.972V113.134C826.028 112.908 826.091 112.725 826.217 112.587C826.354 112.449 826.531 112.38 826.749 112.38H831.001C832.316 112.38 833.316 112.7 834.002 113.341C834.7 113.982 835.048 114.925 835.048 116.169C835.048 117.224 834.768 118.073 834.208 118.714C833.659 119.354 832.87 119.744 831.842 119.882C832.127 119.983 832.385 120.146 832.613 120.372C832.842 120.599 833.071 120.913 833.299 121.315L835.254 124.708ZM830.881 118.77C831.819 118.77 832.516 118.556 832.973 118.129C833.442 117.702 833.676 117.055 833.676 116.188C833.676 115.333 833.448 114.698 832.99 114.284C832.533 113.869 831.83 113.662 830.881 113.662H827.417V118.77H830.881ZM838.59 125.669C838.373 125.669 838.196 125.6 838.059 125.462C837.933 125.324 837.87 125.141 837.87 124.915V113.134C837.87 112.908 837.933 112.725 838.059 112.587C838.196 112.449 838.373 112.38 838.59 112.38H845.004C845.209 112.38 845.369 112.436 845.484 112.549C845.598 112.663 845.655 112.82 845.655 113.021C845.655 113.222 845.598 113.379 845.484 113.492C845.369 113.605 845.209 113.662 845.004 113.662H839.259V118.28H844.661C844.866 118.28 845.027 118.336 845.141 118.45C845.255 118.563 845.312 118.72 845.312 118.921C845.312 119.122 845.255 119.279 845.141 119.392C845.027 119.505 844.866 119.562 844.661 119.562H839.259V124.387H845.004C845.209 124.387 845.369 124.444 845.484 124.557C845.598 124.658 845.655 124.815 845.655 125.028C845.655 125.229 845.598 125.387 845.484 125.5C845.369 125.613 845.209 125.669 845.004 125.669H838.59ZM856.973 112.286C857.179 112.286 857.339 112.361 857.453 112.512C857.568 112.65 857.625 112.838 857.625 113.077V124.972C857.625 125.211 857.562 125.405 857.436 125.556C857.322 125.694 857.156 125.764 856.939 125.764C856.722 125.764 856.533 125.657 856.373 125.443L849.256 114.981V124.972C849.256 125.211 849.194 125.405 849.068 125.556C848.953 125.694 848.793 125.764 848.588 125.764C848.382 125.764 848.222 125.694 848.108 125.556C847.993 125.405 847.936 125.211 847.936 124.972V113.077C847.936 112.838 847.993 112.65 848.108 112.512C848.233 112.361 848.405 112.286 848.622 112.286C848.851 112.286 849.045 112.392 849.205 112.606L856.304 123.068V113.077C856.304 112.838 856.361 112.65 856.476 112.512C856.602 112.361 856.767 112.286 856.973 112.286ZM861.419 125.669C861.202 125.669 861.025 125.6 860.888 125.462C860.762 125.324 860.699 125.141 860.699 124.915V113.134C860.699 112.908 860.762 112.725 860.888 112.587C861.025 112.449 861.202 112.38 861.419 112.38H867.833C868.038 112.38 868.198 112.436 868.313 112.549C868.427 112.663 868.484 112.82 868.484 113.021C868.484 113.222 868.427 113.379 868.313 113.492C868.198 113.605 868.038 113.662 867.833 113.662H862.088V118.28H867.49C867.695 118.28 867.855 118.336 867.97 118.45C868.084 118.563 868.141 118.72 868.141 118.921C868.141 119.122 868.084 119.279 867.97 119.392C867.855 119.505 867.695 119.562 867.49 119.562H862.088V124.387H867.833C868.038 124.387 868.198 124.444 868.313 124.557C868.427 124.658 868.484 124.815 868.484 125.028C868.484 125.229 868.427 125.387 868.313 125.5C868.198 125.613 868.038 125.669 867.833 125.669H861.419ZM875.482 125.82C873.904 125.82 872.709 125.368 871.898 124.463C871.086 123.558 870.68 122.226 870.68 120.467V113.077C870.68 112.838 870.743 112.65 870.869 112.512C870.994 112.361 871.166 112.286 871.383 112.286C871.589 112.286 871.755 112.361 871.88 112.512C872.006 112.65 872.069 112.838 872.069 113.077V120.599C872.069 121.893 872.355 122.867 872.927 123.52C873.51 124.174 874.361 124.501 875.482 124.501C876.602 124.501 877.448 124.174 878.019 123.52C878.591 122.867 878.877 121.893 878.877 120.599V113.077C878.877 112.838 878.94 112.65 879.065 112.512C879.203 112.361 879.374 112.286 879.58 112.286C879.797 112.286 879.969 112.361 880.094 112.512C880.22 112.65 880.283 112.838 880.283 113.077V120.467C880.283 122.213 879.871 123.545 879.048 124.463C878.237 125.368 877.048 125.82 875.482 125.82ZM892.486 124.708C892.566 124.846 892.606 124.991 892.606 125.141C892.606 125.33 892.537 125.487 892.4 125.613C892.274 125.726 892.126 125.782 891.954 125.782C891.691 125.782 891.485 125.657 891.337 125.405L889.039 121.409C888.742 120.894 888.433 120.542 888.113 120.353C887.793 120.152 887.359 120.052 886.81 120.052H884.649V124.972C884.649 125.211 884.586 125.405 884.461 125.556C884.335 125.694 884.169 125.764 883.963 125.764C883.746 125.764 883.575 125.694 883.449 125.556C883.323 125.405 883.26 125.211 883.26 124.972V113.134C883.26 112.908 883.323 112.725 883.449 112.587C883.586 112.449 883.763 112.38 883.98 112.38H888.233C889.548 112.38 890.548 112.7 891.234 113.341C891.931 113.982 892.28 114.925 892.28 116.169C892.28 117.224 892 118.073 891.44 118.714C890.891 119.354 890.102 119.744 889.073 119.882C889.359 119.983 889.616 120.146 889.845 120.372C890.074 120.599 890.302 120.913 890.531 121.315L892.486 124.708ZM888.113 118.77C889.05 118.77 889.748 118.556 890.205 118.129C890.674 117.702 890.908 117.055 890.908 116.188C890.908 115.333 890.68 114.698 890.222 114.284C889.765 113.869 889.062 113.662 888.113 113.662H884.649V118.77H888.113Z" fill="black"/>
<path d="M421.716 80.6378C421.716 81.685 421.081 82.3832 420.128 82.3832C419.176 82.3832 418.54 81.685 418.54 80.6378L420.128 66.6746L418.54 52.7113C418.54 51.664 419.176 50.9659 420.128 50.9659C421.081 50.9659 421.716 51.664 421.716 52.7113L420.128 66.6746L421.716 80.6378ZM402.663 43.9843H405.838V57.9475H402.663V43.9843ZM383.609 43.9843H386.785V57.9475H383.609V43.9843ZM404.25 85.874C404.25 88.8412 402.187 91.1102 399.487 91.1102C396.788 91.1102 394.723 88.8412 394.723 85.874C394.723 82.9068 396.788 80.6378 399.487 80.6378C402.187 80.6378 404.25 82.9068 404.25 85.874Z" fill="#455A64"/>
<path d="M401.075 85.8739C401.075 86.9211 400.439 87.6193 399.487 87.6193C398.534 87.6193 397.9 86.9211 397.9 85.8739C397.9 84.8266 398.534 84.1285 399.487 84.1285C400.439 84.1285 401.075 84.8266 401.075 85.8739Z" fill="#B0BEC5"/>
<path d="M406.632 54.4567H402.98C402.821 54.4567 402.663 54.4567 402.504 54.4567C402.504 54.6312 402.663 54.8057 402.663 54.9803C402.821 57.4238 399.329 59.5183 394.882 59.6929C390.595 59.8675 387.102 58.122 386.785 55.853C372.812 57.5984 355.029 61.0892 355.029 65.8018C355.029 72.958 396.152 77.147 402.663 77.147H406.632C408.696 77.147 410.602 77.147 412.19 76.9724V54.6312C410.602 54.4567 408.696 54.4567 406.632 54.4567Z" fill="#7986CB" fill-opacity="0.5"/>
<path d="M414.571 65.8018C414.571 67.1981 415.682 68.4199 416.953 68.4199H419.335C420.605 68.4199 421.716 67.1981 421.716 65.8018C421.716 64.4054 420.605 63.1837 419.335 63.1837H416.953C415.682 63.1837 414.571 64.4054 414.571 65.8018Z" fill="#607D8B"/>
<path d="M392.342 76.449L395.518 82.907C396.311 81.6852 397.581 80.8125 399.01 80.8125L398.693 77.1472C396.947 76.7981 394.882 76.6236 392.342 76.449Z" fill="#78909C"/>
<path d="M418.54 70.1654V61.4384C418.54 56.3766 416 54.9803 412.19 54.6313V76.9725C416 76.6234 418.54 75.227 418.54 70.1654ZM408.22 38.748C394.723 38.748 378.846 43.9843 378.846 43.9843C377.893 43.9843 377.258 44.6825 377.258 45.7297C377.258 46.6024 377.893 47.3006 378.528 47.475C378.687 47.475 378.687 47.475 378.846 47.475L408.22 45.7297C409.49 45.7297 410.602 44.5079 410.602 43.1116V41.3662C410.602 38.748 408.22 38.748 408.22 38.748ZM365.667 59.6929C364.397 56.3766 361.38 49.2205 358.364 49.2205C354.394 49.2205 351.853 49.2205 351.853 49.2205L355.029 65.8018C355.029 63.3583 359.474 61.4384 365.667 59.6929ZM402.504 54.4567C402.504 54.6313 402.663 54.8058 402.663 54.9803C402.821 57.4239 399.329 59.5184 394.882 59.6929C394.723 59.6929 394.406 59.6929 394.247 59.6929C394.089 59.6929 393.93 59.6929 393.771 59.6929C393.613 59.6929 393.294 59.6929 393.136 59.6929C392.818 59.6929 392.66 59.6929 392.342 59.5184C392.184 59.5184 391.865 59.5184 391.707 59.3439C391.389 59.3439 391.231 59.1693 390.913 59.1693C390.755 59.1693 390.595 58.9947 390.436 58.9947C390.119 58.8203 389.96 58.8203 389.643 58.6457C389.484 58.6457 389.484 58.4711 389.325 58.4711C389.007 58.2966 388.849 58.1221 388.531 57.9475C388.531 57.9475 388.373 57.9475 388.373 57.773C388.055 57.5984 387.896 57.4239 387.737 57.2494C387.578 57.0748 387.42 56.7258 387.261 56.5512C386.944 56.3766 386.785 56.2022 386.785 55.853C385.673 56.0276 384.72 56.2022 383.609 56.2022C384.086 60.2166 388.214 63.1837 394.089 63.1837C394.406 63.1837 394.565 63.1837 394.882 63.1837C397.423 63.0092 399.963 62.311 401.868 61.2638C404.409 59.6929 405.838 57.4239 405.679 54.8058C405.679 54.6313 405.679 54.6313 405.679 54.4567H402.821C402.821 54.4567 402.663 54.4567 402.504 54.4567Z" fill="#7986CB"/>
<path fill-rule="evenodd" clip-rule="evenodd" d="M827.94 71.9146L827.298 72.3362L828.108 73.8196L828.748 73.3991L827.94 71.9146Z" fill="#1D2735"/>
<path fill-rule="evenodd" clip-rule="evenodd" d="M828.967 73.2347L827.873 73.9549L828.011 74.2075L829.105 73.4884L828.967 73.2347Z" fill="#1D2735"/>
<path fill-rule="evenodd" clip-rule="evenodd" d="M828.687 73.4252L828.167 73.784L829.606 76.4787L830.125 76.1205L828.687 73.4252Z" fill="#1D2735"/>
<path fill-rule="evenodd" clip-rule="evenodd" d="M831.313 69.3478L824.545 73.7999C824.242 73.9986 824.144 74.4313 824.325 74.7645C824.503 75.0965 824.899 75.2057 825.201 75.0074L831.969 70.5554C832.272 70.3557 832.37 69.9231 832.189 69.5897C832.008 69.259 831.614 69.1493 831.313 69.3478Z" fill="#8EC2EB"/>
<path fill-rule="evenodd" clip-rule="evenodd" d="M850.596 57.0121L849.955 57.4341L850.763 58.9176L851.403 58.4971L850.596 57.0121Z" fill="#1D2735"/>
<path fill-rule="evenodd" clip-rule="evenodd" d="M851.622 58.3323L850.527 59.0524L850.665 59.306L851.76 58.5859L851.622 58.3323Z" fill="#1D2735"/>
<path fill-rule="evenodd" clip-rule="evenodd" d="M851.423 58.6763L850.896 59.0231L851.28 59.7267L851.806 59.3814L851.423 58.6763Z" fill="#1D2735"/>
<path fill-rule="evenodd" clip-rule="evenodd" d="M853.645 61.2851C853.454 62.1283 852.675 62.6415 851.907 62.4294C851.139 62.2173 850.674 61.3617 850.866 60.5198C851.061 59.675 851.837 59.1633 852.604 59.3741C853.372 59.5861 853.839 60.4424 853.645 61.2851Z" fill="#313E4F"/>
<path fill-rule="evenodd" clip-rule="evenodd" d="M852.901 61.0804C852.81 61.4719 852.451 61.7086 852.093 61.6121C851.738 61.5128 851.522 61.1144 851.612 60.7236L852.901 61.0804Z" fill="#313E4F"/>
<path fill-rule="evenodd" clip-rule="evenodd" d="M852.36 60.4519C852.588 60.5145 852.724 60.7683 852.668 61.0174V61.0173C852.611 61.2649 852.38 61.4166 852.153 61.3533C851.928 61.2899 851.79 61.039 851.847 60.7891V60.7892C851.905 60.5409 852.135 60.3899 852.36 60.4519Z" fill="#E5F3FB"/>
<path fill-rule="evenodd" clip-rule="evenodd" d="M852.018 60.8366C851.985 60.9807 852.066 61.1279 852.197 61.1656C852.329 61.2021 852.463 61.1129 852.496 60.9687C852.529 60.8221 852.449 60.6761 852.317 60.6397C852.185 60.604 852.052 60.6917 852.018 60.8366Z" fill="#313E4F"/>
<path fill-rule="evenodd" clip-rule="evenodd" d="M853.241 54.7983L846.475 59.2513C846.172 59.4495 846.073 59.8828 846.255 60.2155C846.435 60.5468 846.828 60.6556 847.13 60.4579L853.9 56.0063C854.201 55.8071 854.299 55.3736 854.119 55.0413C853.939 54.7099 853.544 54.6002 853.241 54.7983Z" fill="#8EC2EB"/>
<path fill-rule="evenodd" clip-rule="evenodd" d="M800.262 76.8272L788.812 63.712L791.457 62.1178L805.108 67.3637C806.375 67.8771 807.737 67.9113 809.176 67.5477L815.923 65.6926L805.657 74.5818L800.262 76.8272Z" fill="#8EC2EB"/>
<path fill-rule="evenodd" clip-rule="evenodd" d="M800.262 76.8275L788.812 63.7125L790.565 62.6545L803.933 70.1552C806.244 71.1198 809.091 70.531 811.198 69.7841L801.473 77.6593L800.262 76.8275Z" fill="#6DA4D4"/>
<path fill-rule="evenodd" clip-rule="evenodd" d="M855.758 54.0426L821.12 77.1449C805.181 83.8935 801.678 81.5142 800.038 76.8698C814.803 65.8635 829.178 56.2656 844.944 46.9186C846.82 45.8076 851.588 43.6125 854.758 44.2193C855.28 44.3191 855.748 44.5011 856.164 44.7714C859.522 44.6253 861.564 45.0392 860.141 48.232C859.141 50.4792 857.758 52.4998 855.758 54.0426Z" fill="#B0D8F2"/>
<path fill-rule="evenodd" clip-rule="evenodd" d="M856.164 44.7714L854.453 47.1317C853.402 47.1522 852.574 46.9357 852.093 46.3516L854.106 44.1338C854.761 44.1415 855.673 44.4063 856.164 44.7714Z" fill="#405776"/>
<path fill-rule="evenodd" clip-rule="evenodd" d="M840.324 60.8079L832.513 66.3826C831.92 66.8059 831.708 67.6529 832.071 68.319L833.368 70.702C833.731 71.3674 834.508 71.5552 835.129 71.1878L843.33 66.3321C843.953 65.9646 844.135 65.0636 843.773 64.3972L842.084 61.2948C841.721 60.6289 840.915 60.3858 840.324 60.8079Z" fill="#6DA4D4"/>
<path fill-rule="evenodd" clip-rule="evenodd" d="M832.96 66.0619L832.513 66.3828L832.469 66.4158L835.081 71.2139L835.129 71.187L835.599 70.9091L832.96 66.0619Z" fill="#405776"/>
<path fill-rule="evenodd" clip-rule="evenodd" d="M839.983 61.0507L839.49 61.4022L842.455 66.8501L842.973 66.5452L839.983 61.0507Z" fill="#405776"/>
<path fill-rule="evenodd" clip-rule="evenodd" d="M819.383 68.7653L818.964 69.0275C818.696 69.1944 818.601 69.5725 818.754 69.8691L819.309 70.9421C819.462 71.2372 819.806 71.3418 820.074 71.1731L820.492 70.9114C820.762 70.743 820.857 70.3654 820.705 70.0702L820.149 68.9972C819.997 68.7021 819.651 68.598 819.383 68.7653Z" fill="#405776"/>
<path fill-rule="evenodd" clip-rule="evenodd" d="M814.923 71.5963L814.504 71.8585C814.235 72.0255 814.14 72.4041 814.292 72.7001L814.847 73.7736C815 74.0687 815.344 74.1735 815.613 74.0041L816.032 73.7424C816.3 73.5747 816.395 73.1975 816.243 72.9018L815.688 71.8288C815.535 71.5337 815.191 71.4291 814.923 71.5963Z" fill="#405776"/>
<path fill-rule="evenodd" clip-rule="evenodd" d="M810.461 74.4285L810.042 74.6902C809.773 74.8571 809.679 75.2351 809.832 75.5312L810.387 76.6042C810.54 76.8993 810.885 77.0039 811.151 76.8358L811.571 76.5735C811.838 76.4063 811.934 76.0285 811.781 75.7334L811.227 74.6599C811.074 74.3648 810.729 74.2602 810.461 74.4285Z" fill="#405776"/>
<path fill-rule="evenodd" clip-rule="evenodd" d="M827.125 76.2837C827.34 75.5414 828.024 75.09 828.721 75.2309V75.2341L827.125 76.2837Z" fill="#DE3322"/>
<path fill-rule="evenodd" clip-rule="evenodd" d="M829.836 77.1319C829.647 77.9626 828.88 78.4664 828.125 78.257C827.37 78.0495 826.91 77.2068 827.1 76.3761C827.29 75.5474 828.057 75.0423 828.812 75.2511C829.567 75.4598 830.026 76.302 829.836 77.1319Z" fill="#313E4F"/>
<path fill-rule="evenodd" clip-rule="evenodd" d="M828.57 76.3123C828.793 76.3747 828.927 76.6224 828.872 76.8683H828.871C828.815 77.1128 828.589 77.2606 828.366 77.2003C828.144 77.138 828.009 76.8902 828.065 76.6442V76.6443C828.121 76.4005 828.347 76.2519 828.57 76.3123Z" fill="#E5F3FB"/>
<path fill-rule="evenodd" clip-rule="evenodd" d="M828.527 76.4963C828.658 76.5315 828.736 76.6772 828.703 76.8203L828.234 76.6894C828.265 76.5463 828.399 76.4604 828.527 76.4963ZM828.411 77.0143C828.281 76.9784 828.202 76.8334 828.235 76.6903L828.704 76.8212C828.67 76.9638 828.54 77.0502 828.411 77.0143Z" fill="#313E4F"/>
<path fill-rule="evenodd" clip-rule="evenodd" d="M829.545 74.6905C829.76 73.9496 830.445 73.4982 831.139 73.6378V73.643L829.545 74.6905Z" fill="#DE3322"/>
<path fill-rule="evenodd" clip-rule="evenodd" d="M832.255 75.5402C832.064 76.3696 831.299 76.8739 830.545 76.6645C829.789 76.4558 829.33 75.6143 829.52 74.7836C829.709 73.9536 830.476 73.4498 831.232 73.6585C831.987 73.8659 832.446 74.7094 832.255 75.5402Z" fill="#313E4F"/>
<path fill-rule="evenodd" clip-rule="evenodd" d="M831.521 75.3383C831.435 75.7246 831.077 75.9578 830.728 75.8601C830.379 75.7637 830.167 75.3735 830.253 74.9883L831.521 75.3383Z" fill="#313E4F"/>
<path fill-rule="evenodd" clip-rule="evenodd" d="M830.991 74.7198C831.213 74.7809 831.346 75.0306 831.291 75.2746L830.484 75.053C830.539 74.8077 830.767 74.6581 830.991 74.7198ZM830.787 75.6074C830.565 75.5462 830.43 75.2973 830.485 75.0533L831.292 75.275C831.236 75.5209 831.011 75.6689 830.787 75.6074Z" fill="#E5F3FB"/>
<path fill-rule="evenodd" clip-rule="evenodd" d="M830.948 74.9073C831.078 74.9432 831.156 75.0869 831.123 75.23L830.655 75.1004C830.686 74.9572 830.817 74.8708 830.948 74.9073ZM830.831 75.4234C830.7 75.3884 830.621 75.2433 830.655 75.1008L831.124 75.2304C831.091 75.3743 830.96 75.4606 830.831 75.4234Z" fill="#313E4F"/>
<path fill-rule="evenodd" clip-rule="evenodd" d="M848.756 50.13L848.337 50.3922C848.068 50.56 847.973 50.9386 848.127 51.2338L848.682 52.3077C848.833 52.6024 849.177 52.7061 849.447 52.5387L849.865 52.277C850.135 52.1086 850.229 51.7306 850.077 51.4355L849.521 50.361C849.37 50.0668 849.025 49.9621 848.756 50.13Z" fill="#405776"/>
<path fill-rule="evenodd" clip-rule="evenodd" d="M844.295 52.9616L843.877 53.2233C843.608 53.3912 843.513 53.7697 843.665 54.0648L844.221 55.1393C844.374 55.433 844.718 55.5366 844.987 55.3698L845.405 55.1081C845.673 54.9403 845.768 54.5622 845.615 54.2671L845.06 53.1926C844.907 52.8984 844.564 52.7938 844.295 52.9616Z" fill="#405776"/>
<path fill-rule="evenodd" clip-rule="evenodd" d="M839.834 55.7927L839.414 56.0549C839.146 56.2228 839.051 56.6008 839.205 56.8959L839.759 57.9704C839.913 58.2641 840.257 58.3677 840.524 58.202L840.943 57.9397C841.212 57.7713 841.306 57.3933 841.154 57.0982L840.599 56.0237C840.447 55.7295 840.102 55.6248 839.834 55.7927Z" fill="#405776"/>
<path fill-rule="evenodd" clip-rule="evenodd" d="M826.449 64.2873L826.031 64.5489C825.763 64.7168 825.667 65.0955 825.822 65.39L826.377 66.4639C826.529 66.7581 826.873 66.8619 827.141 66.6955L827.559 66.4339C827.828 66.266 827.923 65.8873 827.771 65.5922L827.215 64.5177C827.064 64.2236 826.719 64.1189 826.449 64.2873Z" fill="#405776"/>
<path fill-rule="evenodd" clip-rule="evenodd" d="M824.219 65.7027L823.801 65.9644C823.532 66.1322 823.437 66.5108 823.59 66.8059L824.145 67.8804C824.297 68.1746 824.641 68.2784 824.91 68.1114L825.329 67.8497C825.598 67.6814 825.693 67.3028 825.541 67.0076L824.985 65.9332C824.834 65.639 824.488 65.5349 824.219 65.7027Z" fill="#405776"/>
<path fill-rule="evenodd" clip-rule="evenodd" d="M848.771 56.4558L845.472 57.31L831.685 63.4316C830.249 64.4454 821.504 63.055 816.323 59.7479L814.739 60.7897L823.454 67.6962C825.281 69.1495 827.055 69.663 828.776 69.2324L838.611 63.0709L848.771 56.4558Z" fill="#8EC2EB"/>
<path d="M1211.72 47.458L1210.48 65.1779C1210.48 65.1779 1204.28 73.0838 1200.44 76.9003C1199.07 78.2633 1198.08 80.0354 1198.08 82.08V86.987H1215.45H1220.4H1237.76V82.2162C1237.76 80.1717 1236.77 78.3997 1235.41 77.0366C1231.57 72.9474 1225.36 65.1779 1225.36 65.1779L1224.13 47.458H1211.72Z" fill="#9FA8DA"/>
<path d="M1228.83 86.987H1226.36C1225.49 81.2621 1224.13 78.8086 1224.13 78.8086C1224.13 78.8086 1224.13 51.1383 1224.13 47.458L1225.36 65.1779C1225.36 65.1779 1225.86 65.7231 1226.6 66.6772V77.9907C1227.35 79.3538 1228.34 82.08 1228.83 86.987ZM1207.01 86.987H1209.49C1210.24 81.1259 1211.72 78.8086 1211.72 78.8086C1211.72 78.8086 1211.72 51.1383 1211.72 47.458L1210.48 65.1779C1210.48 65.1779 1209.99 65.7231 1209.25 66.6772V77.9907C1208.5 79.3538 1207.51 82.08 1207.01 86.987Z" fill="#7986CB"/>
<path d="M1211.72 47.4582C1211.72 50.8659 1211.72 78.8088 1211.72 78.8088C1211.72 78.8088 1209.25 82.898 1209.25 92.4395H1226.6C1226.6 83.1707 1224.13 78.8088 1224.13 78.8088C1224.13 78.8088 1224.13 51.1385 1224.13 47.4582C1224.13 43.778 1220.65 32.4645 1217.92 32.4645C1215.19 32.4645 1211.72 44.0506 1211.72 47.4582Z" fill="#C5CAE9"/>
<path d="M1198.08 82.2162V86.987H1195.6V82.2162C1195.6 80.1717 1196.72 78.536 1197.96 77.0366C1202.42 71.5843 1209.25 63.8148 1209.25 63.8148C1210.86 56.318 1211.72 47.458 1211.72 47.458C1211.72 49.0937 1211.72 56.7269 1211.72 64.0874C1211.72 64.2238 1211.72 64.3601 1211.72 64.3601L1211.47 65.1779L1210.98 65.7231C1210.86 65.8594 1204.16 73.629 1199.7 78.8086C1198.58 80.1717 1198.08 81.1259 1198.08 82.2162ZM1224.13 64.3601L1224.37 65.1779L1224.87 65.7231C1224.99 65.8594 1231.69 73.629 1236.15 78.8086C1237.39 80.1717 1237.88 81.2621 1237.88 82.2162V86.987H1240.37V82.2162C1240.37 80.1717 1239.25 78.536 1238.01 77.0366C1233.42 71.5843 1226.6 63.8148 1226.6 63.8148C1224.99 56.318 1224.13 47.458 1224.13 47.458C1224.13 49.23 1224.13 56.8632 1224.13 64.0874C1224.13 64.2238 1224.13 64.3601 1224.13 64.3601Z" fill="#455A64"/>
<path d="M1215.45 95.1658H1210.48V92.4396H1215.45V95.1658ZM1225.36 92.4396H1220.4V95.1658H1225.36V92.4396Z" fill="#546E7A"/>
<path d="M1217.92 32.4647C1219.04 32.4647 1220.15 34.2368 1221.27 36.554H1214.69C1215.69 34.2368 1216.81 32.4647 1217.92 32.4647ZM1217.92 40.6432C1215.19 40.6432 1213.46 42.2789 1213.33 42.4151L1214.94 44.4598C1214.94 44.4598 1216.07 43.3693 1217.8 43.3693C1219.53 43.3693 1220.65 44.3234 1220.65 44.3234L1222.26 42.2789C1222.38 42.2789 1220.65 40.6432 1217.92 40.6432Z" fill="#455A64"/>
<path d="M1211.72 78.8088H1216.69V92.4396H1219.16V78.8088H1224.13V76.0828H1211.72V78.8088Z" fill="#9FA8DA"/>
<path d="M68.5923 64.9292H316.287" stroke="#373365" stroke-width="2" stroke-dasharray="16 8"/>
<path d="M476.336 64.9292H739.273" stroke="#373365" stroke-width="2" stroke-dasharray="16 8"/>
<path d="M912.66 64.9292H1154.64" stroke="#373365" stroke-width="2" stroke-dasharray="16 8"/>
</svg>
